<?xml version="1.0" encoding="utf-8"?>
<!-- Generator: Adobe Illustrator 17.1.0, SVG Export Plug-In . SVG Version: 6.00 Build 0)  -->
<!DOCTYPE svg PUBLIC "-//W3C//DTD SVG 1.1//EN" "http://www.w3.org/Graphics/SVG/1.1/DTD/svg11.dtd">
<svg version="1.1" id="Layer_1" xmlns="http://www.w3.org/2000/svg" xmlns:xlink="http://www.w3.org/1999/xlink" x="0px" y="0px"
	 width="840.1px" height="97.6px" viewBox="0 0 840.1 97.6" enable-background="new 0 0 840.1 97.6" xml:space="preserve">
<g>
	<g>
		
			<line fill="none" stroke="#D67C1C" stroke-width="7" stroke-linecap="round" stroke-linejoin="round" x1="105.9" y1="48.7" x2="106" y2="48.7"/>
		
			<line fill="none" stroke="#D67C1C" stroke-width="7" stroke-linecap="round" stroke-linejoin="round" stroke-dasharray="0.1138,11.3807" x1="117.3" y1="48.7" x2="134.6" y2="48.7"/>
		
			<line fill="none" stroke="#D67C1C" stroke-width="7" stroke-linecap="round" stroke-linejoin="round" x1="140.3" y1="48.7" x2="140.4" y2="48.7"/>
	</g>
</g>
<g>
	<g>
		
			<line fill="none" stroke="#D67C1C" stroke-width="7" stroke-linecap="round" stroke-linejoin="round" x1="254.4" y1="48.7" x2="254.5" y2="48.7"/>
		
			<line fill="none" stroke="#D67C1C" stroke-width="7" stroke-linecap="round" stroke-linejoin="round" stroke-dasharray="0.1138,11.3807" x1="265.8" y1="48.7" x2="283.1" y2="48.7"/>
		
			<line fill="none" stroke="#D67C1C" stroke-width="7" stroke-linecap="round" stroke-linejoin="round" x1="288.8" y1="48.7" x2="288.9" y2="48.7"/>
	</g>
</g>
<g>
	<g>
		
			<line fill="none" stroke="#D67C1C" stroke-width="7" stroke-linecap="round" stroke-linejoin="round" x1="402.9" y1="48.7" x2="403" y2="48.7"/>
		
			<line fill="none" stroke="#D67C1C" stroke-width="7" stroke-linecap="round" stroke-linejoin="round" stroke-dasharray="0.1138,11.3807" x1="414.3" y1="48.7" x2="431.6" y2="48.7"/>
		
			<line fill="none" stroke="#D67C1C" stroke-width="7" stroke-linecap="round" stroke-linejoin="round" x1="437.3" y1="48.7" x2="437.4" y2="48.7"/>
	</g>
</g>
<g>
	<g>
		
			<line fill="none" stroke="#D67C1C" stroke-width="7" stroke-linecap="round" stroke-linejoin="round" x1="552.4" y1="48.7" x2="552.4" y2="48.7"/>
		
			<line fill="none" stroke="#D67C1C" stroke-width="7" stroke-linecap="round" stroke-linejoin="round" stroke-dasharray="0.1138,11.3807" x1="563.8" y1="48.7" x2="581.1" y2="48.7"/>
		
			<line fill="none" stroke="#D67C1C" stroke-width="7" stroke-linecap="round" stroke-linejoin="round" x1="586.8" y1="48.7" x2="586.9" y2="48.7"/>
	</g>
</g>
<g>
	<g>
		
			<line fill="none" stroke="#D67C1C" stroke-width="7" stroke-linecap="round" stroke-linejoin="round" x1="699.9" y1="48.7" x2="699.9" y2="48.7"/>
		
			<line fill="none" stroke="#D67C1C" stroke-width="7" stroke-linecap="round" stroke-linejoin="round" stroke-dasharray="0.1138,11.3807" x1="711.3" y1="48.7" x2="728.6" y2="48.7"/>
		
			<line fill="none" stroke="#D67C1C" stroke-width="7" stroke-linecap="round" stroke-linejoin="round" x1="734.3" y1="48.7" x2="734.4" y2="48.7"/>
	</g>
</g>
<circle fill="#D67C1C" cx="48.5" cy="48.5" r="48.5"/>
<path fill="#FFFFFF" d="M42.6,61.2C31.2,61.2,22,52,22,40.7c0-11.3,9.2-20.6,20.6-20.6s20.6,9.2,20.6,20.6
	C63.2,52,53.9,61.2,42.6,61.2z"/>
<circle fill="#D67C1C" cx="42.4" cy="40.5" r="14.3"/>
<rect x="60" y="49.1" transform="matrix(-0.7071 0.7071 -0.7071 -0.7071 153.3685 63.1545)" fill="#FFFFFF" width="7.2" height="28.5"/>
<circle fill="#D67C1C" cx="345.6" cy="48.8" r="48.5"/>
<circle fill="#D67C1C" cx="495.9" cy="48.6" r="48.5"/>
<circle fill="#D67C1C" cx="642.4" cy="49.1" r="48.5"/>
<g>
	<path fill="#FFFFFF" d="M672.7,39.8l-20,12.5l2,20.3l-14.3-12.5l-20.1,12.5l11.2-20.3l-14.3-12.5h21.2l11.2-20.2l1.9,20.2H672.7z"
		/>
</g>
<rect x="470.7" y="44.9" fill="#FFFFFF" width="10" height="23.4"/>
<rect x="488.9" y="35.8" fill="#FFFFFF" width="10" height="32.5"/>
<rect x="507.9" y="25.5" fill="#FFFFFF" width="10" height="42.9"/>
<circle fill="#D67C1C" cx="197.6" cy="48.8" r="48.5"/>
<rect x="165.2" y="54.6" fill="#FFFFFF" width="18.5" height="10"/>
<rect x="188.2" y="54.6" fill="#FFFFFF" width="18.5" height="10"/>
<rect x="177.1" y="40.4" fill="#FFFFFF" width="18.5" height="10"/>
<rect x="200.3" y="40.4" fill="#FFFFFF" width="18.5" height="10"/>
<rect x="189.7" y="26.3" fill="#FFFFFF" width="18.5" height="10"/>
<rect x="211.2" y="54.6" fill="#FFFFFF" width="18.5" height="10"/>
<circle fill="#D67C1C" cx="791.6" cy="48.6" r="48.5"/>
<path fill="#FFFFFF" d="M791.5,23.1c-14.7,0-26.6,11.9-26.6,26.6c0,14.7,11.9,26.6,26.6,26.6S818,64.3,818,49.6h-7
	c0,10.8-8.8,19.6-19.6,19.6s-19.6-8.8-19.6-19.6c0-10.8,8.8-19.6,19.6-19.6V23.1z"/>
<polygon fill="#FFFFFF" points="791.5,41.2 791.5,12.3 808,26.7 "/>
<circle fill="#FFFFFF" cx="322.7" cy="35" r="6"/>
<circle fill="#FFFFFF" cx="346" cy="31.6" r="6"/>
<circle fill="#FFFFFF" cx="368.9" cy="35" r="6"/>
<path fill="#FFFFFF" d="M332,58.9c0-3.5,0-7.1,0-7.6c0-3.6-2.6-7.1-7.8-7.1c-2.5,0-0.6,0-3.1,0c-7,0-7.6,6.2-7.6,7.2c0,1,0,8.7,0,13
	c0,2.2,1.3,3.6,2.6,4.4C317.5,64.6,323.6,60.9,332,58.9z"/>
<path fill="#FFFFFF" d="M370.4,44.3c-2.5,0-0.6,0-3.1,0c-7,0-7.6,6.2-7.6,7.2c0,0.5,0,4.1,0,7.5c8.3,2,14.2,5.7,15.5,10.1
	c1.4-0.6,3-1.9,3-4.7c0-3.6,0-12,0-13C378.1,47.7,375.6,44.3,370.4,44.3z"/>
<path fill="#FFFFFF" d="M345.6,57.4c3.4,0,6.6,0.3,9.6,0.7c0-2,0-9.3,0-10.2c0-3.6-2.6-7.1-7.8-7.1c-2.5,0-0.6,0-3.1,0
	c-7,0-7.6,6.2-7.6,7.2c0,0.8,0,7.8,0,9.9C339.5,57.6,342.5,57.4,345.6,57.4z"/>
</svg>
