<?xml version="1.0" encoding="utf-8"?>
<!-- Generator: Adobe Illustrator 17.1.0, SVG Export Plug-In . SVG Version: 6.00 Build 0)  -->
<!DOCTYPE svg PUBLIC "-//W3C//DTD SVG 1.1//EN" "http://www.w3.org/Graphics/SVG/1.1/DTD/svg11.dtd">
<svg version="1.1" id="Layer_1" xmlns="http://www.w3.org/2000/svg" xmlns:xlink="http://www.w3.org/1999/xlink" x="0px" y="0px"
	 width="97px" height="97px" viewBox="0 0 97 97" enable-background="new 0 0 97 97" xml:space="preserve">
<g>
	<circle opacity="0.8" cx="48.5" cy="48.5" r="48.5"/>
	<circle fill="#FFFFFF" cx="25.7" cy="34.6" r="6"/>
	<circle fill="#FFFFFF" cx="48.9" cy="31.3" r="6"/>
	<circle fill="#FFFFFF" cx="71.8" cy="34.6" r="6"/>
	<path fill="#FFFFFF" d="M34.9,58.6c0-3.5,0-7,0-7.6c0-3.6-2.6-7.1-7.8-7.1c-2.5,0-0.6,0-3.1,0c-7,0-7.6,6.2-7.6,7.2c0,1,0,8.7,0,13
		c0,2.2,1.3,3.6,2.6,4.4C20.4,64.2,26.5,60.5,34.9,58.6z"/>
	<path fill="#FFFFFF" d="M73.3,44c-2.5,0-0.6,0-3.1,0c-7,0-7.6,6.2-7.6,7.2c0,0.5,0,4.1,0,7.5c8.3,2,14.2,5.7,15.5,10.1
		c1.4-0.6,3-1.9,3-4.7c0-3.6,0-12,0-13C81.1,47.4,78.5,44,73.3,44z"/>
	<path fill="#FFFFFF" d="M48.6,57.1c3.4,0,6.6,0.3,9.6,0.7c0-2,0-9.3,0-10.2c0-3.6-2.6-7.1-7.8-7.1c-2.5,0-0.6,0-3.1,0
		c-7,0-7.6,6.2-7.6,7.2c0,0.8,0,7.8,0,9.9C42.5,57.3,45.5,57.1,48.6,57.1z"/>
</g>
</svg>
