<?xml version="1.0" encoding="utf-8"?>
<!-- Generator: Adobe Illustrator 17.1.0, SVG Export Plug-In . SVG Version: 6.00 Build 0)  -->
<!DOCTYPE svg PUBLIC "-//W3C//DTD SVG 1.1//EN" "http://www.w3.org/Graphics/SVG/1.1/DTD/svg11.dtd">
<svg version="1.1" id="Layer_1" xmlns="http://www.w3.org/2000/svg" xmlns:xlink="http://www.w3.org/1999/xlink" x="0px" y="0px"
	 width="97px" height="97px" viewBox="0 0 97 97" enable-background="new 0 0 97 97" xml:space="preserve">
<g>
	<circle opacity="0.8" cx="48.5" cy="48.5" r="48.5"/>
	<path fill="#FFFFFF" d="M40.7,63.2c-11.3,0-20.6-9.2-20.6-20.6S29.3,22,40.7,22c11.3,0,20.6,9.2,20.6,20.6
		C61.2,53.9,52,63.2,40.7,63.2z M40.5,56.7c7.9,0,14.3-6.4,14.3-14.3s-6.4-14.3-14.3-14.3s-14.3,6.4-14.3,14.3
		C26.2,50.3,32.6,56.7,40.5,56.7z"/>
	
		<rect x="59.7" y="49.3" transform="matrix(0.7071 -0.7071 0.7071 0.7071 -26.4228 63.4178)" fill="#FFFFFF" width="7.2" height="28.5"/>
</g>
</svg>
