<?xml version="1.0" encoding="utf-8"?>
<!-- Generator: Adobe Illustrator 17.1.0, SVG Export Plug-In . SVG Version: 6.00 Build 0)  -->
<!DOCTYPE svg PUBLIC "-//W3C//DTD SVG 1.1//EN" "http://www.w3.org/Graphics/SVG/1.1/DTD/svg11.dtd">
<svg version="1.1" id="Layer_1" xmlns="http://www.w3.org/2000/svg" xmlns:xlink="http://www.w3.org/1999/xlink" x="0px" y="0px"
	 width="202.5px" height="420.8px" viewBox="0 0 202.5 420.8" enable-background="new 0 0 202.5 420.8" xml:space="preserve">
<path fill="#CAD349" d="M20.5,394.5c1,5.1,11.7,2.7,15.1-3.2c4.4-7.5,1.1-17.3-8.4-12.5c-2.3,1.2-8.7,10-7.8,12.7
	c0.5,1.5,1.2,2.6,2.1,3.3"/>
<path fill="#CAD349" d="M171.3,391.5c-1.2,6.6,7.9,13,14.2,7.4c4.6-4.1,0.4-13.9-5.2-15.3c-11.8-3-16.1,12.8-2.4,15.9"/>
<path fill="#CAD349" d="M50.7,339.6c-2.9,2.7-8.5,9.7-7.8,14.4c1.1,6.7,12.2,1.1,15.7-2.8c5.3-5.9-0.2-12.6-7.5-11.6
	c-4.8,0.6-8.2,4-9.2,9c-1.5,7.4,2.2,7.4,9.1,8.7"/>
<path fill="#CAD349" d="M107.5,402.5c2.1,2.8,6,10.2,4.2,15c-2.5,7-12,1.1-14.4-3c-3.7-6.2,3-13.1,9.8-12.1c4.5,0.7,7,4.2,6.8,9.4
	c-0.3,7.8-5.3,8.9-9.8,7"/>
<path fill="#CAD349" d="M175,359.6c-2.9-1-9.4-4.4-10.5-8.7c-1.6-6.3,8.1-6.7,11.9-5c5.7,2.6,4.3,10.9-1.1,13.5
	c-3.6,1.7-7.1,0.4-9.6-3.4c-3.6-5.7-0.6-9.1,3.6-9.9"/>
<g>
	
		<path fill="none" stroke="#CAD449" stroke-width="1.2285" stroke-linecap="round" stroke-linejoin="round" stroke-miterlimit="10" d="
		M90.6,361.9c-12.2,6.2-26.7,9.5-39.1,12.8c-8.5,2.3-26.5,5.9-27,3.2c-0.5-2.7,3.2-4.6,4.8-5.4c13.8-7,28.5-13.9,42.3-18.6
		c3-1,11.8-5.1,12.9-7.3c-6.1-0.8-11.9-3.4-18-4.5c-3.3-0.6-14.6-0.3-17.4-3.4c-1.8-1.9-2.5-4.8-1.9-7.4c18.1-1.2,38.2,1.2,56.3,3
		c8.4,0.8,14.4,1.9,25.5,1.6c9-0.3,44.2,4.3,50.9,6.1c-5.3,11.5-45.8,1.2-53.8,9.7c15.3,3.8,30.7,11,45.7,17.4
		c4,1.7,16.5,5,17.7,10.3c2.5,11-28.3-0.1-32.1-1.7c-20.1-8.6-35.2-17.4-56.9-18C100.5,359.9,94.9,359.7,90.6,361.9z"/>
	<g>
		
			<path fill="none" stroke="#CAD449" stroke-width="1.2285" stroke-linecap="round" stroke-linejoin="round" stroke-miterlimit="10" d="
			M184.4,135.8c-9,2.8-21.1,0.3-21.8-5.5c-1.1-9,0.3-14.7,2-23.5c0.5-2.8,1.2-3.4,1.2-3.4c9.5,1.5,25.3,3.3,32.7-4.2
			c3.2-3.3,4.8-8.6,1.7-12.5c-2.9-3.6-10.1-2-14.9-2.1c-8.3-0.2-49.4-9.7-48.7,4.9c0.4,9.4,13.9,10.7,21.1,11
			c-2.4,10.3,1.5,19.9-2.9,29.5c-2.8,6.1-8,4.8-13.5,3.3c-4.9-1.3-12.4-1-16.1-1c-18.2-0.1-33.7,1.6-46,2.2
			c-16.8,0.9-33.9,1-39.6,3.1c-4.7,1.7-6.6,4.2-6.8,6c-0.2,1.9,0.7,4,3.7,5.5"/>
		
			<path fill="none" stroke="#CAD449" stroke-width="1.2285" stroke-linecap="round" stroke-linejoin="round" stroke-miterlimit="10" d="
			M37.8,177c-13-3.9-19.2-20-18.6-33.7c0.5-11,5.6-23.2,4.4-34.1c-5.9-0.8-13.1,1.4-18.1-2.5c-4.6-3.6-5.2-10.1-4.8-15.5
			c11.9-6.4,18.4-5,31.9-2.1c6.2,1.3,24.7,1.1,29.6,6.3c2.6,2.8,3.2,5.5,2.9,8c-0.6,5.6-6.5,10.2-13.3,11.2
			c-9.1,1.4-15.6-0.8-23-3.7c0,0-0.2,0.3-0.2,1.3c0.5,7.4,3,15,3.2,22.8c0.2,7.6-0.9,15.4-0.2,23c0.6,5.9,3,14.5,6.5,19.3
			c5.1,7.1,22.9,7.3,22.9,7.3c30.7,3.7,62.9,3.5,93.3-1.6c17.1-2.9,42.7-5.7,45.5-27c1.2-9.6-3.9-16.5-13-19.5
			c-4.7-1.5-11.3-0.7-16.2-1.5"/>
		
			<path fill="none" stroke="#CAD449" stroke-width="1.2285" stroke-linecap="round" stroke-linejoin="round" stroke-miterlimit="10" d="
			M95.4,197.3c0.1,21.3,2.8,141.1,3.7,162.6c0.4,11-0.5,37.4-0.5,48.4c9.9-0.1,12.6-21.3,13.1-28.2c0.9-11.9-0.2-38.9-1.5-50.6
			c-1.3-11,1.5-121-1.1-131.7"/>
		
			<path fill="none" stroke="#CAD449" stroke-width="1.2285" stroke-linecap="round" stroke-linejoin="round" stroke-miterlimit="10" d="
			M91.9,187.3c-0.6,3.9,1.8,8.4,8.4,9.9"/>
		
			<path fill="none" stroke="#CAD449" stroke-width="1.2285" stroke-linecap="round" stroke-linejoin="round" stroke-miterlimit="10" d="
			M95.4,195.2c2.8,3.5,8.3,5.2,12.5,1.5c2.4-2.1,2.4-5.8,1.1-9.1"/>
		
			<path fill="none" stroke="#CAD449" stroke-width="1.2285" stroke-linecap="round" stroke-linejoin="round" stroke-miterlimit="10" d="
			M51.1,175.1c-1-18.7,19.9-26.7,32.5-25.3c17.5,1.9,35.8,1.5,53.4,0.8"/>
	</g>
</g>
<path fill="#CAD349" d="M131.2,83.2c-5.3-0.6-20.3,1.3-24.7,1.6c-2.1,0.1-3.7,0.2-4.4,0.2H47.6c-0.4,0-0.8-0.4-0.8-0.8
	c0-0.4,0.4-0.8,0.8-0.8H102c0.7,0,2.3-0.1,4.3-0.2c10.1-0.6,20.7-2,24.9-1.5c0.2-3.6,0.6-7.5,1.3-11.5c1.1-6.4,2.2-18.7,4.8-31.3
	c-5.2-2.3-13.6-2.2-21-2.2c-2.9,0-5.7,0-8-0.1c-7.6-0.4-15-0.1-22.8,0.4c-1.5,0.1-2.9,0.2-4.4,0.2c-17,0.8-37.3,2.3-58.1,6.8
	c-0.1,0-0.1,0-0.2,0c-0.4,0-0.7-0.3-0.8-0.6c-0.1-0.4,0.2-0.8,0.6-0.9c21-4.6,41.3-6,58.4-6.9c1.5-0.1,2.9-0.1,4.4-0.2
	c7.5-0.4,15.2-0.8,23-0.4c2.3,0.1,5,0.1,7.9,0.1c7.4-0.1,15.8-0.1,21.3,2.2c2.2-11.1,2.8-21.2-1.7-24.9c-18.2-15.2-75.4-14-95.6-9.1
	C23.1,7.6,2.1,5.4,4.5,23.5C6.1,36,22.8,75,25.7,87.5c0.3,1.1,1.8,0.4,3.7,1c6,1.8,18.3,1.8,26.8,3.8c5.7,1.3,8.2,5.7,8.8,9.5
	c0.1,0.6,0.1,1.5,0,2.5c12.2-0.1,24.6-0.7,36.6-1.2c4.3-0.2,8.6-0.4,12.9-0.6c2.5-0.1,4.9-0.2,7.4-0.3c0.4,0,0.8,0.3,0.8,0.8
	c0,0.4-0.3,0.8-0.8,0.8c-2.4,0.1-4.9,0.2-7.3,0.3c-4.3,0.2-8.6,0.4-12.9,0.6c-12.1,0.6-24.5,1.2-36.9,1.2c-0.6,2.8-2.6,4.8-5.1,6.3
	c-5.4,3.2-14.8,3-21.4,2.2c-2.3-0.3-4.5-1.4-5.8-1.6c-0.3,0-3.2-1.4-3.5-1.2c-0.3,0.2,2.1,5.8,5.3,10.7c4.8,7.1,17.4,8.5,18.2,8.6
	c2.4,0.4,31.5,2.6,49.4-0.1c9.1-1.4,22.4-2.6,27.8-13.4C135,106.8,130.5,103.4,131.2,83.2z M19.2,25.1L19.2,25.1
	c-0.4,0-0.8-0.4-0.8-0.8c0-0.4,0.4-0.8,0.8-0.8h2.1c23.7,0,36.7,0,60.8-3.4c9.2-1.3,18.5-0.9,27.4-0.4c4.7,0.2,9.6,0.5,14.5,0.4
	c0,0,0,0,0,0c0.4,0,0.8,0.3,0.8,0.8c0,0.4-0.3,0.8-0.8,0.8c-0.7,0-1.4,0-2.2,0c0,0,0,0-0.1,0c-4.2,0-8.3-0.2-12.4-0.4
	c-8.9-0.4-18.1-0.8-27.1,0.4c-24.2,3.4-37.3,3.4-61,3.4L19.2,25.1z M28.4,56.4L28.4,56.4c-0.4,0-0.8-0.4-0.8-0.8
	c0-0.4,0.4-0.8,0.8-0.8l2.1,0c23.7,0,36.7,0,60.8-3.4c9.2-1.3,18.5-0.9,27.4-0.4c4.7,0.2,9.6,0.5,14.5,0.4h0c0.4,0,0.8,0.3,0.8,0.8
	c0,0.4-0.3,0.8-0.8,0.8c-0.7,0-1.4,0-2.2,0c0,0,0,0-0.1,0c-4.2,0-8.3-0.2-12.4-0.4c-8.9-0.4-18.1-0.8-27.1,0.4
	c-24.2,3.4-37.3,3.4-61,3.4L28.4,56.4z M37.5,73.3c-0.4,0-0.7-0.3-0.8-0.7c0-0.4,0.3-0.8,0.7-0.9c33.4-3.4,62.7-5,89.6-5.1
	c0,0,0,0,0,0c0.4,0,0.8,0.4,0.8,0.8c0,0.4-0.4,0.8-0.8,0.8C100.1,68.3,70.9,70,37.5,73.3C37.5,73.3,37.5,73.3,37.5,73.3z M123,117.4
	c-10,1.3-20.2,1-30.2,0.7c-6.4-0.2-13-0.3-19.4-0.1c-1.7,0.1-3.4,0.3-5.3,0.5c-2.3,0.3-4.7,0.6-7,0.6c-1.8,0-3.6-0.2-5.3-0.7
	c-0.4-0.1-0.6-0.6-0.5-1c0.1-0.4,0.6-0.6,1-0.5c3.4,1,7.6,0.5,11.6,0.1c1.9-0.2,3.7-0.4,5.4-0.5c6.4-0.2,13.1-0.1,19.5,0.1
	c9.9,0.3,20.1,0.5,29.9-0.7c0.4-0.1,0.8,0.3,0.9,0.7C123.7,116.9,123.4,117.3,123,117.4z"/>
</svg>
