<?xml version="1.0" encoding="utf-8"?>
<!-- Generator: Adobe Illustrator 16.0.0, SVG Export Plug-In . SVG Version: 6.00 Build 0)  -->
<!DOCTYPE svg PUBLIC "-//W3C//DTD SVG 1.1//EN" "http://www.w3.org/Graphics/SVG/1.1/DTD/svg11.dtd">
<svg version="1.1" id="Layer_1" xmlns="http://www.w3.org/2000/svg" xmlns:xlink="http://www.w3.org/1999/xlink" x="0px" y="0px"
	 width="502px" height="548px" viewBox="0 0 502 548" enable-background="new 0 0 502 548" xml:space="preserve">
<g>
	<g>
		<g>
			<g>
				<path fill="#EA652A" d="M166.703,346.298c2.348,0,4.28,0.749,5.801,2.248c1.521,1.498,2.281,3.421,2.281,5.768v3.178
					c0,2.355-0.761,4.277-2.281,5.768c-1.521,1.489-3.453,2.234-5.801,2.234h-8.635v-2.307l2.043-0.396v-13.776l-2.043-0.396v-2.32
					h2.043H166.703z M163.961,349.265v13.275h2.545c1.38,0,2.461-0.466,3.243-1.397s1.173-2.149,1.173-3.651v-3.204
					c0-1.485-0.391-2.693-1.173-3.626c-0.782-0.931-1.863-1.396-3.243-1.396H163.961z"/>
				<path fill="#EA652A" d="M183.592,365.771c-2.057,0-3.701-0.66-4.932-1.979s-1.846-2.992-1.846-5.022v-0.527
					c0-2.118,0.583-3.862,1.747-5.233c1.165-1.371,2.727-2.053,4.687-2.044c1.926,0,3.419,0.58,4.482,1.74s1.596,2.729,1.596,4.706
					v2.097h-8.517l-0.026,0.079c0.07,0.94,0.385,1.714,0.942,2.32c0.559,0.606,1.316,0.91,2.274,0.91
					c0.853,0,1.56-0.086,2.123-0.258c0.562-0.171,1.177-0.441,1.846-0.811l1.041,2.373c-0.589,0.466-1.352,0.857-2.287,1.174
					C185.786,365.612,184.742,365.771,183.592,365.771z M183.248,353.931c-0.711,0-1.274,0.273-1.688,0.818
					s-0.668,1.261-0.764,2.148l0.039,0.066h4.72v-0.344c0-0.816-0.191-1.47-0.573-1.957
					C184.6,354.175,184.021,353.931,183.248,353.931z"/>
				<path fill="#EA652A" d="M191.357,353.931v-2.702h2.122v-0.976c0-1.793,0.548-3.175,1.642-4.146
					c1.095-0.971,2.635-1.457,4.621-1.457c0.686,0,1.362,0.068,2.03,0.205c0.668,0.136,1.441,0.332,2.32,0.586l-0.554,3.033
					c-0.642-0.193-1.224-0.344-1.747-0.449c-0.522-0.105-1.123-0.158-1.799-0.158c-0.889,0-1.554,0.203-1.998,0.607
					c-0.443,0.404-0.666,0.997-0.666,1.779v0.976h8.648v11.562l2.044,0.396v2.307h-7.752v-2.307l1.858-0.396v-8.859h-4.799v8.859
					l1.859,0.396v2.307h-7.766v-2.307l2.057-0.396v-8.859H191.357z"/>
				<path fill="#EA652A" d="M220.468,356.133h-2.584l-0.409-1.78c-0.264-0.211-0.595-0.386-0.995-0.527
					c-0.399-0.14-0.842-0.211-1.325-0.211c-0.677,0-1.213,0.152-1.607,0.455c-0.396,0.304-0.594,0.684-0.594,1.141
					c0,0.431,0.188,0.789,0.566,1.074c0.378,0.286,1.135,0.539,2.268,0.758c1.768,0.353,3.076,0.868,3.93,1.55
					c0.852,0.681,1.278,1.619,1.278,2.814c0,1.283-0.552,2.331-1.654,3.145c-1.104,0.812-2.556,1.22-4.357,1.22
					c-1.099,0-2.107-0.161-3.025-0.481c-0.919-0.321-1.733-0.78-2.446-1.378l-0.039-3.203h2.689l0.527,1.858
					c0.229,0.193,0.541,0.336,0.936,0.429c0.396,0.092,0.809,0.139,1.24,0.139c0.781,0,1.377-0.141,1.786-0.422
					c0.408-0.281,0.612-0.664,0.612-1.147c0-0.422-0.206-0.786-0.619-1.095c-0.413-0.307-1.174-0.58-2.281-0.816
					c-1.679-0.344-2.946-0.851-3.803-1.523c-0.857-0.672-1.285-1.588-1.285-2.748c0-1.195,0.491-2.227,1.477-3.092
					c0.983-0.866,2.386-1.299,4.205-1.299c1.107,0,2.155,0.149,3.145,0.448c0.988,0.299,1.764,0.682,2.326,1.147L220.468,356.133z"
					/>
				<path fill="#EA652A" d="M222.722,358.229c0-2.127,0.596-3.87,1.787-5.228c1.19-1.358,2.836-2.037,4.938-2.037
					c2.109,0,3.759,0.677,4.95,2.03c1.19,1.354,1.786,3.098,1.786,5.234v0.276c0,2.145-0.596,3.892-1.786,5.24
					c-1.191,1.35-2.833,2.024-4.925,2.024c-2.118,0-3.772-0.675-4.963-2.024c-1.191-1.349-1.787-3.096-1.787-5.24V358.229z
					 M226.571,358.506c0,1.301,0.229,2.345,0.686,3.131c0.457,0.787,1.195,1.181,2.215,1.181c0.993,0,1.721-0.396,2.183-1.188
					c0.461-0.791,0.692-1.832,0.692-3.124v-0.276c0-1.266-0.233-2.299-0.699-3.099s-1.199-1.2-2.201-1.2s-1.732,0.4-2.189,1.2
					s-0.686,1.833-0.686,3.099V358.506z"/>
				<path fill="#EA652A" d="M258.343,350.121l-0.065-0.013l-6.21,15.385h-1.728l-6.209-15.372l-0.066,0.013l0.264,7.766v5.563
					l2.149,0.369v1.661h-6.896v-1.661l2.149-0.369v-15.122l-2.149-0.369v-1.674h2.149h3.322l6.117,15.596h0.079l6.104-15.596h5.484
					v1.674l-2.148,0.369v15.122l2.148,0.369v1.661h-6.895v-1.661l2.148-0.369v-5.563L258.343,350.121z"/>
				<path fill="#EA652A" d="M271.446,365.771c-1.986,0-3.565-0.662-4.739-1.984c-1.173-1.323-1.76-3.039-1.76-5.148v-0.58
					c0-2.03,0.604-3.72,1.812-5.069c1.209-1.349,2.639-2.023,4.292-2.023c1.915,0,3.368,0.58,4.356,1.74
					c0.989,1.16,1.483,2.707,1.483,4.641v1.622h-9.255l-0.04,0.065c0.027,1.371,0.374,2.498,1.042,3.382
					c0.668,0.883,1.604,1.324,2.808,1.324c0.879,0,1.65-0.125,2.314-0.375c0.663-0.251,1.236-0.596,1.721-1.035l1.015,1.688
					c-0.51,0.492-1.185,0.907-2.023,1.246C273.633,365.601,272.624,365.771,271.446,365.771z M271.052,353.009
					c-0.871,0-1.613,0.366-2.229,1.101c-0.615,0.733-0.993,1.654-1.134,2.762l0.026,0.065h6.578v-0.342
					c0-1.02-0.272-1.873-0.816-2.559C272.932,353.351,272.123,353.009,271.052,353.009z"/>
				<path fill="#EA652A" d="M289.061,363.792c-0.466,0.651-1.035,1.144-1.707,1.477c-0.673,0.334-1.453,0.502-2.341,0.502
					c-1.74,0-3.1-0.631-4.08-1.893c-0.979-1.261-1.47-2.92-1.47-4.977v-0.277c0-2.293,0.49-4.144,1.47-5.55
					c0.98-1.406,2.349-2.109,4.107-2.109c0.844,0,1.588,0.156,2.234,0.468c0.646,0.312,1.197,0.763,1.654,1.352v-5.814l-2.148-0.369
					v-1.674h2.148h2.598v18.536l2.148,0.369v1.661h-4.403L289.061,363.792z M282.06,358.901c0,1.433,0.295,2.584,0.884,3.454
					s1.498,1.306,2.729,1.306c0.772,0,1.424-0.176,1.951-0.527s0.962-0.849,1.305-1.49v-6.618c-0.334-0.598-0.77-1.072-1.305-1.424
					c-0.537-0.352-1.179-0.527-1.926-0.527c-1.238,0-2.155,0.515-2.748,1.542c-0.594,1.029-0.891,2.365-0.891,4.008V358.901z"/>
				<path fill="#EA652A" d="M295.652,363.832l2.148-0.369v-10.19l-2.148-0.369v-1.675h4.746v12.234l2.148,0.369v1.661h-6.895
					V363.832z M300.398,347.577h-2.598v-2.65h2.598V347.577z"/>
				<path fill="#EA652A" d="M313.832,365.493c-0.078-0.387-0.141-0.733-0.184-1.041c-0.045-0.308-0.075-0.615-0.093-0.924
					c-0.501,0.643-1.127,1.176-1.879,1.603c-0.751,0.426-1.554,0.64-2.405,0.64c-1.486,0-2.615-0.363-3.389-1.088
					c-0.773-0.726-1.16-1.747-1.16-3.065c0-1.354,0.547-2.397,1.642-3.131c1.094-0.734,2.595-1.101,4.502-1.101h2.677v-1.662
					c0-0.834-0.264-1.496-0.791-1.983c-0.527-0.488-1.262-0.731-2.202-0.731c-0.65,0-1.224,0.083-1.721,0.25
					c-0.496,0.167-0.898,0.396-1.206,0.686l-0.277,1.503h-2.004v-2.769c0.65-0.519,1.438-0.934,2.36-1.246
					c0.923-0.312,1.925-0.468,3.006-0.468c1.617,0,2.927,0.413,3.929,1.239s1.503,2.009,1.503,3.547v6.868
					c0,0.185,0.002,0.365,0.007,0.54c0.004,0.177,0.015,0.353,0.033,0.527l1.055,0.146v1.661H313.832z M309.653,363.595
					c0.861,0,1.647-0.206,2.36-0.619c0.711-0.413,1.221-0.91,1.529-1.49v-2.347h-2.77c-1.063,0-1.904,0.246-2.524,0.738
					c-0.619,0.492-0.929,1.09-0.929,1.793c0,0.624,0.192,1.101,0.58,1.431C308.286,363.43,308.871,363.595,309.653,363.595z"/>
			</g>
			<g>
				<g>
					<g>
						<path fill="#EA652A" d="M190.688,236.764c13.4-1.663,26.9-2.674,40.379-3.646c15.812-1.142,31.666-1.718,47.518-1.95
							c31.652-0.464,63.318,0.719,94.9,2.762c10.822,0.699,21.697,1.221,32.395,3.094c7.529,1.32,16.668,3.082,22.467,8.462
							c7.037,6.53-3.32,15.437-8.113,19.454c-9.736,8.16-20.66,12.733-32.947,15.646c-11.963,2.836-24.256,4.02-36.443,5.447
							c-14.791,1.731-29.615,2.904-44.488,3.667c-32.357,1.659-64.801,1.289-97.158-0.155c-21.508-0.959-42.947-2.736-64.461-3.49
							c-17.764-0.623-36.086-1.582-53.111-7.086c-6.701-2.166-13.971-5.509-17.916-11.629c-0.309-0.48-1.418-3.303-1.314-2.381
							c-0.012-0.1-0.303,0.69,0.055,0.141c0.037-0.059,1.449-1.242,2.143-1.699c8.34-5.481,18.582-8.597,27.951-11.754
							c14.91-5.025,34.047-5.913,49.369-9.469C151.91,242.177,164.463,240.018,190.688,236.764z M98.15,247.866
							c-8.957,3.09-18.738,6.234-26.654,11.596c-1.863,1.263-4.098,3.016-4.104,5.496c-0.014,5.148,6.203,10.234,9.955,12.823
							c13.596,9.381,32.719,10.921,48.67,12.239c16.018,1.322,32.111,1.384,48.146,2.503c62.16,4.341,124.32,4.675,186.262-2.604
							c11.859-1.394,23.729-3.047,35.229-6.354c11.137-3.202,20.467-8.682,29.309-16.092c5.633-4.722,11.795-11.414,10.52-19.336
							c-1.006-6.264-8.033-9.777-13.223-11.906c-8.037-3.297-16.951-4.541-25.523-5.531c-12.666-1.465-25.496-1.962-38.221-2.676
							c-31.697-1.773-63.467-2.454-95.203-1.521c-27.273,0.801-54.346,3.338-81.486,5.766
							C136.074,236.361,98.15,247.866,98.15,247.866z"/>
					</g>
				</g>
				<g>
					<path fill="#EA652A" d="M420.303,264.063c-17.207,23.075-31.682,48.586-38.504,76.748c-7.113,29.358-4.324,60.22-12.766,89.273
						c-12.492,42.988-56.736,58.188-97.373,59.583c-20.188,0.693-40.467-1.579-60.211-5.708
						c-20.307-4.245-40.988-10.576-59.436-20.162c-18.293-9.504-32.338-24.023-39.412-43.553c-6.822-18.835-6.84-39-6.727-58.756
						c0.199-34.762,3.236-82.547-31.635-102.822c-2.793-1.625-5.309,2.697-2.523,4.316c17.311,10.065,24.311,28.478,27.211,47.406
						c3.133,20.447,1.816,41.394,1.938,61.994c0.117,19.453,1.963,38.907,10.025,56.859c7.961,17.726,22.68,30.6,39.664,39.426
						c18.146,9.428,38.545,15.547,58.465,19.878c19.324,4.202,39.174,6.423,58.953,6.204c37.752-0.416,78.971-11.635,98.881-46.516
						c15.727-27.553,12.145-61.717,16.893-92.001c5.209-33.222,20.961-62.945,40.873-89.647
						C426.549,263.999,422.205,261.511,420.303,264.063L420.303,264.063z"/>
				</g>
				<g>
					<path fill="#EA652A" d="M128.91,451.009c-13.033,2.71-12.32,1.62-25.504,3.388c-11.33,1.52-22.465,3.855-33.725,5.752
						c-17.531,2.951-35.971,4.692-52.451,11.789c-5.992,2.58-11.641,5.914-14.342,12.094c-1.641,3.75-2.689,7.689-2.826,11.794
						c-0.252,7.527,3.467,14.319,8.744,19.445c6.74,6.548,15.648,10.638,24.326,13.919c11.689,4.419,23.992,7.188,36.262,9.426
						c30.324,5.535,61.309,7.489,92.074,8.492c47.824,1.558,96.295,1.104,143.996-3.154c22.426-2.002,44.809-4.147,67.084-7.502
						c16.648-2.508,33.26-5.599,49.512-10.033c12.773-3.486,26.305-7.75,37.143-15.611c5.01-3.635,9.738-8.609,10.66-14.979
						c1.4-9.673-6.449-17.133-13.713-22.131c-12.734-8.765-28.549-13.404-43.322-17.302c-19.129-5.048-28.939-7.359-48.586-9.553
						c-3.201-0.358-3.166,4.646,0,5c27.008,3.016,44.588,6.927,70.102,16.562c10.398,3.926,35.447,13.979,29.889,29.297
						c-3.549,9.783-17.461,15.01-26.201,18.348c-15.006,5.73-30.887,9.21-46.637,12.181c-41.551,7.839-84.074,11.322-126.299,13.113
						c-60.027,2.546-121.262,3.21-180.859-5.356c-22.527-3.238-48.357-7.248-67.455-20.598c-5.727-4.003-10.893-9.809-11.633-17.025
						c-0.387-3.763,0.418-7.445,1.723-10.958c2.486-6.698,8.824-9.638,15.162-12.032c16.111-6.085,33.617-7.757,50.479-10.66
						c11.697-2.014,23.271-4.316,35.053-5.868c12.24-1.614,10.58-0.5,22.674-3.016c3.156-0.656,3.066-5.225-0.078-4.57
						L128.91,451.009z"/>
				</g>
				<g>
					<path fill="#EA652A" d="M338.691,4.971c17.727,6.076,40.127,16.145,42.014,36.887c1.592,17.489-14.5,34.643-28.02,46.349
						c-9.953,8.616-20.988,16.185-32.322,22.753c-9.898,5.736-20.379,10.6-29.555,17.606c-7.055,5.387-11.564,12.415-11.127,20.499
						c0.48,8.879,6.516,16.6,13.156,21.566c8.545,6.39,29.641,16.641,17.123,30.716c-2.314,2.604,1.678,5.07,3.967,2.498
						c14.141-15.901-4.234-27.876-14.865-35.338c-7.475-5.246-14.998-12.81-14.283-23.12c0.668-9.658,12.738-16.263,20.547-20.753
						c21.447-12.334,42.658-24.184,60.205-42.158c11.908-12.198,22.002-27.822,20.088-43.612
						c-2.605-21.512-26.244-32.289-44.812-38.652C337.863-0.799,335.771,3.971,338.691,4.971L338.691,4.971z"/>
				</g>
				<g>
					<path fill="#EA652A" d="M397.428,305.235c18.248-4.928,32.824-20.112,49.254-28.979c13.629-7.357,35.785-12.215,45.373,3.645
						c8.248,13.646,5.1,33.154,1.748,47.753c-4.641,20.214-13.584,39.675-25.699,56.487c-7.604,10.552-17.279,19.354-28.143,26.447
						c-7.459,4.873-13.932,7.456-22.855,8.01c-8.146,0.506-47.861,2.744-38.695-16.422c1.381-2.886,0.373-6.073-1.682-3.584
						c-3.604,4.364-3.99,10.3-0.652,15.584c3.219,5.095,7.99,6.751,13.5,8c7.561,1.712,23.52,1.913,31.209,1.119
						c7.832-0.81,13.754-3.453,20.395-7.558c34.977-21.632,56.412-64.185,60.373-104.464c1.953-19.883-2.738-44.552-26.494-46.785
						c-15.025-1.412-29.711,6-41.768,14.098c-10.508,7.059-21.055,16.115-33.127,20.552
						C395.818,300.735,393.92,306.183,397.428,305.235z"/>
				</g>
				<path fill="#EA652A" d="M384.574,331.919c20.244-3.251,33.805-18.374,50.213-29.092c8.477-5.537,17.705-8.574,27.883-7.676
					c8.803,0.777,20.828,4.666,23.756,14.017c2.605,8.317-1.82,18.399-4.787,26.024c-4.209,10.824-9.146,21.361-16.062,30.74
					c-13.133,17.812-33.75,26.728-55.281,28.878c-8.32,0.831-22.18,2.476-28.951-3.736c-2.369-2.175-5.916,1.351-3.535,3.535
					c6.117,5.612,15.869,5.771,23.68,5.702c9.164-0.08,18.713-1.228,27.523-3.814c21.105-6.195,37.291-20.033,47.965-39.081
					c5.295-9.45,9.572-19.878,12.787-30.218c2.26-7.268,3.463-15.08,0.379-22.266c-3.359-7.819-12.551-11.387-20.123-13.471
					c-9.445-2.598-19.371-1.754-28.357,2.015c-21.143,8.868-34.742,29.819-58.416,33.622
					C380.068,327.608,381.422,332.427,384.574,331.919L384.574,331.919z"/>
			</g>
		</g>
	</g>
	<path fill="#EA652A" d="M335.576,291.175"/>
	<path fill="#EA652A" d="M0.91,498.843c0,0,3.334-16,6-18s28.666-13.334,28.666-13.334l78-12l16.584-4.25l31.416,19.584
		l29.334,10.666l34,8.668l30,2l22.666-0.668l26-4l18.668-6l24-12.666l9.332-10.666l6.668-8.668l62,11.334l36.666,18l6.666,14.666
		l-7.332,11.334l-21.334,16l-60,12.666l-43.334,5.334l-54,6l-50.666,2l-59.334-2l-27.332,0.666l-41.334-2.666l-27.334-6
		l-42.443-7.653L12.91,515.509l-8.666-8.666l-4.182-11.018"/>
	<path fill="#EA652A" d="M308.705,262.747c-16.146-0.351-32.215,0.771-48.334,1.414c-24.439,0.973-48.906,0.299-73.318,2.119
		c-23.746,1.771-48.445,5.596-69.416,17.533c-0.979,0.558-1.318,1.398-1.225,2.216l16.848-0.592
		c-0.424-0.057-0.844-0.112-1.248-0.177c-1.627-0.257-3.258-0.479-4.889-0.703c19.99-9.354,42.746-12.15,64.539-13.602
		c24.146-1.611,48.365-0.832,72.527-1.961c33.914-1.583,70.779-4.704,102.992,8.281c3.779,1.523,7.451,3.435,10.818,5.74
		l6.797-1.422C365.41,265.048,331.771,263.247,308.705,262.747z"/>
</g>
</svg>
