<?xml version="1.0" encoding="utf-8"?>
<!-- Generator: Adobe Illustrator 16.0.0, SVG Export Plug-In . SVG Version: 6.00 Build 0)  -->
<!DOCTYPE svg PUBLIC "-//W3C//DTD SVG 1.1//EN" "http://www.w3.org/Graphics/SVG/1.1/DTD/svg11.dtd">
<svg version="1.1" id="Layer_1" xmlns="http://www.w3.org/2000/svg" xmlns:xlink="http://www.w3.org/1999/xlink" x="0px" y="0px"
	 width="698px" height="392px" viewBox="0 0 698 392" enable-background="new 0 0 698 392" xml:space="preserve">
<g>
	<g>
		<path fill="#97E700" d="M189.02,203.846c40.38,54.918,1.336,170.296-83.991,184.94C-3.19,407.361-0.768,329.023,0.849,306.412
			c0-74.301,26.65-142.946,117.102-142.946C117.95,163.466,166.406,171.541,189.02,203.846z"/>
	</g>
	<g>
		<path fill="#97E700" d="M410.516,164.935c-69.454,6.461-110.643,61.376-118.719,125.985c-1.9,15.204,2.465,45.668,15.386,60.204
			c11.307,16.152,46.359,41.921,84.757,40.745c82.337-2.519,106.975-142.147,92.066-177.672
			C458.701,153.896,410.516,164.935,410.516,164.935z"/>
	</g>
	<path fill="#97E700" d="M207.594,272.758c-6.333,0.275-5.701-7.552-1.556-10.242c2.861-1.857,6.069-0.981,6.963,2.421
		C214.044,268.91,211.611,272.315,207.594,272.758c-1.711,0.188-1.729,2.89,0,2.699c5.394-0.593,8.782-4.47,8.225-9.959
		c-0.51-5.014-4.407-7.432-9.086-6.216c-8.391,2.182-9.188,16.613,0.861,16.175C209.328,275.382,209.335,272.682,207.594,272.758z"
		/>
	<path fill="#97E700" d="M293.266,257.661c-4.729,4.323-6.472,10.635-0.434,14.638c2.462,1.633,5.71,2.022,8.573,1.659
		c2.282-0.289,7.135-1.898,7.846-4.484c0.795-2.892-1.464-7.85-3.025-10.261c-1.309-2.021-3.53-3.626-5.983-3.783
		c-5.402-0.347-9.556,4.244-11.362,8.884c-0.633,1.625,1.979,2.322,2.604,0.719c1.185-3.043,3.501-5.78,6.701-6.743
		c4.47-1.345,6.779,3.582,7.731,7.033c0.443,1.606,1.046,3.077-0.423,4.201c-0.9,0.688-1.962,1.125-3.031,1.47
		c-2.244,0.724-4.666,0.447-6.851-0.311c-6.067-2.104-4.113-7.752-0.438-11.113C296.462,258.393,294.547,256.488,293.266,257.661
		L293.266,257.661z"/>
	<path fill="#97E700" d="M484.585,266.333c-2.63,6.604-1.849,17.8,7.106,18.791c6.796,0.753,10.879-9.411,8.418-14.699
		c-2.197-4.724-8.932-4.224-12.731-2.169c-6.229,3.368-5.229,10.502-1.617,15.438c1.018,1.39,3.362,0.044,2.332-1.363
		c-2.517-3.438-4.096-7.783-0.448-11.005c2.29-2.024,6.736-2.788,9.22-0.722c3.825,3.184-0.37,11.482-4.663,11.829
		c-2.801,0.226-4.847-2.564-5.74-4.853c-1.341-3.438-0.589-7.224,0.728-10.53C487.833,265.431,485.221,264.735,484.585,266.333
		L484.585,266.333z"/>
	<path fill="#97E700" d="M215.549,263.083c7.532-7.078,14.223-15.096,21.958-21.939c7.188-6.359,16.541-7.748,25.776-8.679
		c8.32-0.838,18.191-1.695,25.692,2.753c8.771,5.203,8.015,17.968,7.125,26.628c-0.179,1.731,2.523,1.714,2.699,0
		c0.952-9.271,1.23-20.587-6.315-27.377c-6.631-5.966-17.231-5.553-25.484-5.016c-9.773,0.636-20.354,1.721-28.57,7.525
		c-9.284,6.56-16.537,16.44-24.791,24.194C212.368,262.368,214.281,264.273,215.549,263.083L215.549,263.083z"/>
	<path fill="#97E700" d="M58.869,184.014c47.441-32.625,86.322-75.438,128.311-114.419c19.122-17.753,39.092-34.983,60.525-49.918
		c13.416-9.349,50.123-31.145,54.062-1.598c1.321,9.906-2.288,20.619-8.715,28.137c-1.125,1.316,0.775,3.235,1.908,1.91
		c9.643-11.279,16.001-35.647,1.023-45.591c-7.36-4.886-18.517-1.411-25.909,1.475c-10.619,4.146-20.259,10.697-29.411,17.392
		c-44.417,32.49-81.976,72.771-122.072,110.182c-19.272,17.981-39.346,35.148-61.085,50.099
		C56.082,182.661,57.431,185.003,58.869,184.014L58.869,184.014z"/>
	<path fill="#97E700" d="M498.148,271.088c44.86-34.118,83.112-76.06,128.555-109.448c9.443-6.938,19.346-13.175,28.798-20.089
		c6.567-4.805,17.096-13.272,25.437-8.639c18.924,10.512,14.429,38.512,10.151,55.532c-0.425,1.689,2.18,2.406,2.604,0.719
		c4.338-17.261,7.969-40.587-6.094-54.599c-5.092-5.074-10.658-6.968-17.538-4.58c-8.472,2.941-15.73,9.071-22.793,14.401
		c-5.617,4.24-11.901,7.761-17.659,11.841c-5.796,4.108-11.456,8.407-17.049,12.787c-11.347,8.886-22.265,18.311-33.032,27.884
		c-21.643,19.241-42.623,39.221-64.922,57.716c-5.838,4.842-11.783,9.552-17.82,14.143
		C495.419,269.796,496.762,272.143,498.148,271.088L498.148,271.088z"/>
</g>
</svg>
