<?xml version="1.0" encoding="utf-8"?>
<!-- Generator: Adobe Illustrator 16.0.0, SVG Export Plug-In . SVG Version: 6.00 Build 0)  -->
<!DOCTYPE svg PUBLIC "-//W3C//DTD SVG 1.1//EN" "http://www.w3.org/Graphics/SVG/1.1/DTD/svg11.dtd">
<svg version="1.1" id="Layer_1" xmlns="http://www.w3.org/2000/svg" xmlns:xlink="http://www.w3.org/1999/xlink" x="0px" y="0px"
	 width="534px" height="463px" viewBox="0 0 534 463" enable-background="new 0 0 534 463" xml:space="preserve">
<g>
	<path fill="#97E700" d="M244.426,92.057c-0.147,0-0.297-0.023-0.445-0.073c-3.573-1.198-87.688-29.46-102.405-40.716
		c-1.793-1.325-17.866-0.267-41.652,3.801c-0.759,0.13-1.485-0.381-1.616-1.144c-0.13-0.762,0.382-1.485,1.144-1.616
		c9.22-1.578,39.63-6.475,43.825-3.265C157.627,60.02,244,89.037,244.871,89.329c0.732,0.246,1.128,1.04,0.882,1.772
		C245.557,91.687,245.012,92.057,244.426,92.057z"/>
	<path fill="#97E700" d="M388.487,138.998c-0.421,0-0.838-0.189-1.113-0.55c-10.611-13.878-22.755-26.948-34.499-39.587
		c-13.136-14.137-26.719-28.755-38.314-44.655c-6.094-8.355-30.704-36.341-33.415-39.419L248.71,3.352
		c-0.729-0.257-1.111-1.057-0.854-1.786c0.258-0.729,1.056-1.111,1.786-0.855l32.779,11.557c0.225,0.08,0.426,0.215,0.584,0.394
		c1.112,1.261,27.323,30.989,33.817,39.894c11.498,15.766,25.024,30.322,38.104,44.399c11.789,12.688,23.979,25.808,34.672,39.793
		c0.47,0.614,0.353,1.493-0.262,1.962C389.083,138.904,388.784,138.998,388.487,138.998z"/>
	<path fill="#97E700" d="M278.303,462.51c-0.146,0-0.293-0.023-0.438-0.07l-41.627-13.703c-0.734-0.242-1.134-1.033-0.893-1.768
		c0.242-0.733,1.029-1.136,1.768-0.893l40.563,13.354c20.561-34.481,34.077-74.792,47.151-113.785
		c6.562-19.571,13.348-39.81,20.884-58.812c0.263-0.662,0.98-1.021,1.671-0.834c20.928,5.726,39.368,15.016,58.891,24.852
		c22.124,11.146,44.989,22.666,72.061,28.725c4.022-18.472-17.298-38.078-32.962-52.481c-3.318-3.052-6.453-5.935-8.942-8.453
		c-5.706-5.775-15.688-17.441-24.838-29.03c-16.218-20.541-15.735-22.627-15.53-23.519c0.058-0.25,0.184-0.48,0.363-0.664
		c9.589-9.802,22.901-20.959,32.081-28.5c8.251-7.228,17.148-13.813,25.753-20.182c7.128-5.276,14.499-10.731,21.386-16.477
		c16.798-14.016,39.739-35.402,54.643-58.396l-39.786-12.717c-0.737-0.235-1.144-1.023-0.908-1.76s1.02-1.146,1.76-0.907
		l41.521,13.271c0.413,0.132,0.741,0.447,0.89,0.854c0.148,0.407,0.1,0.86-0.131,1.226c-15.058,23.88-38.869,46.124-56.194,60.579
		c-6.948,5.798-14.353,11.278-21.513,16.578c-8.559,6.335-17.409,12.886-25.607,20.066c-9.009,7.4-21.953,18.245-31.407,27.831
		c1.851,5.259,27.378,37.499,39.512,49.778c2.441,2.472,5.553,5.332,8.846,8.36c16.561,15.229,39.24,36.085,33.44,56.583
		c-0.2,0.711-0.917,1.142-1.643,0.987c-28-6.05-51.411-17.845-74.052-29.252c-19.016-9.58-36.995-18.639-57.161-24.315
		c-7.324,18.593-13.954,38.365-20.369,57.5c-13.244,39.498-26.939,80.342-47.981,115.296
		C279.243,462.261,278.783,462.51,278.303,462.51z"/>
	<path fill="#97E700" d="M77.543,400.453c-0.155,0-0.311-0.026-0.46-0.078l-40.617-14.146c-0.73-0.255-1.116-1.053-0.862-1.783
		c0.254-0.729,1.053-1.115,1.783-0.861l39.907,13.899c43.228-32.83,88.161-55.941,135.722-80.406
		c15.134-7.784,30.783-15.833,46.288-24.183c0.683-0.368,1.529-0.113,1.896,0.568c0.367,0.681,0.112,1.53-0.568,1.896
		c-15.529,8.362-31.19,16.418-46.336,24.208c-47.667,24.519-92.69,47.678-135.904,80.599
		C78.144,400.354,77.845,400.453,77.543,400.453z"/>
	<g>
		<polygon fill="#97E700" points="144.957,259.378 144.958,259.368 144.957,259.368 		"/>
		<path fill="#97E700" d="M492.153,86.462c-0.356-0.496-0.978-0.725-1.573-0.581c-66.465,16.254-134.691,34.079-143.118,36.284
			c-5.831-6.238-51.744-55.557-72.07-83.425c-1.822-2.5-4.549-5.475-7.706-8.919c-7.642-8.338-18.107-19.757-17.269-27.674
			c0.077-0.725-0.378-1.4-1.079-1.601c-0.698-0.199-1.443,0.133-1.762,0.788c-11.104,22.914-16.234,38.732-21.666,55.479
			c-4.626,14.266-9.408,29.008-18.263,48.907c-10.683-4.345-81.719-33.422-95.071-43.635c-2.809-2.148-8.337-6.185-13.794-9.077
			c-0.389-0.207-0.848-0.23-1.255-0.069c-0.408,0.161-0.725,0.494-0.867,0.909c-2.229,6.514,0,22.925,6.811,50.171
			c1.138,4.551,3.142,16.158,5.264,28.447c2.647,15.329,5.623,32.562,7.78,41.242c-10.34,0.615-21.178,0.876-31.679,1.129
			c-28.182,0.679-57.324,1.381-83.586,8.689c-0.583,0.163-1.011,0.659-1.086,1.26c-0.075,0.601,0.218,1.188,0.744,1.488
			c15.542,8.884,32.984,15.016,49.853,20.945c18.117,6.369,36.841,12.951,53.222,22.957c-4.185,18.116-13.161,36.873-21.847,55.025
			c-3.246,6.783-6.312,13.19-9.092,19.481c-2.824,6.391-5.582,13.976-8.502,22.007c-6.454,17.752-13.769,37.873-24.22,51.472
			c-0.397,0.518-0.753,0.992-1.087,1.439c-1.135,1.516-1.955,2.61-3.357,3.982c-0.566,0.555-0.604,1.454-0.085,2.053
			c0.518,0.601,1.413,0.693,2.044,0.213c42.988-32.75,87.404-55.547,134.428-79.683c14.584-7.485,29.641-15.214,44.667-23.271
			c-0.238,27.705,1.605,60.352,5.484,97.089c0.351,3.312,0.673,7.26,1.014,11.438c1.231,15.101,2.766,33.894,7.207,44.395
			c1.251,2.956,1.435,4.45,1.582,5.65c0.253,2.061,0.537,3.395,3.426,6.849c0.286,0.343,0.708,0.538,1.15,0.538
			c0.038,0,0.077-0.002,0.116-0.005c0.483-0.037,0.919-0.306,1.169-0.722c21.048-34.963,34.743-75.81,47.987-115.311
			c6.406-19.106,13.026-38.85,20.338-57.417c24.637,6.893,48.696,17.998,71.978,28.744c19.133,8.831,38.917,17.963,58.99,24.756
			c0.415,0.14,0.873,0.092,1.253-0.135c0.377-0.227,0.637-0.608,0.708-1.043c3.44-20.941-24.404-51.018-33.021-59.737
			c-9.691-9.809-26.63-32.057-38.997-48.301c-2.38-3.125-4.597-6.038-6.57-8.61c8.871-9.002,18.318-17.632,28.129-25.691
			c8.196-7.179,17.046-13.729,25.604-20.063c7.16-5.3,14.564-10.78,21.515-16.579c17.329-14.458,41.148-36.708,56.213-60.603
			C492.531,87.622,492.511,86.958,492.153,86.462z M194.589,250.961c-1.958,2.585-4.702,4.062-8.156,4.393l-0.135,0.007
			c-1.345-0.001-5.262-1.62-8.277-4.845c-2.958-3.164-4.366-7.14-4.074-11.5c0.853-12.748-13.308-45.619-13.911-47.012
			c-0.214-0.497-0.5-1.11-0.878-1.884c-2.56,10.483-5.575,24.471-4.347,31.252c1.519,8.397,4.678,25.869-1.563,34.107
			c-1.958,2.585-4.703,4.062-8.157,4.393l-0.133,0.007c-1.075,0-3.798-1.202-6.483-3.875c-2.286-2.274-5.159-6.269-5.866-12.378
			c-1.735-14.995,3.48-34.201,7.289-48.226c1.69-6.226,3.151-11.603,3.572-15.056c0.681-5.562,0.458-12.466,0.093-15.381
			c-0.133-1.066-0.4-2.395-0.711-3.932c-0.633-3.135-1.421-7.037-1.426-10.735c-0.011-5.031,2.34-7.967,7.188-8.976
			c0.669-0.138,4.162-0.816,8.365-0.816c13.828,0,16.931,6.847,17.099,12.591c0.141,4.835,0.053,10.409-0.032,15.799
			c-0.209,13.223-0.446,28.21,3.148,29.006c2.738,0.602,6.034-9.101,7.618-22.073c0.679-5.555,0.457-12.462,0.094-15.381
			c-0.133-1.064-0.401-2.39-0.711-3.924c-0.634-3.137-1.423-7.042-1.43-10.742c-0.008-5.034,2.344-7.969,7.188-8.974
			c1.459-0.303,2.888-0.457,4.249-0.457c4.627,0,8.397,1.718,10.903,4.967c3.37,4.371,4.065,11.196,1.957,19.22
			c-0.548,2.085-1.157,4.354-1.801,6.751c-4.56,16.972-10.803,40.216-9.108,49.571C197.671,225.251,200.832,242.719,194.589,250.961
			z M305.747,224.605c-1.46,7.776-4.879,25.987-15.341,25.987c0,0,0,0-0.001,0c-0.872-0.001-1.782-0.131-2.706-0.385
			c-0.854-0.236-3.196-2.293-4.628-5.381c-1.086-2.341-1.972-6.02-0.021-10.25c3.349-7.275,3.396-28.259,2.955-38.337
			c-0.017-0.355-0.046-0.789-0.092-1.323c-4.781,6.939-10.772,16.185-11.758,21.423c-1.459,7.775-4.877,25.985-15.339,25.985
			c-0.872,0-1.783-0.13-2.708-0.386c-0.85-0.232-3.187-2.28-4.621-5.363c-1.091-2.344-1.982-6.028-0.029-10.267
			c4.18-9.076,3.009-37.144,2.956-38.334c-0.051-1.154-0.237-2.918-0.474-5.151c-0.488-4.61-1.147-10.856-1.14-16.788
			c-1.616,0.699-3.259,0.853-5.014,0.769c-1.691-0.079-3.472-0.822-5.193-1.54c-1.638-0.684-3.186-1.33-4.466-1.33
			c-0.919,0-2.072,0.28-2.834,2.463c-0.341,0.979-0.733,1.998-1.13,3.028c-1.534,3.987-3.121,8.109-1.949,10.354
			c0.414,0.792,1.161,1.312,2.285,1.588c1.18,0.29,2.425,0.491,3.63,0.685c3.208,0.518,6.238,1.006,7.57,3.099
			c0.808,1.269,0.892,2.972,0.255,5.207c-1.425,5.013-6.373,8.132-9.196,9.546c-3.287,1.649-7.098,2.686-9.42,2.576l-0.18-0.004
			c-3.759,0-7.689,5.965-8.413,12.765c-0.154,1.438,0.269,2.795,1.191,3.822c0.839,0.934,2.009,1.491,3.13,1.491l0.125-0.002
			c0.09-0.003,0.204-0.005,0.342-0.005c3.146,0,19.91,1.026,23.61,5.902c0.737,0.972,0.95,2.042,0.632,3.181
			c-1.064,3.804-2.432,6.874-5.64,9.49c-2.868,2.34-6.326,3.54-10.276,3.566l-0.407,0.001c-5.465,0-18.879-0.739-25.416-7.59
			c-2.626-2.752-3.861-6.207-3.671-10.268c0.012-0.263,0.013-0.622,0.015-1.07c0.009-2.832,0.029-9.463,3.037-17.689
			c2.723-7.452,3.521-11.587,3.528-11.628c0.042-0.198,3.997-18.689,5.396-26.96c0.383-2.252,0.375-4.833,0.366-7.566
			c-0.021-7.005-0.045-14.945,7.755-16.401c1.326-0.248,2.54-0.368,3.709-0.368c3.038,0,5.405,0.839,8.146,1.81
			c0.545,0.193,1.11,0.394,1.704,0.596c3.867,1.315,9.815,2.16,12.366,2c0.296-0.018,0.607-0.027,0.934-0.027
			c2.621,0,5.695,0.558,8.068,1.739c0.589-0.452,1.24-0.804,1.975-1.02c2.045-0.598,4.075-0.901,6.034-0.901
			c4.402,0,7.903,1.516,9.858,4.268c2.05,2.885,2.244,6.959,0.562,11.78c-1.253,3.594-2.881,7.663-4.455,11.599
			c-3.84,9.6-8.191,20.479-5.854,22.02c0.131,0.086,0.277,0.128,0.447,0.128c2.144,0,6.841-5.95,11.17-14.145
			c2.051-3.876,3.818-8.994,4.368-11.231c0.2-0.815,0.375-1.863,0.577-3.075c0.415-2.482,0.931-5.571,1.966-8.295
			c0.869-2.287,2.151-3.718,3.92-4.375c0.632-0.234,2.456-0.779,5.756-0.779c1.498,0,3.119,0.115,4.819,0.341
			c3.868,0.515,6.902,2.268,8.544,4.936c1.762,2.863,1.876,6.718,0.331,11.147c-1.252,3.591-2.879,7.659-4.452,11.593
			c-3.841,9.601-8.193,20.482-5.854,22.022c0.131,0.086,0.276,0.128,0.446,0.128c2.14,0,6.838-5.95,11.172-14.146
			c2.048-3.871,3.816-8.99,4.367-11.231c0.199-0.814,0.374-1.86,0.576-3.071c0.415-2.483,0.931-5.574,1.966-8.299
			c1.423-3.749,4.002-5.27,7.905-4.638c4.712,0.76,8.12,3.129,9.595,6.671c1.809,4.341,0.522,9.916-3.621,15.699
			c-0.986,1.377-2.07,2.872-3.215,4.451C318.203,202.003,307.121,217.292,305.747,224.605z M360.604,201.579
			c-1.258,0.908-2.948,1.33-5.321,1.33c-1.452,0-2.999-0.156-4.495-0.307c-1.479-0.149-2.877-0.29-4.172-0.29
			c-2.369,0-3.796,0.484-4.626,1.569c-0.204,0.266-0.201,0.468-0.181,0.597c0.146,0.938,1.955,2.194,4.049,3.648
			c5.719,3.972,15.29,10.619,7.925,23.512c-8.144,14.262-21.257,19.322-30.013,19.322c-3.599,0-6.707-0.854-8.753-2.404
			c-3.093-2.344-4.628-5.836-4.322-9.836c0.311-4.082,2.512-7.904,5.476-9.509c0.775-0.42,1.661-0.625,2.708-0.625
			c1.888,0,3.955,0.66,6.144,1.359c2.148,0.687,4.371,1.396,6.338,1.396c1.825,0,3.187-0.594,4.284-1.869
			c0.432-0.501,0.598-0.935,0.506-1.323c-0.286-1.219-2.974-2.35-5.819-3.546c-5.842-2.458-13.838-5.821-11.435-13.856
			c0.094-0.963,1.396-11.798,12.82-21.154c6.011-4.925,13.223-7.75,19.785-7.75c5.147,0,9.225,1.791,11.188,4.913
			C366.723,193.18,366.099,197.612,360.604,201.579z"/>
	</g>
</g>
</svg>
