<?xml version="1.0" encoding="utf-8"?>
<!-- Generator: Adobe Illustrator 16.0.0, SVG Export Plug-In . SVG Version: 6.00 Build 0)  -->
<!DOCTYPE svg PUBLIC "-//W3C//DTD SVG 1.1//EN" "http://www.w3.org/Graphics/SVG/1.1/DTD/svg11.dtd">
<svg version="1.1" id="Layer_1" xmlns="http://www.w3.org/2000/svg" xmlns:xlink="http://www.w3.org/1999/xlink" x="0px" y="0px"
	 width="444px" height="411px" viewBox="0 0 444 411" enable-background="new 0 0 444 411" xml:space="preserve">
<g>
	<path fill="#97E700" d="M112.01,410.705c-8.758,0.001-14.063-5.426-16.585-8.948c-4.476-6.255-6.084-14.732-3.66-19.299
		c1.007-1.896,2.237-3.262,3.323-4.468c1.575-1.751,2.818-3.132,3.15-5.604c0.62-4.623-0.316-8.42-2.783-11.284
		c-4.854-5.637-14.896-6.961-22.463-7.079c-13.709-0.212-25.068,3.076-25.181,3.108c-0.319,0.096-0.668,0.035-0.94-0.163
		c-0.271-0.197-0.435-0.51-0.444-0.846c-0.202-8.049-0.23-15.331-0.257-22.374c-0.029-7.477-0.059-15.209-0.297-23.857
		c-0.06-2.155,0.002-4.425,0.062-6.62c0.159-5.797,0.323-11.791-1.579-17.24c-3.173-9.091-9.293-12.943-13.657-12.666
		c-2.302,0.143-4.616,0.755-7.065,1.401c-4.688,1.239-9.535,2.519-14.578,0.472c-5.034-2.044-8.102-7.19-8.638-14.493
		c-0.735-10.005,3.479-20.979,9.395-24.463c7.05-4.152,13.809-2.141,19.238-0.522c6.635,1.977,11.016,3.28,13.853-5.552
		c3.28-10.202,2.41-29.783-0.461-41.67c-0.132-0.547,0.178-1.104,0.713-1.279c11.263-3.697,33.323-4.229,44.789-2.221
		c11.502,2.015,15.616,7.194,14.2,17.876c-0.413,3.114-1.179,5.846-1.919,8.488c-1.311,4.676-2.548,9.094-2.069,15.667
		c1.026,14.101,8.046,15.098,22.03,17.087c13.937,1.98,22.326-2.994,24.455-8.805c4.096-11.178,0.606-15.847-6.345-25.146
		l-0.784-1.05c-5.171-6.935-4.609-11.913-3.228-14.868c2.28-4.876,8.311-7.826,16.981-8.306c6.395-0.354,14.194,0.799,21.737,1.915
		c1.637,0.242,3.277,0.485,4.906,0.713c0.867,0.121,1.857,0.287,2.938,0.467c4.861,0.812,11.517,1.926,16.959,0.673
		c2.784-0.641,5.296-3.389,7.073-7.738c5.159-12.627,3.774-36.793-8.955-56.709c-5.501-8.609-10.042-7-18.284-4.082
		c-0.602,0.213-1.218,0.432-1.851,0.651c-8.16,2.829-13.149-0.157-16.193-2.65c-3.347-2.742-5.196-9.229-4.945-17.353
		c0.169-5.479,1.41-11.133,3.015-13.75c1.781-2.9,3.983-5.198,6.546-6.831c4.492-2.861,10.097-3.708,16.66-2.52
		c2.794,0.506,5.111,1.396,7.156,2.181c4.12,1.583,6.21,2.25,8.708,0.15c2.334-1.916,3.602-5.993,3.776-12.125
		c0.121-4.221-0.265-9.401-0.638-14.41c-0.36-4.838-0.733-9.84-0.638-13.913c0.008-0.307,0.145-0.596,0.378-0.795
		c0.233-0.199,0.536-0.291,0.844-0.25c5.791,0.771,24.043,2.097,41.973,1.811c29.205-0.458,33.932-4.801,34.607-6.647
		c1.422-3.883-0.225-7.98-1.969-12.318c-2.187-5.44-4.448-11.066-0.804-16.773c5.562-8.709,31.445-4.801,38.908-2.367
		c0.428,0.139,0.724,0.529,0.743,0.979c0.19,4.24-0.256,8.112-0.688,11.858c-0.958,8.323-1.715,14.902,5,20.975
		c8.67,5.693,20.827,4.226,27.313,2.841c1.374-0.293,2.552-0.538,3.568-0.75c6.059-1.261,6.059-1.261,7.83-3.069
		c0.296-0.302,0.742-0.403,1.139-0.26c0.398,0.144,0.675,0.507,0.709,0.93c0.318,3.988,0.72,7.721,1.107,11.331
		c1.731,16.085,3.099,28.791-4.807,45.228c-5.778,12.014-12.819,8.737-19.631,5.565c-2.91-1.355-5.921-2.757-9.106-3.266
		l-0.973-0.159c-5.36-0.879-14.331-2.351-20.271,1.774c-6.335,4.398-5.364,13.665-4.656,20.429
		c1.185,11.326,8.864,23.996,20.764,25.17c8.243,0.336,10.782-3.327,13.438-7.208c1.899-2.775,3.863-5.644,7.978-6.469
		c6.977-1.395,9.393,1.61,12.744,5.769l0.467,0.579c3.15,3.893,4.277,8.849,5.367,13.642l0.133,0.582
		c1.649,7.238,0.648,22.944-0.155,35.565c-0.327,5.128-0.609,9.556-0.668,12.673c-0.012,0.589-0.493,1.059-1.079,1.059
		c-0.008,0-0.015,0-0.021,0c-0.596-0.012-1.07-0.504-1.06-1.101c0.061-3.165,0.345-7.616,0.673-12.77
		c0.795-12.481,1.785-28.015,0.205-34.947l-0.133-0.583c-1.035-4.552-2.105-9.26-4.94-12.762l-0.47-0.583
		c-3.296-4.091-4.949-6.147-10.638-5.007c-3.254,0.652-4.813,2.932-6.62,5.571c-2.737,4-5.83,8.541-15.372,8.142
		c-13.099-1.292-21.486-14.924-22.76-27.099c-0.721-6.89-1.812-17.301,5.572-22.428c6.658-4.625,16.17-3.065,21.852-2.131
		l0.965,0.157c3.482,0.557,6.632,2.022,9.677,3.44c6.922,3.223,11.92,5.551,16.773-4.544c7.638-15.881,6.3-28.316,4.606-44.06
		c-0.319-2.961-0.646-6.005-0.93-9.21c-1.286,0.917-2.779,1.228-7.27,2.162c-1.014,0.211-2.188,0.456-3.558,0.748
		c-11.799,2.519-22.105,1.384-29.022-3.196c-0.043-0.029-0.086-0.061-0.124-0.097c-7.609-6.833-6.713-14.629-5.762-22.882
		c0.395-3.434,0.803-6.977,0.701-10.76c-9.421-2.82-31.422-4.997-35.7,1.701c-3.047,4.771-1.087,9.645,0.987,14.806
		c1.819,4.524,3.7,9.204,1.992,13.865c-4.304,11.755-66.232,7.578-77.685,6.375c-0.007,3.744,0.325,8.196,0.647,12.517
		c0.377,5.064,0.767,10.3,0.643,14.633c-0.195,6.88-1.686,11.369-4.555,13.725c-3.573,3.001-6.952,1.706-10.862,0.203
		c-1.955-0.75-4.172-1.602-6.766-2.072c-6.015-1.088-11.097-0.343-15.115,2.216c-2.285,1.455-4.258,3.52-5.866,6.139
		c-1.406,2.292-2.541,7.628-2.698,12.688c-0.224,7.235,1.408,13.365,4.155,15.615c3.044,2.494,7.103,4.715,14.118,2.281
		c0.627-0.218,1.239-0.435,1.837-0.646c8.046-2.85,14.4-5.098,20.825,4.954c13.121,20.529,14.499,45.561,9.134,58.689
		c-2.081,5.09-5.05,8.211-8.588,9.026c-5.859,1.348-12.76,0.196-17.8-0.648c-1.06-0.177-2.03-0.339-2.881-0.459
		c-1.634-0.229-3.279-0.472-4.922-0.715c-7.436-1.101-15.126-2.238-21.301-1.895c-7.725,0.428-13.245,3.003-15.145,7.065
		c-1.624,3.472-0.585,7.851,3.002,12.663l0.782,1.047c6.949,9.295,11.143,14.905,6.644,27.182
		c-3.37,9.197-15.879,11.753-26.782,10.201c-13.691-1.947-22.732-3.232-23.886-19.068c-0.506-6.949,0.841-11.758,2.145-16.407
		c0.753-2.688,1.465-5.227,1.857-8.188c1.271-9.589-1.981-13.636-12.432-15.466c-10.906-1.912-31.575-1.483-42.8,1.851
		c2.748,12.187,3.596,31.252,0.188,41.854c-3.484,10.845-9.819,8.959-16.525,6.96c-5.292-1.577-11.289-3.361-17.526,0.313
		c-5.188,3.057-9.006,13.335-8.337,22.444c0.274,3.729,1.586,10.332,7.296,12.65c4.374,1.775,8.668,0.642,13.214-0.559
		c2.443-0.646,4.969-1.312,7.482-1.47c5.299-0.341,12.266,3.901,15.83,14.11c2.034,5.823,1.864,12.02,1.7,18.012
		c-0.062,2.265-0.121,4.404-0.062,6.502c0.239,8.673,0.269,16.418,0.298,23.907c0.025,6.629,0.052,13.47,0.224,20.956
		c3.452-0.878,13.045-3.005,24.474-2.832c11.651,0.182,19.749,2.815,24.066,7.829c2.887,3.353,3.993,7.72,3.287,12.98
		c-0.421,3.133-2.007,4.896-3.686,6.762c-1.051,1.168-2.138,2.376-3.021,4.036c-1.777,3.348-0.941,10.812,3.509,17.029
		c2.562,3.58,8.329,9.351,18.128,7.774c10.318-1.66,15.632-7.076,15.793-16.101c0.09-4.981-2.125-8.553-4.47-12.335
		c-1.372-2.212-2.791-4.499-3.757-7.122c-1.244-3.377-0.604-7.112-0.029-8.785c1.112-3.239,4.091-7.488,11.971-9.34
		c18.504-4.35,57.92,3.552,76.008,12.832c0.531,0.272,0.741,0.923,0.468,1.453s-0.924,0.741-1.454,0.468
		c-17.776-9.12-56.43-16.905-74.528-12.65c-6.921,1.626-9.488,5.214-10.422,7.938c-0.449,1.308-1.024,4.524,0.013,7.339
		c0.891,2.416,2.25,4.609,3.565,6.73c2.407,3.881,4.896,7.894,4.795,13.512c-0.18,10.078-6.27,16.37-17.61,18.193
		C114.378,410.611,113.164,410.705,112.01,410.705z"/>
	<path fill="#97E700" d="M212.042,370.976c0.129,0.218,41.805,7.696,44.086-10.747c1.754-14.166-13.862-32.886,7.695-36.372
		c8.677-1.404,28.475-3.961,30.87,5.058c2.817,10.607-7.388,18.187-9.437,27.229c-4.759,21.014,70.121,10.261,86.144,7.416
		c2.511-22.471-10.372-60.175,2.903-68.457s24.766,16.213,42.075,15.709c8.965-2.244,11.889-10.736,14.749-18.374
		c3.239-8.652,4.225-16.328,3.436-25.621c-0.386-4.534-3.781-15.163-7.277-17.853c-4.587-3.525-7.027-4.438-12.775-5.182
		c-6.585-0.85-15.819,0.862-21.624,5.613c-5.684,4.652-6.466,11.006-15.091,7.723c-13.765-5.242-13.317-21.624-13.559-33.367
		c-0.209-10.168-0.418-20.336-0.627-30.503c0,0-2.312-9.79-22.806-10.987c-10.711-0.626-22.864,0.582-30.746,1.022
		c-12.95,0.726-13.382,3.878-11.067,16.03c3.304,17.344,7.807,39.085-16.843,35.479c-9.873-1.443-18.658-2.122-21.77-12.85
		c-2.762-9.52,3.104-17.102,5.414-25.533c1.839-6.715-0.222-11.865-6.248-14.822c-6.788-3.331-20.826-2.051-34.09,0.326
		c-15.82,2.834-24.29,6.584-24.29,6.584c-1.239,9.79-5.149,35.885-4.116,44.917c1.223,10.69,3.145,13.878,15.908,12.529
		c8.241-0.872,16.78-8.126,25.874-5.209c7.056,2.264,9.244,9.27,9.085,15.964c-0.137,5.806-3.147,21.887-8.683,25.365
		c-7.319,4.598-17.871-4.725-24.246-5.205c-10.746-0.809-14.021,8.234-14.435,17.17c-0.541,11.64-0.486,23.176,0.554,35.171
		C201.107,329.199,202.423,354.779,212.042,370.976z"/>
	<path fill="#97E700" d="M238.79,382.568c-5.593,0-10.963-0.532-14.482-0.978c-3.455-0.438-4.367-0.485-4.582-0.487
		c-0.024,0.003-0.05,0.005-0.074,0.007c-0.334,0.021-0.671-0.118-0.892-0.378l-8.864-10.425c-0.152-0.178-0.241-0.401-0.256-0.635
		l-1.843-30.849c-0.96-11.075-1.143-22.627-0.555-35.284c0.545-11.77,5.588-18.251,14.2-18.251c0.452,0,0.917,0.018,1.395,0.054
		c2.475,0.186,5.387,1.534,8.471,2.961c3.73,1.727,7.589,3.512,11.054,3.512c1.552,0,2.883-0.362,4.065-1.105
		c5.012-3.149,8.044-18.779,8.178-24.476c0.108-4.536-0.831-12.504-8.335-14.91c-1.507-0.483-2.951-0.719-4.417-0.719
		c-1.761,0-3.503,0.328-5.649,1.064c-1.035,0.355-2.068,0.736-3.109,1.121c-2.833,1.046-5.764,2.128-8.979,2.773
		c-1.586,0.318-3.022,0.474-4.393,0.474c-4.066,0-7.38-1.343-11.082-4.489c-2.875-2.442-8.657-7.903-8.902-8.136
		c-0.234-0.221-0.358-0.536-0.336-0.858c0.024-0.348,2.387-34.854,2.203-43.827c-0.01-0.485,0.305-0.918,0.771-1.057
		c0.147-0.044,14.958-4.447,30.656-7.259c12.98-2.327,24.595-7.56,24.711-7.613c0.36-0.164,0.783-0.117,1.1,0.124
		c0.46,0.35,11.277,8.579,12.138,9.292c3.982,3.3,5.235,8.156,3.623,14.042c-0.694,2.533-1.705,5-2.682,7.386
		c-2.358,5.755-4.585,11.192-2.737,17.561c2.752,9.489,10.065,10.534,19.323,11.856l1.565,0.226
		c1.746,0.256,3.386,0.386,4.872,0.386c4.775-0.001,8.153-1.277,10.325-3.902c5.105-6.174,2.697-18.798,0.573-29.936l-0.145-0.756
		c-1.222-6.413-1.856-10.828,0.357-13.661c1.761-2.253,5.044-3.277,11.71-3.65c7.882-0.441,41.946-2.383,41.946-2.383
		c0.32-0.021,0.629,0.106,0.849,0.339l11.604,12.348c0.184,0.194,0.287,0.45,0.293,0.717l0.66,32.324
		c0.197,11.513,0.445,25.842,12.829,30.559c1.525,0.58,2.777,0.863,3.827,0.863c2.331,0,3.426-1.373,5.315-4.003
		c0.992-1.38,2.116-2.944,3.699-4.442c4.573-4.324,21.552-11.676,22.272-11.986c0.384-0.167,0.829-0.094,1.142,0.181
		c0.089,0.079,9.002,7.924,13.509,11.387c3.843,2.956,7.289,13.845,7.694,18.617c0.812,9.565-0.234,17.369-3.499,26.091
		l-0.254,0.679c-2.81,7.522-5.993,16.049-15.244,18.364c-0.076,0.019-0.153,0.029-0.231,0.031
		c-8.401,0.264-15.484-5.125-21.731-9.855c-5.138-3.89-9.991-7.564-14.696-7.564c-1.768,0-3.438,0.507-5.106,1.549
		c-7.724,4.817-5.769,21.735-3.877,38.097c1.194,10.335,2.429,21.023,1.475,29.563c-0.053,0.476-0.413,0.859-0.884,0.943
		c-10.321,1.833-35.103,5.298-55.019,5.298c-16.672,0-27.061-2.385-30.881-7.088c-1.286-1.586-8.683-9.639-8.758-9.72
		c-0.214-0.234-0.315-0.551-0.275-0.865c0.039-0.316,0.217-0.598,0.482-0.771c0.191-0.125,19.095-12.555,16.51-22.284
		c-1.004-3.778-5.896-5.695-14.545-5.695c-4.24,0-9.183,0.467-15.109,1.426c-4.694,0.759-7.731,2.274-9.283,4.633
		c-2.486,3.776-1.028,9.583,0.516,15.73c1.264,5.034,2.571,10.239,1.972,15.075C263.942,378.195,254.892,382.568,238.79,382.568z
		 M220.481,380.631c-0.168,0.253-0.435,0.422-0.732,0.47C219.929,381.079,220.261,380.963,220.481,380.631z M220.084,378.958
		c0.974,0.059,2.922,0.291,4.495,0.489c3.458,0.439,8.731,0.961,14.211,0.961c10.356,0,22.934-1.865,24.033-10.751
		c0.55-4.438-0.708-9.442-1.924-14.285c-1.663-6.62-3.232-12.874-0.225-17.442c1.904-2.893,5.417-4.718,10.743-5.579
		c6.041-0.977,11.096-1.452,15.453-1.452c9.75,0,15.346,2.456,16.632,7.299c2.624,9.876-12.18,21.017-16.367,23.937
		c2.007,2.19,6.925,7.574,7.999,8.896c2.329,2.87,9.287,6.291,29.203,6.291c19.268,0,43.147-3.273,53.839-5.125
		c0.767-8.168-0.414-18.384-1.557-28.272c-2.06-17.812-4.004-34.636,4.879-40.178c1.994-1.244,4.097-1.875,6.25-1.875
		c5.431,0,10.564,3.887,16,8.002c6.225,4.713,12.648,9.564,20.248,9.422c8.062-2.082,10.894-9.663,13.632-16.996l0.254-0.68
		c3.146-8.403,4.154-15.925,3.372-25.152c-0.364-4.27-3.694-14.651-6.86-17.087c-3.928-3.019-11.119-9.286-13.103-11.023
		c-3.14,1.383-17.192,7.68-21.021,11.3c-1.434,1.356-2.493,2.831-3.429,4.133c-1.812,2.521-3.521,4.901-7.069,4.902
		c-1.317,0-2.82-0.328-4.596-1.005c-13.75-5.236-14.021-21.018-14.22-32.539l-0.046-2.446l-0.606-29.456l-10.976-11.678
		c-4.248,0.242-34.128,1.945-41.444,2.354c-5.885,0.33-8.82,1.147-10.129,2.823c-1.511,1.934-1.184,5.387,0.062,11.928l0.145,0.756
		c2.214,11.605,4.724,24.76-1.03,31.716c-3.331,4.025-9.067,5.46-17.174,4.278l-1.559-0.226
		c-9.231-1.318-17.951-2.565-21.092-13.392c-2.058-7.093,0.418-13.137,2.812-18.981c0.952-2.326,1.938-4.73,2.597-7.138
		c1.392-5.08,0.411-9.053-2.917-11.81c-0.633-0.524-7.565-5.81-11.562-8.851c-2.565,1.106-13.069,5.44-24.627,7.512
		c-13.533,2.424-26.396,6.038-29.639,6.975c0.045,9.546-1.886,38.32-2.183,42.68c1.347,1.268,6.028,5.655,8.448,7.712
		c3.321,2.822,6.126,3.974,9.683,3.974c1.226,0,2.523-0.141,3.968-0.431c3.05-0.612,5.9-1.665,8.657-2.683
		c1.056-0.39,2.105-0.776,3.156-1.138c4.356-1.494,7.688-1.559,11.426-0.359c6.459,2.071,10.043,8.274,9.836,17.017
		c-0.068,2.874-0.835,8.425-2.358,13.824c-1.272,4.513-3.491,10.332-6.83,12.431c-1.517,0.952-3.271,1.436-5.215,1.436
		c-3.939,0-8.201-1.972-11.961-3.711c-2.901-1.343-5.642-2.61-7.726-2.768c-0.422-0.031-0.833-0.047-1.232-0.047
		c-9.333,0-11.701,8.804-12.042,16.19c-0.584,12.562-0.403,24.02,0.551,35.027l1.824,30.518L220.084,378.958z"/>
</g>
</svg>
