<?xml version="1.0" encoding="utf-8"?>
<!-- Generator: Adobe Illustrator 17.1.0, SVG Export Plug-In . SVG Version: 6.00 Build 0)  -->
<!DOCTYPE svg PUBLIC "-//W3C//DTD SVG 1.1//EN" "http://www.w3.org/Graphics/SVG/1.1/DTD/svg11.dtd">
<svg version="1.1" id="Layer_1" xmlns="http://www.w3.org/2000/svg" xmlns:xlink="http://www.w3.org/1999/xlink" x="0px" y="0px"
	 width="680px" height="428.6px" viewBox="0 0 680 428.6" enable-background="new 0 0 680 428.6" xml:space="preserve">
<path fill="#6AA842" d="M65.7,424.3c-21.6-1.5-38.4-6-50-13.4C1.2,401.6-0.1,399.4,0,396c0.1-4.5,8.1-5.5,16.5-6.5
	c5.2-0.6,10.6-1.3,13.6-2.8c0.2-0.1,21.3-9.2,44.8-31.7c13.8-13.2,46.5-48.8,52.3-94.4c1.7-13.6,2.3-28.6,2.9-44.4
	c3-78.5,6.8-176.1,157.6-205.7C334.8,1.4,380.1-1.9,422.4,1c64.6,4.4,119.1,22.5,161.8,53.8c46.4,34,76.7,82.1,90.1,143
	c14,63.8,2.3,119.8-34,161.9c-42,48.8-112.2,73.6-192.5,68.1c-18.5-1.3-37.4-4.2-56.1-8.7l-22.5-5.4
	c-71.1-17.1-100.5-24.2-116.6-25.3c-11.6-0.8-15.8,1.5-23.6,5.8c-2.8,1.5-6,3.3-10.1,5.2C195.7,410.2,122.7,428.2,65.7,424.3z
	 M422.3,2.6c-42.2-2.9-87.4,0.3-134.3,9.5C138.5,41.5,134.7,138.4,131.7,216.3c-0.6,15.9-1.2,30.9-2.9,44.5
	c-5.8,46.1-38.8,82-52.7,95.3c-23.8,22.8-45.1,31.9-45.3,32c-3.3,1.6-8.8,2.2-14.1,2.9c-7,0.9-15,1.8-15.1,5
	c-0.1,2.5,0.6,4.3,15.1,13.6c11.4,7.3,27.9,11.7,49.2,13.1c56.7,3.9,129.3-14.1,152.4-24.8c4.1-1.9,7.2-3.6,10-5.1
	c7.8-4.2,12.4-6.8,24.5-6c16.2,1.1,45.7,8.2,116.9,25.4l22.5,5.4c18.6,4.5,37.4,7.4,55.8,8.6c79.8,5.4,149.5-19.2,191.2-67.6
	c36-41.7,47.6-97.3,33.7-160.6c-13.3-60.5-43.4-108.3-89.5-142C540.8,25,486.7,7,422.3,2.6z M214.2,97.9c0.5,8-0.2,18-7.3,21.7
	c-7.1,3.7-9.5,6.8-9.3,12.6c0.1,3.9,6.4,6.8,14.1,5.9c3.7-0.4,7.6-2.9,11.7-4.2c5.5-1.7,8-9.1,9.1-17.6c1.4-10.6,0.6-23,0.9-28.3
	c0.6-9.5-1.9-18.1-6.4-23.2c-4.4-5.1-17.1,3.1-17.1,3.1C205.6,76.7,213.7,89.9,214.2,97.9z M255.4,92.2c0.7,20.2,5.9,30,16.2,33.4
	c10.4,3.4,21.1-7,20.3-18.2c-0.8-11.2-10.3-4.4-17.1-5.9c-6.8-1.5-4.3-14-2.3-28.7c2.1-14.7-1.7-22.3-11.3-20.3
	c-9.7,2-5.5,18.7-5.5,18.7S254.6,72.1,255.4,92.2z M282.7,70.8c0.5-6.8-16.6-4.3-23.4-5.8c-6.8-1.5-13.4,3.3-14.4,10.1
	c-1,6.8,6.4,6.3,6.4,6.3C258.1,82.3,282.3,77.6,282.7,70.8z M316.4,96.4c-3,5.6-13.7-1.5-17.6,1.5c-3.9,2.9-4,12.4,3.6,16.6
	c7.6,4.2,24.9-0.4,29.8-18.1c4.9-17.7-19.3-19.8-17.4-23.9c1.9-4.1,12.7-0.2,16.1-3.7c3.4-3.5,3.7-7.2-1.8-12.8
	c-5.4-5.7-18.2-4.4-26.3,5.1c-8.1,9.5-6.1,19.7-6.1,19.7C296.6,92.9,319.5,90.8,316.4,96.4z M360.5,86.2
	c-4.5,11.3-3.5,20.4,4.6,26.2c8.1,5.8,28.8,4.6,32.4-8.9c3.6-13.5-16.7-10.7-20.7-14.6c-4-4,4.4-10.3,8.2-27.5
	c3.8-17.2-4.5-19.9-11.5-18.2c-7,1.6-6.2,20.7-6.2,20.7S365,74.8,360.5,86.2z M415.5,118.5c7.1-2.7,5.4-9.2,4-11.4
	c-1.4-2.2-0.7-4.8,2.5-13.1c3.2-8.2,2.1-15.7-7.8-17.5c-9.9-1.7-12.8,9.2-12.8,9.2C396.4,118.2,408.4,121.2,415.5,118.5z M451,78
	c0.4-13.7-7.4-15.3-13.9-13.6c-6.5,1.7-4.5,12.4-4.9,17.1c-0.3,4.7,1.7,14.4-2.9,26.3c-4.5,11.9,1.7,14.4,1.7,14.4
	C451.4,127.3,450.6,91.8,451,78z M446.3,85.6c6.8-6.4,14.1,2,9.7,12.8c-4.4,10.8-4.8,24.5,3.6,25.1c8.4,0.6,5.9-9.1,5.9-16.5
	c0-7.4,2.4-4.1,4.9-17.7c2.5-13.6-1.2-21.2-8.5-22.8c-7.3-1.6-14.8,8-14.8,8S439.5,92.1,446.3,85.6z M468.5,86.1
	c7.7-3.7,6.9,6.8,4.9,13.6c-2,6.7-6.9,23.9-2,29c4.9,5.1,11.4,4,13.4-2.3c2-6.2-2.8-5-4.1-9.8c-1.3-4.8,3.7-16.1,6.8-21.8
	c3-5.6,4.5-19.8-3.1-24c-7.6-4.2-16.9,6.8-16.9,6.8S460.8,89.8,468.5,86.1z M513.1,129.9c2.6,0.7,16.5-2,18,7.6
	c1.5,9.6-36.5,23.4-38.8-12.7c-2.3-36.1,16.2-51.3,35-48.4c18.8,2.9,16.5,29.2,7.5,37.5c-9,8.4-20.2,1.3-25.9-0.7
	c-5.7-2-5.7,6.5-5.7,6.5C501.8,125.4,510.5,129.2,513.1,129.9z M527.2,101.2c3.3-1.9,0.5-7.9-5.1-10.4c-5.7-2.5-10.4,5.1-10.4,5.1
	C511.2,103.3,523.9,103.1,527.2,101.2z M218.7,218.3c0.3,4.5-5.3,3.9-10.4,2.8c-2.6-0.5-6.2-0.9-8.4,1.4c-1.1,1.2-2.1,4.6-2.1,5.9
	c0.2,4.7,2.8,10.1,12.5,12.5c17.7,4.4,24.3-14.7,24.7-27.9c0.4-13.2-13-27.3-14.2-32.2c-1.3-4.8,11.8-2.9,14.2-14.4
	c2.4-11.5-10.5-16.6-24.1-10.6c-13.6,5.9-7.9,30.2-7.9,30.2C205.9,196.2,218.2,210.3,218.7,218.3z M191.4,195.5
	c4.6,2.8,18,5.8,24.7,5.7c18.5-0.3,29-14.4,25.2-20c-3.9-5.6-20.3,2.3-25.1,3c-4.8,0.7-12.1-8.2-23.9-6.9
	C184.2,178.3,180.5,188.8,191.4,195.5z M288.6,210.3c0,0-10.7-5.5-5.1-17.8c5.6-12.3,0.5-30.1,0.7-33.3c0.2-3.2,6.3-22.3,27-15.1
	c20.7,7.2,22.8,15.3,18.3,26.1c-4.4,10.8-10.2,10.4-6,18.1c4.2,7.7,19.4,10.3,23,12.1c3.6,1.8,6.5,12.6-3.8,16.7
	c-10.3,4.1-17.6,1.5-23.8-7.4c-6.3-8.9-10.1-22.9-15.6-20.1c-5.5,2.8-2.5,5.1-2.9,11.4C299.9,207.4,298.9,213.7,288.6,210.3z
	 M308.2,171.5c6.9-0.6,10.5-6.2,3.3-9.3c-7.2-3.1-11.2,5.6-11.1,8.2C300.5,175.7,301.2,172.1,308.2,171.5z M242,201.1
	c-1.9-5.9-1.7-14.8,8-21.4c16.1-11.1,27.8,3,27.2,12.4c-0.5,7.1,1.5,23.9-15.8,22.7c-2-0.1-6.3-0.9-9.2-2.1
	C249.1,211.5,243.9,207.3,242,201.1z M261.4,190.5c-2.9-0.2-5.4,2-5.6,4.9c-0.2,2.9,2,5.4,4.9,5.6c2.9,0.2,5.4-2,5.6-4.9
	C266.5,193.2,264.3,190.7,261.4,190.5z M386.7,214.4c0,0-19-8.2-13.6-32.7c5.4-24.5,25.9-31,36.5-22.9c10.6,8.1,15.3,8.4,16.5,21.2
	c1.2,12.8-3.3,17.8,1.8,19.7c5.2,1.9,6.9,15.3-4.2,15.6c-11.1,0.3-12.6-8.8-18.7-4.4C398.8,215.2,392.2,218.5,386.7,214.4z
	 M407.1,178.7c2.5-5.6-3-9.7-11-9.2c-8,0.5-7.2,12.2-7.2,12.2C395.8,197.5,404.6,184.4,407.1,178.7z M159.9,383
	c0,0-18.6,0.9-16.2-19.1c2.4-19.9-3.1-48.4-2.5-55.7c0.5-7.4-6.2-40.6,17-47.5c23.2-6.9,35,14,33.1,26.6
	c-1.9,12.6-11.4,19.9-11.3,25.7c0.1,2.9,3.5,3.7,5.7,6.5c2.3,2.8,3.4,7.6,3.2,10.5c-0.4,5.8-1.3,26.9,8.1,28.6
	c9.4,1.7,9.1,2.9,9.3,8.7c0.1,5.8-6.1,11.6-13,8c-11.8-6.1-17.2-19.7-17.7-27.1c-0.6-7.4-3.1-17.1-5-12.5c-1.9,4.6-2,13.1,0.8,18.6
	C174.2,359.7,175.7,384.1,159.9,383z M173.4,282.1c-1.1-1.9-1.8-3.5-3.6-4.2c-3.2-1.1-5.8,2.1-7.1,9c-2.9,15.5,5.5,20,5.5,20
	c4.4,0.6,5.2-4.2,5.6-8.9C174.1,294.9,175.2,285,173.4,282.1z M203.7,330.1c-0.9,10.4,1.8,18,2.3,20.1c4.1,17.7,29.6,16.3,36,15.7
	c4-0.4,7.2-1.9,9.6-4.6c2.5-3,3.1-6.3,3.1-10.4c0-7.9-25.4-7-28.1-6.7c-2.7,0.3-6.4-2-7-5.8c-1.2-7.2,1-14.7,5.8-14.9
	c2.2-0.1,5.8-1.4,9-3.6c3.6-2.5,6.7-6.2,6.8-10.7c0-8.5-7.5-6.9-14.3-7.8c-6.8-1-4.6-9.8-4.2-16.7c0.5-6.8,8.7-1,13.8-1.2
	c4.8-0.2,8.1-2.1,10.2-10.4c2.2-8.3-9.6-9.9-15-9.1c-2.8,0.4-9.6,0-14-1c-5.5-1.3-9-2.6-14.8-0.9c-10.3,3-2.2,16.8-1.2,25.8
	c1,9.1,2.2,29.2,2.2,29.2S204.4,321.7,203.7,330.1z M290.9,324.2c-0.9-10.1,9.7-33.7,15.4-47.6c5.7-13.9-1.5-23.9-13.7-24.7
	c-5.1-0.4-6.9,2.3-7.2,5.9c-0.5,4.8,0.6,10.5,0.7,13.5c0.1,2.6-0.3,8.8-1.5,13.8c-2.3,9.7-6.4,19.6-9.8,18
	c-5.1-2.5-0.4-25.4,0.7-41.2c1.1-15.8-12.4-19.9-23.3-15.3c-10.9,4.5,4.8,38.4,7.4,46.5c2.6,8.1,10.8,35.7,9.1,45.6
	c-1.7,9.9,8.4,16.8,9.9,17.1C293.8,358.3,291.8,334.4,290.9,324.2z M314.8,353.9c0,0-5.5-1.1-9.6-7.9c-4.2-7-7-19.8-3.4-33.2
	c7.1-26.5,10.1-55.4,23.9-55.5c13.8-0.1,20.3,19.9,19.4,33.6c-0.9,13.7,7.5,30.1,5,42.7C347.6,346.1,331.8,359.8,314.8,353.9z
	 M327.3,286.5c-3.5-2.4-2.8,1.9-6.5,26c-3.8,24.1,10.7,20.8,10.7,20.8C344.5,328.4,330.8,288.9,327.3,286.5z M397.5,351.6
	c7.7-12.7,2-30-6.9-30.6c-9-0.6-9.4,29.5-14.5,27c-3.6-1.7-0.2-21.3,1.6-36.3c0.8-6.3,1.3-11.8,0.8-14.8c-1.4-10.1-5.4-21-2.5-33
	c2.9-12-1.4-17.6-12.1-17.2c-10.6,0.3-10.9,16.9-10.6,31.5c0.3,14.8,10.6,30.4,4.2,54.8c-6.4,24.4,6.5,28.5,6.5,28.5
	C371.7,365.2,389.7,364.3,397.5,351.6z M448.7,298c5.9-32.9-2.6-47.3-14.5-42.8c-11.9,4.5-4.9,48.9-3.7,54.8c0.6,2.9,1,10.4,0,18.1
	c-1,7.8-3.5,15.8-7.5,14.2c-7.7-3.2-1.1-62,0.9-74.5c1.9-12.6-9.1-21.8-19.9-18.8c-10.8,3-2.2,32.1-0.5,38.6
	c0.7,2.9,2.3,10.5,2.7,22.4c0.6,15.1,0.1,35.6,2.6,46.7c4.5,19.9,24,12.2,24,12.2C442.7,362.6,442.8,330.9,448.7,298z M480.8,347.2
	c0.1-4.5-0.2-14.8,0.6-28.7c1.1-17.3,2.7-36.4,2.9-39.3c0.4-5.3,7-2.2,13.6-4.9c6.5-2.7,4-11.9,0.2-18.5
	c-3.8-6.6-38.8-12.7-44.3-1.4c-5.5,11.3,8.3,18.6,15.6,19.6c2.8,0.4,3.9,4.5,3.1,13.3c-1.4,14.1-6.7,36.9-10.7,52.3
	c-6.5,25,9.9,25,9.9,25C480.2,364.7,480.7,352.4,480.8,347.2z M519.8,349.4c-0.1-6.4-4.4-36.3-3.4-43.6c1-7.3,1.8-18.9-9.3-18.6
	c-11.1,0.3-8,23.8-11.3,49c-3.3,25.2,14.8,31.2,14.8,31.2C520.2,366.9,519.9,355.7,519.8,349.4z M523.6,277.7
	c5.2-7,8.6-16.9-2.7-21.9c-11.3-5-15.9,15.3-15.9,15.3C503.6,284.3,518.4,284.7,523.6,277.7z M554.6,366.6c0,0-23,11.7-27.2-20.4
	c-4.2-32-3.4-74.3,13.7-76.3c17.1-2,15.7,10.1,17.8,18.7c2.1,8.6,13.4,35.8,8.7,51.4C562.8,355.5,562.2,363.4,554.6,366.6z
	 M546.8,303.6c-1.9-1.7-3.7-1.1-5.5,7.2c-2.6,11.7-2.2,22.6-1.3,26.2c1.6,6.1,5,9.7,6,9.4C555.1,343.9,549.2,305.9,546.8,303.6z
	 M592.4,316.8c-0.5-8.5-3-26.1,7-32.9c10-6.7,4.4,24.9-1,38c-4.3,10.3-5.4,26-2.8,37.5c1.2,5.3,3.2,8.6,5.4,10.3
	c7.1,5.2,17.7-3,18.5-7.2c0.4-2.1-0.5-4.5-2.4-6.1c-1.2-1-5.5-2.1-7.3-5.8c-1-2.1-0.3-6.3,0.1-8.4c2.8-13.2,10.5-26.1,14.1-47.2
	c3-17.5-3.6-25.1-12.8-28.9c-9.3-3.8-22.7,6.4-28.5,6.5c-5.8,0.1-4.7-8.3-11.6-8.7c-6.8-0.5-6,10.2-2.2,16.3
	c3.8,6.1,9.6,30.3,3.4,59.5c-6.2,29.2,0.6,30.7,0.6,30.7C590,374.8,592.9,325.3,592.4,316.8z M249.7,135.7
	c7.6-10.1-0.1-21.7-4.8-23.1c-4.7-1.4-11.2,9.3-9.6,16.3c1.6,7-2.9,11.4-2.9,11.4C231.9,149.3,242.2,145.8,249.7,135.7z M208.1,86.9
	c0,0,20.8-2.8,24.2-5.8c3.4-2.9,15.3-6.9,9.4-14.2c-5.9-7.3-13.1-9.9-21.8-5.7C211.2,65.4,187.4,80.7,208.1,86.9z M418.7,47.8
	c-5.8-0.4-10.9,4.7-11.4,11.4c-0.5,6.7,3.9,12.4,9.7,12.8c5.8,0.4,10.9-4.7,11.4-11.4C428.9,53.9,424.5,48.2,418.7,47.8z
	 M375.1,73.9c19.9,2.9,26.1-18.9,20.5-21.4c-5.7-2.5-7.7,4.8-19.7,1.8c-12-2.9-22-3.6-22.5,3.8C352.9,66.1,355.2,71,375.1,73.9z
	 M287.3,65.8c3.1,1.3,5.7-6.5,5.2-14.5c-0.5-8-6.9-5.6-10.8-2.7c-3.9,2.9,1.3,10.5,1.3,10.5S284.2,64.5,287.3,65.8z"/>
</svg>
