<?xml version="1.0" encoding="utf-8"?>
<!-- Generator: Adobe Illustrator 16.0.0, SVG Export Plug-In . SVG Version: 6.00 Build 0)  -->
<!DOCTYPE svg PUBLIC "-//W3C//DTD SVG 1.1//EN" "http://www.w3.org/Graphics/SVG/1.1/DTD/svg11.dtd">
<svg version="1.1" id="Layer_1" xmlns="http://www.w3.org/2000/svg" xmlns:xlink="http://www.w3.org/1999/xlink" x="0px" y="0px"
	 width="673px" height="498px" viewBox="0 0 673 498" enable-background="new 0 0 673 498" xml:space="preserve">
<g>
	<path fill="#97E700" d="M230.67,497.593c-0.728,0-1.367-0.531-1.48-1.272c-0.126-0.819,0.436-1.585,1.255-1.71
		c28.975-4.449,58.951-3.743,87.938-3.061c17.708,0.418,36.003,0.848,53.77,0.082c1.013-9.236,0.614-19.182,0.194-29.684
		c-0.67-16.746-1.363-34.062,4.061-48.806c0.188-0.507,0.631-0.874,1.164-0.962c25.289-4.162,51.85-3.707,77.537-3.265
		c17.053,0.294,34.668,0.597,51.615-0.478l-0.062-1.006c-1.293-20.656-3.064-48.945,5.715-66.806
		c0.229-0.466,0.682-0.779,1.197-0.831c23.065-2.312,42.711-3.618,61.71-4.881c23.582-1.566,45.855-3.047,73.707-6.285
		c0.823-0.098,1.567,0.493,1.663,1.316c0.096,0.822-0.494,1.566-1.317,1.662c-27.924,3.248-50.234,4.73-73.854,6.301
		c-18.743,1.245-38.115,2.532-60.771,4.788c-8.021,17.198-6.31,44.521-5.056,64.548l0.156,2.5c0.051,0.822-0.572,1.533-1.395,1.589
		c-17.531,1.196-35.746,0.883-53.359,0.581c-25.259-0.434-51.367-0.882-76.129,3.084c-4.897,14.017-4.23,30.692-3.584,46.83
		c0.424,10.617,0.863,21.596-0.363,31.43c-0.09,0.725-0.689,1.279-1.418,1.312c-18.27,0.849-37.07,0.406-55.252-0.021
		c-28.858-0.682-58.698-1.383-87.412,3.025C230.822,497.587,230.746,497.593,230.67,497.593z"/>
	<path fill="#97E700" d="M0.462,397.737c39.956-6.136,81.324-0.705,121.397-2.566c2.62-21.01-3.776-47.25,3.673-67.502
		c36.104-5.941,74.519-0.764,110.925-3.25c-1.057-17.121-3.026-42.76,4.597-58.266c43.334-4.346,67.909-4.906,111.16-9.935
		l297.941,60.304c-50.884,5.918-102.904,6.059-153.887,11.17c-8.97,18.242-6.652,48.404-5.409,68.55
		c-42.831,2.925-88.024-3.169-130.499,3.822c-8.764,23.825-1.24,54.697-4.321,79.413c-47.146,2.189-95.815-4.197-142.822,3.02"/>
	<path d="M480.921,394.866c-0.436,0-0.864-0.188-1.158-0.543c-2.596-2.101-32.528-9.903-64.211-18.162
		c-62.357-16.256-147.759-38.518-164.805-51.894c-0.651-0.512-0.765-1.454-0.254-2.106c0.512-0.652,1.455-0.764,2.106-0.254
		c16.554,12.991,101.607,35.162,163.708,51.351c47.422,12.362,64.164,16.896,65.833,19.239c0.48,0.674,0.323,1.611-0.352,2.092
		C481.525,394.776,481.222,394.866,480.921,394.866z"/>
	<path fill="#97E700" d="M363.552,249.163c-0.266,0-0.534-0.07-0.777-0.218c-0.708-0.43-0.934-1.352-0.504-2.061
		c6.834-11.263,5.111-33.275,3.727-50.963c-0.485-6.209-0.944-12.074-0.949-16.652c-0.021-17.796-0.012-35.593-0.004-53.39
		c0.004-9.612,0.009-19.224,0.009-28.836c0-15.933,0.382-32.048,0.751-47.633c0.368-15.553,0.749-31.636,0.749-47.503
		c0-0.829,0.671-1.5,1.5-1.5s1.5,0.671,1.5,1.5c0,15.903-0.382,32.004-0.75,47.574c-0.368,15.568-0.75,31.666-0.75,47.562
		c0,9.612-0.005,19.225-0.009,28.837c-0.008,17.795-0.017,35.59,0.004,53.385c0.004,4.462,0.459,10.271,0.94,16.421
		c1.418,18.117,3.183,40.664-4.153,52.753C364.553,248.906,364.058,249.163,363.552,249.163z"/>
	<path fill="#97E700" d="M656.038,325.261c-0.176,0-0.354-0.031-0.527-0.096c-0.775-0.291-1.168-1.156-0.877-1.932
		c2.353-6.266,1.902-13.594,1.467-20.68c-0.207-3.361-0.42-6.838-0.323-10.131c0.448-15.312,3.02-30.914,5.507-46.001
		c1.219-7.394,2.479-15.04,3.459-22.493c3.227-24.535,4.795-49.624,4.795-76.7c0-19.425-1.144-39.12-2.249-58.167
		c-1.111-19.138-2.26-38.927-2.251-58.463c0-0.828,0.672-1.5,1.5-1.5c0,0,0,0,0.001,0c0.828,0,1.499,0.672,1.499,1.5
		c-0.009,19.449,1.138,39.193,2.246,58.288c1.108,19.089,2.254,38.829,2.254,58.341c0,27.208-1.577,52.425-4.82,77.091
		c-0.986,7.501-2.251,15.172-3.474,22.59c-2.471,14.99-5.025,30.49-5.469,45.601c-0.092,3.156,0.107,6.412,0.319,9.859
		c0.455,7.4,0.925,15.053-1.652,21.918C657.217,324.89,656.645,325.261,656.038,325.261z"/>
	<path fill="#97E700" d="M607.573,257.636c-0.126,0-0.253-0.016-0.378-0.048c-19.641-5.106-40.278-7.046-60.236-8.921
		c-12.874-1.209-26.186-2.46-39.163-4.548c-12.006-1.932-23.921-4.139-35.443-6.274c-21.645-4.009-44.025-8.155-66.889-10.403
		c-0.779-0.077-1.368-0.74-1.352-1.523c0.004-0.253,0.501-25.477-0.025-39.403c-0.328-8.655-1.233-18.428-2.109-27.88
		c-1.604-17.309-3.262-35.207-1.519-47.533c0.101-0.714,0.696-1.256,1.417-1.289c5.481-0.25,10.799-0.371,16.256-0.371
		c20.059,0,38.02,1.676,58.817,3.616c11.355,1.06,23.069,1.304,34.396,1.54c10.311,0.215,20.972,0.438,31.316,1.275
		c1.789,0.145,3.779,0.215,6.082,0.215c5.333,0,11.377-0.381,17.776-0.784c6.912-0.436,14.061-0.886,20.881-0.886
		c12.301,0,20.707,1.516,26.454,4.77c0.536,0.304,0.832,0.904,0.746,1.515c-1.495,10.599-1.16,21.816-0.837,32.664
		c0.136,4.549,0.276,9.253,0.276,13.813c0,6.917,0.361,14.213,0.711,21.269c0.753,15.205,1.531,30.927-0.996,45.644
		c-0.518,3.01-1.404,5.855-2.263,8.606c-1.397,4.479-2.717,8.709-2.422,13.342c0.03,0.479-0.171,0.946-0.542,1.252
		C608.256,257.518,607.918,257.636,607.573,257.636z M407.136,224.594c22.51,2.289,44.492,6.361,65.764,10.301
		c11.505,2.131,23.402,4.335,35.373,6.262c12.881,2.073,26.143,3.319,38.967,4.523c19.433,1.826,39.506,3.711,58.796,8.516
		c0.098-4.392,1.363-8.45,2.593-12.391c0.829-2.658,1.687-5.407,2.17-8.221c2.472-14.391,1.701-29.945,0.956-44.988
		c-0.351-7.092-0.714-14.425-0.714-21.417c0-4.515-0.14-9.197-0.274-13.724c-0.317-10.623-0.645-21.597,0.724-32.132
		c-5.268-2.662-12.968-3.906-24.089-3.906c-6.726,0-13.826,0.447-20.692,0.88c-6.447,0.406-12.537,0.79-17.965,0.79
		c-2.385,0-4.453-0.074-6.324-0.225c-10.255-0.83-20.87-1.051-31.137-1.266c-11.381-0.237-23.148-0.483-34.611-1.552
		c-20.723-1.933-38.621-3.603-58.539-3.603c-4.993,0-9.869,0.103-14.863,0.313c-1.423,11.942,0.162,29.044,1.696,45.603
		c0.88,9.492,1.789,19.307,2.12,28.043C407.543,198.522,407.231,219.093,407.136,224.594z"/>
	<path fill="#97E700" d="M593.045,244.57c-0.141,0-0.281-0.02-0.419-0.06c-29.111-8.468-55.518-12.033-83.474-15.807
		c-11.237-1.517-22.856-3.085-34.944-5.017c-4.145-0.662-8.199-1.381-12.119-2.076c-15.147-2.685-29.453-5.223-46.551-4.146
		c-0.826,0.044-1.539-0.576-1.591-1.403c-0.052-0.827,0.576-1.539,1.403-1.591c1.247-0.079,2.48-0.138,3.699-0.181
		c-0.001-6.187-0.013-12.374-0.024-18.561c-0.023-12.787-0.048-26.009,0.024-39.015c0.027-4.893-0.922-9.997-1.84-14.933
		c-1.046-5.627-2.128-11.446-1.762-16.983c0.049-0.741,0.631-1.334,1.371-1.396c34.801-2.912,70.255,0.692,104.543,4.175
		c24.967,2.537,50.785,5.16,75.979,5.208c0.792,0.001,1.447,0.619,1.494,1.41c1.326,22.08-0.316,43.669-1.904,64.547
		c-1.097,14.422-2.23,29.336-2.387,44.343c-0.005,0.469-0.229,0.909-0.605,1.189C593.678,244.469,593.363,244.57,593.045,244.57z
		 M423.642,214.211c13.893,0,26.133,2.17,38.971,4.446c3.908,0.693,7.949,1.41,12.068,2.067c12.053,1.926,23.654,3.492,34.873,5.006
		c27.466,3.708,53.439,7.214,82.018,15.354c0.229-14.436,1.316-28.728,2.369-42.569c1.547-20.333,3.145-41.345,1.981-62.735
		c-24.892-0.141-50.289-2.721-74.863-5.218c-33.718-3.426-68.571-6.967-102.675-4.277c-0.117,4.768,0.805,9.725,1.775,14.948
		c0.943,5.073,1.92,10.32,1.891,15.498c-0.072,12.995-0.048,26.211-0.024,38.993c0.012,6.166,0.022,12.331,0.024,18.496
		C422.582,214.214,423.114,214.211,423.642,214.211z"/>
	<path fill="#97E700" d="M587.959,84.827c-34.756,0-78.272-2.962-94.618-4.074c-7.104-0.484-15.655-1.36-24.708-2.287
		c-19.128-1.959-40.807-4.18-55.605-3.359c-0.813,0.037-1.528-0.58-1.58-1.403c-0.307-4.836-0.758-9.88-1.194-14.758
		c-1.541-17.23-3.135-35.047,0.561-51.645c0.18-0.809,0.982-1.316,1.791-1.138c0.809,0.18,1.317,0.982,1.138,1.791
		c-3.595,16.142-2.021,33.723-0.501,50.725c0.395,4.405,0.801,8.945,1.103,13.361c14.964-0.621,35.979,1.535,54.595,3.442
		c9.027,0.925,17.553,1.798,24.605,2.278c19.764,1.345,79.351,5.4,114.825,3.627c-0.25-4.64-0.61-9.329-0.989-14.265
		c-1.507-19.601-3.064-39.87,2.445-58.163c0.239-0.793,1.077-1.241,1.869-1.003c0.793,0.239,1.242,1.075,1.004,1.869
		c-5.349,17.756-3.812,37.741-2.327,57.068c0.422,5.487,0.82,10.669,1.071,15.84c0.04,0.823-0.592,1.524-1.414,1.57
		C603.419,84.672,595.919,84.827,587.959,84.827z"/>
	<path fill="#97E700" d="M544.209,73.772c-12.478,0-24.651-0.26-34.858-1.154c-1.9-0.167-3.967-0.341-6.162-0.526
		c-20.271-1.712-50.906-4.3-66.661-10.146c-0.776-0.288-1.173-1.151-0.884-1.928c0.287-0.777,1.15-1.173,1.928-0.884
		c15.371,5.703,45.762,8.27,65.87,9.969c2.198,0.186,4.267,0.36,6.171,0.527c17.578,1.54,41.166,1.184,61.977,0.867
		c6.599-0.1,12.877-0.195,18.629-0.225c-0.677-3.872-0.167-12.429,1.297-30.599c0.859-10.662,1.748-21.686,1.748-29.033
		c0-0.829,0.672-1.5,1.5-1.5s1.5,0.671,1.5,1.5c0,7.468-0.894,18.554-1.757,29.274c-0.996,12.359-2.229,27.644-1.224,30.481
		c0.491,0.222,0.843,0.7,0.88,1.27c0.051,0.79-0.521,1.484-1.306,1.585c-0.128,0.016-0.254,0.02-0.379,0.013
		c-6.331,0.014-13.383,0.12-20.844,0.233C562.772,73.63,553.407,73.772,544.209,73.772z"/>
</g>
</svg>
