<?xml version="1.0" encoding="utf-8"?>
<!-- Generator: Adobe Illustrator 17.1.0, SVG Export Plug-In . SVG Version: 6.00 Build 0)  -->
<!DOCTYPE svg PUBLIC "-//W3C//DTD SVG 1.1//EN" "http://www.w3.org/Graphics/SVG/1.1/DTD/svg11.dtd">
<svg version="1.1" id="Layer_1" xmlns="http://www.w3.org/2000/svg" xmlns:xlink="http://www.w3.org/1999/xlink" x="0px" y="0px"
	 width="461.2px" height="503.4px" viewBox="0 0 461.2 503.4" enable-background="new 0 0 461.2 503.4" xml:space="preserve">
<g>
	<g>
		<g>
			<g>
				<g>
					<g>
						<g>
							<path fill="#008ACF" d="M175.2,217.5c12.3-1.5,24.7-2.5,37.1-3.4c14.5-1,29.1-1.6,43.7-1.8c29.1-0.4,58.2,0.7,87.2,2.5
								c9.9,0.6,19.9,1.1,29.8,2.8c6.9,1.2,15.3,2.8,20.6,7.8c6.5,6-3.1,14.2-7.5,17.9c-8.9,7.5-19,11.7-30.3,14.4
								c-11,2.6-22.3,3.7-33.5,5c-13.6,1.6-27.2,2.7-40.9,3.4c-29.7,1.5-59.5,1.2-89.3-0.1c-19.8-0.9-39.5-2.5-59.2-3.2
								c-16.3-0.6-33.2-1.5-48.8-6.5c-6.2-2-12.8-5.1-16.5-10.7c-0.3-0.4-1.3-3-1.2-2.2c0-0.1-0.3,0.6,0.1,0.1c0-0.1,1.3-1.1,2-1.6
								c7.7-5,17.1-7.9,25.7-10.8c13.7-4.6,31.3-5.4,45.4-8.7C139.5,222.5,151.1,220.5,175.2,217.5z M90.1,227.7
								c-8.2,2.8-17.2,5.7-24.5,10.7c-1.7,1.2-3.8,2.8-3.8,5c0,4.7,5.7,9.4,9.1,11.8c12.5,8.6,30.1,10,44.7,11.2
								c14.7,1.2,29.5,1.3,44.2,2.3c57.1,4,114.2,4.3,171.2-2.4c10.9-1.3,21.8-2.8,32.4-5.8c10.2-2.9,18.8-8,26.9-14.8
								c5.2-4.3,10.8-10.5,9.7-17.8c-0.9-5.8-7.4-9-12.2-10.9c-7.4-3-15.6-4.2-23.5-5.1c-11.6-1.3-23.4-1.8-35.1-2.5
								c-29.1-1.6-58.3-2.3-87.5-1.4c-25.1,0.7-49.9,3.1-74.9,5.3C125,217.1,90.1,227.7,90.1,227.7z"/>
						</g>
					</g>
					<g>
						<path fill="#008ACF" d="M386.2,242.6c-15.8,21.2-29.1,44.6-35.4,70.5c-6.5,27-4,55.3-11.7,82c-11.5,39.5-52.1,53.5-89.5,54.8
							c-18.6,0.6-37.2-1.5-55.3-5.2c-18.7-3.9-37.7-9.7-54.6-18.5c-16.8-8.7-29.7-22.1-36.2-40c-6.3-17.3-6.3-35.8-6.2-54
							c0.2-31.9,3-75.9-29.1-94.5c-2.6-1.5-4.9,2.5-2.3,4c15.9,9.2,22.3,26.2,25,43.6c2.9,18.8,1.7,38,1.8,57
							c0.1,17.9,1.8,35.8,9.2,52.2c7.3,16.3,20.8,28.1,36.4,36.2c16.7,8.7,35.4,14.3,53.7,18.3c17.8,3.9,36,5.9,54.2,5.7
							c34.7-0.4,72.6-10.7,90.9-42.7c14.5-25.3,11.2-56.7,15.5-84.5c4.8-30.5,19.3-57.8,37.6-82.4
							C391.9,242.5,387.9,240.2,386.2,242.6L386.2,242.6z"/>
					</g>
					<g>
						<path fill="#008ACF" d="M118.4,414.4c-12,2.5-11.3,1.5-23.4,3.1c-10.4,1.4-20.6,3.5-31,5.3c-16.1,2.7-33.1,4.3-48.2,10.8
							C10.3,436,5.1,439,2.6,444.7c-1.5,3.4-2.5,7.1-2.6,10.8c-0.2,6.9,3.2,13.2,8,17.9c6.2,6,14.4,9.8,22.4,12.8
							c10.7,4.1,22,6.6,33.3,8.7c27.9,5.1,56.3,6.9,84.6,7.8c43.9,1.4,88.5,1,132.3-2.9c20.6-1.8,41.2-3.8,61.6-6.9
							c15.3-2.3,30.6-5.1,45.5-9.2c11.7-3.2,24.2-7.1,34.1-14.3c4.6-3.3,8.9-7.9,9.8-13.8c1.3-8.9-5.9-15.7-12.6-20.3
							c-11.7-8.1-26.2-12.3-39.8-15.9c-17.6-4.6-26.6-6.8-44.6-8.8c-2.9-0.3-2.9,4.3,0,4.6c24.8,2.8,41,6.4,64.4,15.2
							c9.6,3.6,32.6,12.8,27.5,26.9c-3.3,9-16,13.8-24.1,16.9c-13.8,5.3-28.4,8.5-42.9,11.2c-38.2,7.2-77.3,10.4-116.1,12
							c-55.2,2.3-111.4,3-166.2-4.9c-20.7-3-44.4-6.7-62-18.9c-5.3-3.7-10-9-10.7-15.6c-0.4-3.5,0.4-6.8,1.6-10.1
							c2.3-6.2,8.1-8.9,13.9-11.1c14.8-5.6,30.9-7.1,46.4-9.8c10.8-1.9,21.4-4,32.2-5.4c11.2-1.5,9.7-0.5,20.8-2.8
							c2.9-0.6,2.8-4.8-0.1-4.2L118.4,414.4z"/>
					</g>
					<g>
						<path fill="#008ACF" d="M311.2,4.5c16.3,5.6,36.9,14.8,38.6,33.9c1.5,16.1-13.3,31.8-25.7,42.6c-9.1,7.9-19.3,14.9-29.7,20.9
							c-9.1,5.3-18.7,9.7-27.2,16.2c-6.5,5-10.6,11.4-10.2,18.8c0.4,8.2,6,15.3,12.1,19.8c7.9,5.9,27.2,15.3,15.7,28.2
							c-2.1,2.4,1.5,4.7,3.6,2.3c13-14.6-3.9-25.6-13.7-32.5c-6.9-4.8-13.8-11.8-13.1-21.2c0.6-8.9,11.7-14.9,18.9-19.1
							c19.7-11.3,39.2-22.2,55.3-38.7c10.9-11.2,20.2-25.6,18.5-40.1C351.9,15.9,330.2,6,313.1,0.1C310.4-0.8,308.5,3.6,311.2,4.5
							L311.2,4.5z"/>
					</g>
					<g>
						<path fill="#008ACF" d="M365.1,280.4c16.8-4.5,30.2-18.5,45.3-26.6c12.5-6.8,32.9-11.2,41.7,3.3c7.6,12.5,4.7,30.5,1.6,43.9
							c-4.3,18.6-12.5,36.5-23.6,51.9c-7,9.7-15.9,17.8-25.9,24.3c-6.9,4.5-12.8,6.9-21,7.4c-7.5,0.5-44,2.5-35.6-15.1
							c1.3-2.7,0.3-5.6-1.5-3.3c-3.3,4-3.7,9.5-0.6,14.3c3,4.7,7.3,6.2,12.4,7.4c6.9,1.6,21.6,1.8,28.7,1c7.2-0.7,12.6-3.2,18.7-6.9
							c32.1-19.9,51.8-59,55.5-96c1.8-18.3-2.5-40.9-24.3-43c-13.8-1.3-27.3,5.5-38.4,13c-9.7,6.5-19.3,14.8-30.4,18.9
							C363.7,276.3,361.9,281.3,365.1,280.4z"/>
					</g>
					<path fill="#008ACF" d="M353.3,304.9c18.6-3,31.1-16.9,46.1-26.7c7.8-5.1,16.3-7.9,25.6-7.1c8.1,0.7,19.1,4.3,21.8,12.9
						c2.4,7.6-1.7,16.9-4.4,23.9c-3.9,9.9-8.4,19.6-14.8,28.2c-12.1,16.4-31,24.6-50.8,26.5c-7.6,0.8-20.4,2.3-26.6-3.4
						c-2.2-2-5.4,1.2-3.2,3.2c5.6,5.2,14.6,5.3,21.8,5.2c8.4-0.1,17.2-1.1,25.3-3.5c19.4-5.7,34.3-18.4,44.1-35.9
						c4.9-8.7,8.8-18.3,11.8-27.8c2.1-6.7,3.2-13.9,0.3-20.5c-3.1-7.2-11.5-10.5-18.5-12.4c-8.7-2.4-17.8-1.6-26.1,1.9
						c-19.4,8.1-31.9,27.4-53.7,30.9C349.2,301,350.4,305.4,353.3,304.9L353.3,304.9z"/>
				</g>
			</g>
		</g>
		<path fill="#008ACF" d="M308.3,267.5"/>
		<g>
			<path fill="#008ACF" d="M0.8,458.3c0,0,3.1-14.7,5.5-16.5c2.4-1.8,26.3-12.3,26.3-12.3l71.7-11l15.2-3.9l28.9,18l27,9.8l31.2,8
				l27.6,1.8l20.8-0.6l23.9-3.7l17.2-5.5l22.1-11.6l8.6-9.8l6.1-8l57,10.4l33.7,16.5l6.1,13.5l-6.7,10.4l-19.6,14.7l-55.1,11.6
				l-39.8,4.9l-49.6,5.5l-46.6,1.8l-54.5-1.8l-25.1,0.6l-38-2.5l-25.1-5.5l-39-7l-18.6-12.6l-8-8L0,455.5"/>
		</g>
		<g>
			<path fill="#008ACF" d="M283.6,241.4c-14.8-0.3-29.6,0.7-44.4,1.3c-22.5,0.9-44.9,0.3-67.4,1.9c-21.8,1.6-44.5,5.1-63.8,16.1
				c-0.9,0.5-1.2,1.3-1.1,2l15.5-0.5c-0.4-0.1-0.8-0.1-1.1-0.2c-1.5-0.2-3-0.4-4.5-0.6c18.4-8.6,39.3-11.2,59.3-12.5
				c22.2-1.5,44.4-0.8,66.6-1.8c31.2-1.5,65-4.3,94.6,7.6c3.5,1.4,6.8,3.2,9.9,5.3l6.2-1.3C335.7,243.5,304.8,241.8,283.6,241.4z"/>
		</g>
	</g>
</g>
<g>
	<g>
		<text transform="matrix(1 0 0 1 164.1829 340.126)"><tspan x="0" y="0" fill="#008ACF" font-family="'RobotoSlab-Regular'" font-size="22.2428">D</tspan><tspan x="15.4" y="0" fill="#008ACF" font-family="'RobotoSlab-Regular'" font-size="22.2428">e</tspan><tspan x="27.9" y="0" fill="#008ACF" font-family="'RobotoSlab-Regular'" font-size="22.2428">fi</tspan><tspan x="40.9" y="0" fill="#008ACF" font-family="'RobotoSlab-Regular'" font-size="22.2428">s</tspan><tspan x="52.2" y="0" fill="#008ACF" font-family="'RobotoSlab-Regular'" font-size="22.2428" letter-spacing="1">o</tspan><tspan x="66" y="0" fill="#008ACF" font-family="'RobotoSlab-Light'" font-size="22.2428">Media </tspan></text>
	</g>
</g>
</svg>
