<?xml version="1.0" encoding="utf-8"?>
<!-- Generator: Adobe Illustrator 17.1.0, SVG Export Plug-In . SVG Version: 6.00 Build 0)  -->
<!DOCTYPE svg PUBLIC "-//W3C//DTD SVG 1.1//EN" "http://www.w3.org/Graphics/SVG/1.1/DTD/svg11.dtd">
<svg version="1.1" id="Layer_1" xmlns="http://www.w3.org/2000/svg" xmlns:xlink="http://www.w3.org/1999/xlink" x="0px" y="0px"
	 width="549.6px" height="542.6px" viewBox="0 0 549.6 542.6" enable-background="new 0 0 549.6 542.6" xml:space="preserve">
<g>
	<path fill="#C96800" d="M429.9,46.6c38.3,31.7,68.2,72.7,89,117.6c19,41.1,30.9,87.1,28.4,132.6c-1.1,20.3-5.8,39.7-14.3,58.1
		c-10.3,22.4-22.2,44.1-35.9,64.6c-27.4,41.4-63.1,78.5-108.1,100.7c-49.6,24.5-105.9,23.8-159.2,13.8
		c-52.7-9.9-105.8-30.7-146-66.9c-66.6-60-90.8-154.9-79-241.7c5.8-42.7,20.4-85.8,45.5-121.1c31.3-44,79.9-75.6,131-91.5
		c22.1-6.9,44.5-9.9,67.5-10.7c37.5-1.3,75.4,3.1,111.2,14.4c36,11.4,69.3,30.8,95.8,57.9c0.8,0.9,2.1-0.5,1.3-1.3
		c-57-58.1-141.5-77.5-220.7-72.2C159.8,6,83.2,48.1,41.9,113.6c-22.2,35.3-34.8,76.8-39.7,118c-5.1,42.6-1.3,86.4,11.5,127.4
		c12.8,40.9,35.5,78.4,66.9,107.7c38.1,35.5,88.4,56,138.7,67.2c51,11.3,106.4,14,155.8-5.3c44.7-17.5,81.2-50.7,109.9-88.5
		c15-19.7,27.9-41,39.3-63c9.6-18.4,18.3-37,22.2-57.5c7.9-41.7,0.2-85.7-13.5-125.4c-19.8-57.2-55.1-110.1-101.8-148.8
		C430.3,44.5,428.9,45.8,429.9,46.6L429.9,46.6z"/>
	<path fill="#C96800" d="M334.7,27.3c49.3,5.6,94.7,35.5,127.6,71.6c16,17.5,29.5,38,40.9,58.7c13.1,23.6,22.8,49,27.9,75.6
		C552,341,481.3,449.3,387.3,497.8c-23.6,12.1-49.2,20.2-75.6,22.9c-28.2,2.9-57.6,0.3-85.4-4.6c-51.7-9.1-104.4-28.8-142.9-65.6
		C20.2,390.2,0.6,293.9,16.6,210.3c8.3-43.5,27-84.6,58-116.5c37-38.1,88.1-66.2,140.5-75c22.4-3.8,45.5-4.4,68.2-3
		c13.2,0.8,26.4,2.4,39.2,5.9c10.1,2.7,20.7,6.9,27.7,14.9c0.8,0.9,2.1-0.4,1.3-1.3C340.7,23,322.4,19,307.1,16.5
		c-19.9-3.3-40.2-3.6-60.3-2.7c-44.5,2-86.5,16-124.4,39.5C100.2,67,79.8,84,62.8,103.9C49.1,120,38.5,138.5,30.3,158
		C14.2,196.2,8,238.4,9.7,279.7c1.8,41.9,12.5,83.7,32.9,120.6c21.3,38.7,53.5,69.2,93.1,88.8c49.9,24.7,107.5,36.1,163,34.3
		c50.9-1.6,98.6-23.8,137.6-55.7c38.1-31.1,69.1-72.6,86.4-118.7c19.4-51.7,17.7-108-2.3-159.2c-8.4-21.6-19.9-42-33-61.1
		c-10.7-15.6-22.3-30.3-36-43.4C419.7,54.8,379,30.5,334.7,25.5C333.5,25.3,333.5,27.2,334.7,27.3L334.7,27.3z"/>
	<path fill="#C96800" d="M100.6,302.4c11.5,42.1,38.2,77.5,75.5,100.3c34.2,20.9,75.3,30.2,115.1,28.1c20.8-1.1,41.1-5.5,59.7-14.8
		c21.4-10.7,39.7-26.9,55-45.1c29.2-34.9,51.6-83,43.7-129.3c-4.4-25.5-18.1-48.5-36.7-66.2c-17.1-16.3-35-33-54.5-46.6
		c-39.9-27.8-92.1-28.8-137.9-17c-22.3,5.7-43.6,15.5-62,29.4c-17.8,13.5-30.9,31.2-41.7,50.6c-11.5,20.4-21,43.4-22.4,67.1
		c-0.7,11.5,1.4,23.6,3.3,35c2,12,5.9,23.4,12.4,33.7c0.6,1,2.2,0.1,1.6-0.9c-7.6-12.2-11.2-25.6-13.2-39.7c-2-14-3.2-27.3-0.6-41.3
		c4.9-26.5,18.3-51.8,33.6-73.7c30.8-43.9,86-63.5,137.9-65.1c25.1-0.8,50.4,2.9,72.9,14.5c20.6,10.5,37.7,26.8,54.6,42.2
		c10.6,9.6,21.2,18.8,29.8,30.3c8.2,10.9,14.3,23.3,18.2,36.3c7.5,24.8,4.7,50.3-3.5,74.6c-15.7,46.2-49.8,89.6-94,111.1
		c-37.6,18.4-84.7,16.8-124.1,5.6c-27.5-7.8-53.2-21.7-74.2-41.1c-22.8-21-38.6-48.4-46.7-78.2C102.1,300.7,100.3,301.2,100.6,302.4
		L100.6,302.4z"/>
	<path fill="#C96800" d="M378.9,461.2c-2,5.1-2.1,11.2,4.4,12.2c6.6,1.1,12.1-3.8,15.1-9c4.3-7.4,0-15.2-7.6-17.5
		c-5.9-1.8-16.5,0.5-15-9.1c0.7-4.3,7.2-12.4,10-4.2c0.4,1.1,2.2,0.6,1.8-0.5c-4.4-13.1-19.1,3.8-12.3,11.2c2.5,2.7,5.8,3.3,9.3,3.6
		c4,0.4,7.5,0.6,10.7,3.3c3.8,3.1,3.4,8.2,1.6,12.2c-2.1,4.7-6.6,7.8-11.7,8.1c-6.4,0.5-6.1-5.6-4.4-10
		C381.1,460.6,379.3,460.1,378.9,461.2L378.9,461.2z"/>
	<path fill="#C96800" d="M155.9,429.5c-7.6,4.8-15.8,11.2-19.8,19.6c-1.7,3.6-1.1,7.8,3.3,8.2c5.7,0.5,12.3-3.6,17.1-6.1
		c5.3-2.8,10.4-5.9,15.5-9.1c-0.4-0.5-0.7-1-1.1-1.5c-3.8,4.5-7.4,9.2-10.3,14.3c-1.6,2.7-3.5,6.6-2.9,9.8c1.1,6.4,8.3,4.4,12.6,2.8
		c9.9-3.7,19-10.2,27.4-16.5c4.9-3.7,9.6-7.6,14-11.9c2.7-2.7,6.3-6,7.6-9.7c2.4-6.4-6.8-2.4-8.9-0.9c-8.8,6.4-15.5,16.4-21.9,25.1
		c-2.8,3.8-23.7,32.4-6.8,30.3c1.2-0.1,1.2-2,0-1.8c-7.1,0.9-4.7-5.6-2.8-9.8c2.7-5.9,6.5-11.3,10.3-16.5c4.4-6.2,9.2-12.3,14.2-18
		c3-3.4,6.2-6.6,10-9c1.4-0.9,5.2-2.1,3.8,0.8c-0.7,1.5-1.9,2.8-2.9,4.1c-10.1,12.4-25.1,22.5-39.2,29.8c-3.1,1.6-13.6,7.4-15.5,1.7
		c-1.1-3.3,1.8-7.7,3.3-10.4c2.6-4.5,6-8.7,9.3-12.7c0.6-0.8-0.2-2-1.1-1.5c-7.9,4.9-15.9,9.9-24.5,13.3c-4.8,1.9-12.2,3.2-8.5-4.6
		c3.6-7.5,11.9-13.6,18.7-18C157.8,430.5,156.9,428.9,155.9,429.5L155.9,429.5z"/>
	<path fill="#C96800" d="M234.6,433.2c-4.8,4.4-9.2,9.2-13.2,14.4c-5.9,7.6-9.6,16.9-13.2,25.8c-1.8,4.4-5.1,11.5-2.8,16.3
		c2.3,4.7,10.6-1.2,12.8-2.6c1-0.6,0.1-2.2-0.9-1.6c-2.5,1.7-5.3,3.6-8.4,4c-3.3,0.4-2.2-4.7-1.8-6.4c1.4-7,4.8-13.8,7.8-20.2
		c5.1-11,12.2-20.2,21.1-28.4C236.8,433.7,235.5,432.4,234.6,433.2L234.6,433.2z"/>
	<path fill="#C96800" d="M202.4,457c10.1,1.1,20.2,2.2,30.3,3.4c1.2,0.1,1.2-1.7,0-1.8c-10.1-1.1-20.2-2.2-30.3-3.4
		C201.3,455,201.3,456.9,202.4,457L202.4,457z"/>
	<path fill="#C96800" d="M269,465.9c10.3-1.5,20.6-3,30.9-4.5c1.2-0.2,0.7-2-0.5-1.8c-10.3,1.5-20.6,3-30.9,4.5
		C267.3,464.3,267.8,466.1,269,465.9L269,465.9z"/>
	<path fill="#C96800" d="M461.6,354.6c6.3-5.9,12.4-11.9,15.7-19.9c0.5-1.1-1.3-1.6-1.8-0.5c-3.2,7.7-9.2,13.5-15.2,19.1
		C459.4,354.1,460.7,355.4,461.6,354.6L461.6,354.6z"/>
	<path fill="#C96800" d="M307.8,436.3c6,19.5,2.1,42.8-2,62.2c0.6,0.1,1.2,0.2,1.8,0.2c1.1-8.4,5.7-16.8,9.6-24.2
		c2.5-4.8,6.3-10.3,11.7-11.9c6.8-2.1,4.8,12.5,4.1,15.7c-1.5,7.8-6.5,14.6-13.3,18.7c-1.5,0.9-12,5.5-11.9,0.9c0-1.2-1.8-1.2-1.8,0
		c-0.1,5.8,8.9,3.3,11.7,2.1c9.3-3.8,15.4-12.8,17.3-22.5c0.9-4.7,1.8-12.2-2-15.9c-3.1-3.1-8.2,0.7-10.6,2.7
		c-5.1,4.4-7.9,11-10.7,17c-2.5,5.5-5.2,11.3-6,17.3c-0.1,1,1.6,1.3,1.8,0.2c4.2-19.8,8.2-43.4,2-63.2
		C309.2,434.6,307.4,435.1,307.8,436.3L307.8,436.3z"/>
	<path fill="#C96800" d="M379.5,478.1c-11,8.2-20.8-16.2-23.5-23.4c-0.8-2.1-1.5-4.2-2-6.3c-0.2-0.6-0.3-1.3-0.3-1.9
		c0,1.2-0.9-0.6-0.3,1.1c1.7,4.7,1.4,10.5,1.5,15.4c0.1,6.2-0.1,12.6-1.1,18.7c-0.3,2-0.7,4.1-1.6,6c-1.3,2.7-2.9-0.4-3.8-1.8
		c-3.7-6.2-10.5-40.1,4.4-36.3c1.2,0.3,1.6-1.5,0.5-1.8c-15-3.8-11.7,22.8-9.8,30.3c0.7,2.9,3.1,12.7,7.4,12.7
		c3.5,0,4.2-6.2,4.6-8.6c1.2-6.9,1.3-14,1.1-21c-0.1-4.8,0.1-10.5-1.9-15c-1-2.2-3.2-1.1-2.9,1.1c0.8,5.6,3.4,11.2,5.8,16.2
		c3.5,7.3,12.5,23.7,22.6,16.1C381.4,479,380.5,477.4,379.5,478.1L379.5,478.1z"/>
	<path fill="#C96800" d="M401,443.8c6-6.9,10.8-15.8,10.2-25.2c-0.2-3.9-3.1-8.9-7.7-6.7c-4.6,2.2-5.9,9.8-5.9,14.2
		c0,8.7,6.2,14.7,13.6,18.1c3.9,1.8,9.7,3.5,13.5,0.4c3.8-3.1,4.1-8.6,3.9-13.1c-0.4-11.2-4.7-25.2-12-33.9
		c-0.4,0.4-0.9,0.9-1.3,1.3c8.2,7.9,14.8,17.2,22.4,25.8c0.7,0.8,2.1-0.3,1.5-1.1c-4.4-6.3-7.2-14.7-10-21.8
		c-1.5-3.9-2.8-7.6-2.7-11.9c0.1-8.7,8.3-7.2,12.7-2.8c0.9,0.8,2.2-0.5,1.3-1.3c-2.8-2.7-7.7-6-11.7-3.8c-4.6,2.5-4.6,8.5-3.8,13
		c1,5.5,3.8,11,6,16c1.9,4.4,3.7,9.5,6.5,13.5c0.5-0.4,1-0.7,1.5-1.1c-7.6-8.5-14.2-17.8-22.4-25.8c-0.9-0.8-2.1,0.4-1.3,1.3
		c5.6,6.6,8.5,16.1,10.4,24.4c1.4,6.1,3.7,20.5-5.8,21.2c-5.9,0.4-12.9-4-16.6-8.2c-4.5-5-4.6-12.7-2-18.6c0.7-1.6,2.1-4.2,4.1-4.5
		c3.4-0.4,4,4,4.2,6.3c0.5,8.4-4.4,16.9-9.7,22.9C398.9,443.4,400.2,444.7,401,443.8L401,443.8z"/>
	<path fill="#C96800" d="M103.8,346.7c-8.7,5.5-17.8,10.4-27.1,14.7c-7.4,3.5-15.1,6.5-23,8.3c-5.6,1.2-13.8,2.2-17.5-3.4
		c-0.7-1-2.3-0.1-1.6,0.9c7.5,11.4,28,2.2,37.2-1.7c11.4-4.8,22.5-10.7,33-17.3C105.8,347.7,104.9,346.1,103.8,346.7L103.8,346.7z"
		/>
	<path fill="#C96800" d="M182.4,61.1c4.7,4.6,6.2,11.7,7.3,18c0.8,4.7,1.8,10.6,0.7,15.3c1.2,0.1,1.4-0.5,0.8-1.6
		c-0.1-0.7-0.1-1.5-0.2-2.2c-0.1-2-0.1-4,0-6.1c0.1-4.7,0.4-9.5,1.2-14.2c0.6-3.7,1.6-7.4,3.3-10.8c0.8-1.7,2-3.2,3.3-4.5
		c2.1-2.2,4.8-2.3,8.1-0.3c1.2,1.7,0.6,4.6,0.4,6.4c-0.2,1.2,1.6,1.7,1.8,0.5c0.5-3.2,0.9-9.6-3.7-10.4c-4.9-0.8-8.4,2.5-10.8,6.4
		c-2.6,4.2-3.7,9.5-4.3,14.4c-0.9,7.1-1.5,14.6-0.7,21.8c0.1,0.8,1.3,3.9,2.4,1.9c1.2-2.3,0.7-5.8,0.5-8.2c-0.5-9.1-2-20.8-8.7-27.5
		C182.9,59,181.6,60.3,182.4,61.1L182.4,61.1z"/>
	<path fill="#C96800" d="M451.8,311c5.8,17.1,15.2,34.5,27.1,48.1c3.3,3.7,8,8.5,13.5,7.5c5.4-1,2.2-11.3,1.6-14.4
		c-0.2-1.2-2-0.7-1.8,0.5c0.5,2.6,1.1,5.1,1.3,7.7c0.3,4.5-3.4,5-6.7,3.2c-5.4-3.1-9.6-9.1-13.1-14.1c-8.4-11.8-15.6-25.3-20.2-39
		C453.2,309.4,451.4,309.9,451.8,311L451.8,311z"/>
	<path fill="#C96800" d="M455.1,368.9c-13.8,3.3-8.5,26.9-1.4,34c4.7,4.7,11.4,4.7,10.8-3.2c-0.8-10.2-6.8-18.8-12.1-27.1
		c-0.4,0.4-0.8,0.8-1.3,1.3c7.1,3.3,14.2,6.6,21.8,8.6c2.4,0.6,6.1,1.6,8.4-0.1c4.4-3.4-4-12.6-6-15.1c-0.7-0.9-2,0.4-1.3,1.3
		c1.1,1.4,9.6,11.5,5.3,12.7c-2.7,0.8-6.3-0.7-8.8-1.5c-6.3-2-12.4-4.8-18.4-7.5c-0.8-0.4-1.8,0.4-1.3,1.3c3,4.6,6,9.1,8.4,14.1
		c1.6,3.4,2.6,7,3.3,10.6c0.3,1.8,1.1,6.9-3,6.2c-2.5-0.4-4.8-2.9-6.3-4.9c-5-6.5-8.8-26.3,2.4-28.9
		C456.7,370.4,456.3,368.6,455.1,368.9L455.1,368.9z"/>
	<path fill="#C96800" d="M255.9,466.7c-3.3-5.8-9.9-3.3-14.4-0.4c-7.6,5-14.1,14.2-15,23.2c-0.8,7.7,5.5,7.9,10.3,4.2
		c7.5-5.8,12.6-15.7,16.3-24.2c-0.6-0.2-1.1-0.3-1.7-0.5c0.1,5,0,34.6,12.5,26.3c4.9-3.3,8.2-9.5,10.9-14.6
		c4.2-7.9,7.4-16.4,10-24.9c0.6-1.9,6.6-18.8,0.9-18.9c-6.4-0.1-7.4,15.2-7.9,19.2c-1.3,10.9-1.2,23.6,1.1,34.4
		c0.6,3,1.8,5.9,4.4,7.7c3.2,2.2,7.5-0.7,10.1-2.3c1-0.7,0.1-2.3-0.9-1.6c-3.9,2.6-7.9,4.4-10.5-0.4c-1.8-3.3-2-7.7-2.3-11.4
		c-0.7-8.1-0.8-16.6-0.1-24.7c0.4-4.5,1.2-8.9,2.5-13.3c0.5-1.8,1.3-3.6,2.4-5.1c1.4,0,2,0.6,1.7,1.7c0,1.1-0.2,2.2-0.4,3.2
		c-1.2,7.5-3.8,15-6.5,22.1c-3.5,9.1-7.9,20.1-15.5,26.7c-10.2,8.9-10.4-20.3-10.5-24.2c0-0.8-1.3-1.4-1.7-0.5
		c-2.4,5.5-5.3,10.8-8.7,15.7c-2.2,3.2-14.5,17-14.4,5.2c0-7.3,6.1-14.6,11.1-19.3c3.5-3.2,11.4-8.6,14.8-2.6
		C254.9,468.7,256.5,467.7,255.9,466.7L255.9,466.7z"/>
	<path fill="#C96800" d="M137,219.3c21.7-6.5,36.3-24.1,49.8-41.4c-0.5-0.2-1.1-0.4-1.6-0.7c-5.2,45.8-25.8,88.1-33.2,133.5
		c-0.2,1.2,1.6,1.7,1.8,0.5c7.4-45.5,28-88,33.2-134c0.1-0.8-1.1-1.3-1.6-0.7c-13.2,16.9-27.6,34.4-49,40.9
		C135.4,217.9,135.9,219.7,137,219.3L137,219.3z"/>
	<path fill="#C96800" d="M342.9,344.1c22.7-45.8,62.1-80.7,84.8-126.5c0.5-1.1-1.1-2-1.6-0.9c-22.7,45.8-62.1,80.7-84.8,126.5
		C340.7,344.3,342.3,345.2,342.9,344.1L342.9,344.1z"/>
	<path fill="#C96800" d="M128.1,315.2c14.2-1,28.5-1.8,42.7-2c1.2,0,1.2-1.9,0-1.8c-14.3,0.1-28.5,1-42.7,2
		C126.9,313.4,126.9,315.2,128.1,315.2L128.1,315.2z"/>
	<g>
		<path fill="#C96800" d="M242.2,181.7c-17.9,29.2-31.5,62.2-39.9,91.5c-3.1,12-12.6,40.3-0.5,49c9.6,6.2,24.6-2.2,36.8-12.4
			c7.9-6.6,19.6-19.2,26.7-42.4c10.1-33.6,12.7-88.6-13.3-89c-26-0.1-53.8,77.6-43.6,94.8"/>
	</g>
	<g>
		<path fill="#C96800" d="M313.6,212.8c-25.9,27.5-27.8,51.5-33.3,76.3c-2.2,10.1-3.6,33.4,6.6,40.7c13.1,8.5,33.9-11.6,45.4-25.9
			c16.2-20.2,25-91.2-3.6-91.7c-7.5,0-19.9,6.4-29.7,22"/>
	</g>
	<g>
		<path fill="#C96800" d="M379.5,221.7c-6.3,5.6-18.5,36.4-2.7,31.1c5.4-2,18.5-22.9,13.4-29c-7-7.7-15.8,5.3-16.5,11.6"/>
	</g>
	<g>
		<path fill="#C96800" d="M396.7,295c-6.3,5.6-18.5,36.4-2.7,31.2c5.4-2,18.5-22.9,13.3-29.1c-7-7.7-15.8,5.3-16.5,11.6"/>
	</g>
	<path fill="#C96800" d="M97.7,189.3c0.3,8.2-6.9,4.5-11.2,1.6c-7.3-5-13.6-11.8-19.1-18.6c-6-7.4-11.6-15.6-15-24.6
		c-0.3-0.8-0.8-4.3-1.6-4.4c1.2,0.2,2.4,1.8,3.3,2.6c3.3,3.3,6.1,7.1,8.6,11.1c4.6,7.4,4.1,13.1,2.2,21.2c-2.1,8.9-4.6,17.6-6,26.6
		c-1.1,7.2-1.9,15.6,1.2,22.4c2.3,5.1,8.5,10.9,14.7,9.7c6.1-1.1,5.1-8.9,4.3-13.4c-1.4-7.6-4.3-13.3-9.8-18.7
		c-8.7-8.8-33.7-23.1-36.4-1.7c-0.1,1.2,1.7,1.2,1.8,0c1.7-13.7,15.2-9.6,23.6-4.6c7.9,4.8,14.8,11.4,17.6,20.3
		c1.1,3.5,1.9,7.2,1.8,10.8c-0.1,6.3-5.2,6-9.8,3.8c-8.2-4.2-8.6-14.9-8.1-22.9c0.7-9.5,3.3-18.8,5.6-28c1.4-5.7,3.8-12.5,2.3-18.4
		c-1.8-7.2-7.6-14.3-12.7-19.5c-1.4-1.4-6.8-5.6-6-0.6c1.3,7.9,6.5,15.6,10.9,22c5.3,7.7,11.6,14.9,18.6,21.2
		c4.7,4.2,21.1,16.6,20.6,2.1C99.5,188.1,97.6,188.1,97.7,189.3L97.7,189.3z"/>
	<path fill="#C96800" d="M76,155.9c2.4,4.5,21.6,33.1,28,22.2c2.7-4.7-2.6-13.3-4.7-17.2c-3.1-6-6.6-12.1-10.9-17.3
		c-0.7-0.9-1.8,0.2-1.5,1.1c3.1,7.4,9.9,16.1,17.6,19.1c5.7,2.2,11.2,0.4,11.8-6.1c0.8-8.3-2.1-17-4.7-24.8
		c-2.4-7.1-5.1-14.4-8.7-20.9c-0.3,0.5-0.7,0.9-1,1.4c5.8,1.9,9.9,9,13.3,13.6c3.2,4.5,6.2,9.6,10.5,13.2c0.8,0.6,2.1-0.2,1.5-1.1
		c-4.6-6.8-8.5-14-11.1-21.8c-1.8-5.5-3.3-12.5-0.4-17.9c3.9-7.2,12.2-0.6,15.7,3.1c5.7,6.1,9.5,14.1,12.2,21.9
		c0.4,1.1,2.2,0.6,1.8-0.5c-3.1-9.1-7.7-17.9-14.6-24.6c-3.8-3.7-9.3-6.7-14.3-3.4c-4.3,2.8-4.6,9.5-3.9,14c1.5,11,7,21.1,13.1,30.2
		c0.5-0.4,1-0.7,1.5-1.1c-5.2-4.3-8.6-10.7-12.6-16c-3.1-4.3-6.8-9.6-12.1-11.3c-0.8-0.3-1.4,0.7-1,1.4c6,11,10.6,24,12.7,36.4
		c1.1,6.3,1.3,16-8.1,13.2c-7.6-2.3-14.5-11.6-17.5-18.6c-0.5,0.4-1,0.7-1.5,1.1c3.1,3.7,5.6,8,8.1,12.2c3.1,5.3,6.9,11.5,7.5,17.8
		c0.9,8.7-11.7-2.3-13.4-4.1c-4.4-4.7-8.5-10.2-11.6-15.9C77.1,153.9,75.5,154.9,76,155.9L76,155.9z"/>
	<path fill="#C96800" d="M164.3,82.3c-17.5-7.8-18.4,27.1-7.4,34.8c13.5,9.4,12.8-31.5,12.7-36.6c-0.2-9.1-0.8-18.7-3.5-27.4
		c-0.4-1.4-3.1-7.6-5.3-4.3c-1.9,2.8-1.1,7.6-0.9,10.7c0.4,6.3,1.6,12.5,3.2,18.6c1.9,7.3,4.8,16.6,11.3,21.2
		c6.9,4.8,13.5-3.1,16.9-8.3c0.7-1-0.9-1.9-1.6-0.9c-2.8,4.2-7.7,10.9-13.5,8.1c-4.8-2.3-7.4-9-9.1-13.6c-2.3-6.1-3.7-12.5-4.6-18.9
		c-0.7-4.7-1.5-10-0.5-14.7c0.5-2.6,1.8,0.9,2.2,1.9c1.4,3.8,2,8,2.5,12.1c1.4,10.5,1.6,21.3,0.9,31.8c-0.4,5.1-2,25.7-10.9,17.7
		c-7.5-6.8-7.5-36.9,6.9-30.5C164.5,84.3,165.4,82.8,164.3,82.3L164.3,82.3z"/>
	<path fill="#C96800" d="M238.6,48.6c-8.2-6.7-18.2,12.5-20.7,17.3c-2.8,5.2-8.3,24,0.6,26.6c6,1.8,10.4-11.4,11.9-14.9
		c3.8-9.5,6.6-19.5,8.9-29.4c-0.6-0.2-1.2-0.3-1.8-0.5c-2.1,11.2-3.8,27.6,3.8,37.4c5.9,7.7,10.4-1.4,11.5-7.3
		c0.2-1.2-1.6-1.7-1.8-0.5c-0.5,2.9-1.2,6.9-3.9,8.7c-2.6,1.7-5.2-3.1-6-4.8c-4.9-9.8-3.7-22.7-1.8-33.1c0.2-1.2-1.5-1.7-1.8-0.5
		c-3,13.2-6.4,28-13.8,39.4c-1.4,2.2-4.3,5.5-6.6,2.1c-2.6-4-0.9-11.3,0-15.4c1.3-5.9,4.5-11.2,8-16.1c1.9-2.8,8.2-11.1,12.3-7.7
		C238.2,50.7,239.5,49.4,238.6,48.6L238.6,48.6z"/>
	<path fill="#C96800" d="M339.9,60.2c-3.4,11.9-13.4,20.2-19.1,30.9c0.6,0.2,1.1,0.5,1.7,0.7c3.3-7.8,8.4-15,14.3-21
		c3.3-3.3,7.4-6.4,12.2-7c7.1-0.9,9.8,6.3,6.2,11.7c-0.7,1,0.9,1.9,1.6,0.9c2.7-4,3.1-9.4-0.9-12.7c-3.5-2.8-8.3-2-12-0.4
		c-10.6,4.5-18.9,17.7-23.1,27.9c-0.4,1,1.2,1.6,1.7,0.7c5.8-10.8,15.8-19.3,19.3-31.3C342,59.6,340.2,59.1,339.9,60.2L339.9,60.2z"
		/>
	<path fill="#C96800" d="M384.9,74.5c-4.9-9.3-18.4,0.1-23.5,4.3c-4.9,4-17.2,16.4-8.8,22.6c5,3.6,12.9,2,17.5-1.1
		c6.8-4.5,14.1-13.8,14.9-22.2c1.1-11.5-20.4-12.4-16.4-1.3c0.4,1.1,2.2,0.6,1.8-0.5c-2.1-5.9,4.9-6.5,8.8-4.7
		c7.5,3.4,2.4,12.4-0.6,17.1c-4.1,6.3-10.2,12.8-18.2,12.7c-3.4,0-8.4-0.8-8.7-5c-0.6-9.3,25.4-32.6,31.6-20.9
		C383.9,76.5,385.5,75.6,384.9,74.5L384.9,74.5z"/>
	<path fill="#C96800" d="M421.8,95.3c-0.2-5.7-3.9-9.4-9.6-9.9c-8-0.7-15.1,2.3-21.4,7.1c-3.6,2.7-12.8,11.2-9.1,16.8
		c4.3,6.4,16.6,4.2,22.8,3.6c1.2-0.1,1.2-2,0-1.8c-6,0.5-12.6,1.3-18.4-0.6c-10.2-3.2,5.3-16.2,8.5-18.5c6.6-4.6,24.9-9.5,25.3,3.3
		C420,96.5,421.9,96.5,421.8,95.3L421.8,95.3z"/>
	<path fill="#C96800" d="M91.6,340.3c9.2,5.3,19.8,12.4,23.3,23c2.8,8.5-4.3,13.2-11.8,13.8c-7.8,0.7-16.4-4-22.7-8.1
		c-0.8-0.5-7.6-6.3-2.6-5.3c0.5,0.1-1,3.3-1.1,3.5c-4.6,9.3-11.4,17.7-13.6,28c-2.5,12.1,8,15.9,18.2,16.1c1.2,0,1.2-1.8,0-1.8
		c-7-0.2-16.3-1.5-16.7-10.2c-0.3-6.3,3.3-12.7,6.2-18.1c1.1-1.9,13.2-19.1,6.8-19.5c-5.4-0.3-3.6,4.3-1.1,6.5
		c5.8,5.2,14.3,8.9,21.9,10.3c5.6,1.1,13.4-0.2,17-5.2c3.9-5.5,1.6-12.1-1.7-17.2c-5-7.7-13.2-13.2-21-17.7
		C91.5,338.1,90.5,339.7,91.6,340.3L91.6,340.3z"/>
	<path fill="#C96800" d="M501.8,164.8c-9.2,2-18.2,4.5-27.2,7c-7.4,2.1-15.4,3.8-22.1,7.8c-3.3,1.9-7,5.8-6.3,9.9
		c0.8,5,12.1,3.4,15.2,3.5c1.2,0,1.2-1.8,0-1.8c-3.8-0.1-16.3,1.5-12.4-5.6c2.3-4.2,7.7-6.1,11.9-7.7c13.4-4.8,27.6-8.3,41.5-11.3
		C503.5,166.4,503,164.6,501.8,164.8L501.8,164.8z"/>
	<path fill="#C96800" d="M414.9,103.3c6.9,5.9,15.6,9.8,24.5,11.2c2.7,0.4,11.3,1.1,10.3-4c-2.9-14.6-25-6.8-32.7-2.3
		c-5,3-10.3,7.6-11.6,13.6c-1.2,5.8,3.6,10.2,8.3,12.5c7,3.4,15.5,3.7,23.1,3.4c7.3-0.3,15.4-1.4,21.7-5.2c-0.4-0.5-0.7-1-1.1-1.5
		c-8.1,6.3-18.8,7.3-26.6,13.9c-0.6,0.5-0.1,1.7,0.7,1.6c11.4-1.3,24-3.1,35.4-0.4c3.7,0.9,7.7,3.5,3.4,6.3c-3,1.9-6.5,3.1-9.7,4.3
		c-4.6,1.7-30.8,9.2-16.2,15.7c1.1,0.5,2-1.1,0.9-1.6c-2.9-1.3-5.2-2.8-1.8-5.1c3.1-2.1,6.9-3.3,10.3-4.6c6.2-2.3,13.6-4,18.9-8.1
		c5.3-4.1-2.8-8-6.3-8.9c-11.1-2.7-23.7-0.7-34.9,0.6c0.2,0.5,0.4,1.1,0.7,1.6c7.8-6.7,18.6-7.7,26.6-13.9c0.8-0.7-0.2-2-1.1-1.5
		c-10,5.9-24.3,6-35.4,4c-5.2-1-11.2-2.9-14.1-7.7c-3.1-5.2,1.5-10.7,5.2-14c7.3-6.5,22.2-13,31.4-7c2,1.3,5,5.4,1.5,6.6
		c-2.6,0.9-5.9,0.2-8.4-0.3c-7.8-1.5-15.5-5.2-21.5-10.4C415.3,101.3,414,102.6,414.9,103.3L414.9,103.3z"/>
	<path fill="#C96800" d="M94.3,393.4c5.3,6.1,14.3,12.7,22.9,11.9c5.6-0.6,3.9-6.8,1.2-9.7c-7.7-7.9-23.9,4.3-24.7,13
		c-0.7,7.4,6.4,10.9,12.4,12.8c12.2,3.8,27.4,3.3,39.7,0c2.6-0.7,6.3-1.8,7.5-4.5c0.8-1.7-0.8-3.8-2.4-4.4c-7-2.6-14.4,2.8-15.8,9.5
		c-1.1,5.1-0.7,9.9-2.9,14.8c-2.4,5.3-8.9,6.7-14.1,6.5c-4.2-0.2-7.1-2.1-9.9-5.2c-2.8-3.1-4.6-8.3,1.7-7c1.2,0.2,1.7-1.5,0.5-1.8
		c-5.1-1-8.5,0.8-6.2,6.2c3,6.8,9.6,9.9,16.7,9.7c10.1-0.3,14.4-8.3,15.3-17.3c0.7-6.7,1.5-11.8,8.8-13.7c1.2-0.3,7.7-0.8,6.3,2.4
		c-1,2.2-5.5,3-7.5,3.5c-12.8,3.4-30.4,3.5-42.5-2.4c-8.3-4-6.5-11.8-0.8-17.2c4.2-3.9,13.5-8.4,17.7-2.1c4.3,6.4-4.7,5.1-8,4
		c-5.7-1.9-10.7-5.7-14.6-10.2C94.9,391.2,93.6,392.5,94.3,393.4L94.3,393.4z"/>
	<path fill="#C96800" d="M289.3,44.6c0.2,18.5-5,37.4-10.1,55.1c-2.4,8.4-5.1,16.8-8.4,24.9c-0.9,2.1-3.9,11.1-6.9,10.3
		c-4.4-1.2,5.5-28.5,6.5-31.3c5-14.8,10.9-29.7,18.9-43.2c3.5-6,9-11.2,15.4-13.9c7.6-3.2,14.3,0.7,15.3,9
		c1.4,12.3-8.8,24.8-19.8,28.9c-9.3,3.5-17.9-1-23.6-8.4c-0.7-0.9-2,0.4-1.3,1.3c6.1,7.8,14.5,11.8,24.3,9.2
		c9.1-2.4,16.2-10.3,19.9-18.5c3.4-7.5,4.1-18.8-4-23.4c-7.8-4.4-17.7,3-22.8,8.3c-9.1,9.5-14,23.9-18.7,35.9
		c-5,12.6-9.9,25.8-12.3,39.3c-0.4,2.2-1.1,5.3-0.1,7.4c0.6,1.2,1.5,1.2,2.4,1.6c2.7,1.1,5.2-4.7,6-6.2
		c6.6-12.8,10.4-27.3,13.9-41.2c3.7-14.5,7.4-29.9,7.3-45C291.1,43.4,289.3,43.4,289.3,44.6L289.3,44.6z"/>
	<path fill="#C96800" d="M467.5,163.1c7,7.7,14.1,15.5,21.1,23.2c0.8,0.9,2.1-0.4,1.3-1.3c-7-7.7-14.1-15.5-21.1-23.2
		C468.1,160.9,466.7,162.2,467.5,163.1L467.5,163.1z"/>
</g>
</svg>
