<?xml version="1.0" encoding="utf-8"?>
<!-- Generator: Adobe Illustrator 17.1.0, SVG Export Plug-In . SVG Version: 6.00 Build 0)  -->
<!DOCTYPE svg PUBLIC "-//W3C//DTD SVG 1.1//EN" "http://www.w3.org/Graphics/SVG/1.1/DTD/svg11.dtd">
<svg version="1.1" id="Layer_1" xmlns="http://www.w3.org/2000/svg" xmlns:xlink="http://www.w3.org/1999/xlink" x="0px" y="0px"
	 width="502.1px" height="407.4px" viewBox="0 0 502.1 407.4" enable-background="new 0 0 502.1 407.4" xml:space="preserve">
<path fill="#48A59D" d="M45.7,388.2c83.5,4.2,211.6-164.5,163.2-295.9C168.4-17.4,28.7-43,1.6,91.3c-11.3,56.2,40.8,81.8,60,84.4
	c38.2,5.3,73.6-38.7,91,25C167.1,254,107.6,332,50,362.2c-2.1,1.1-6.3,3.2-7.3,7.9C40.1,383.5,45.7,388.2,45.7,388.2z"/>
<path fill="#48A59D" d="M300.1,383.7c80.6,3.8,204.4-151.3,157.6-272.2c-39.1-101-173.9-124.5-200.1-1c-11,51.7,39.4,75.2,58,77.6
	c36.9,4.8,71.1-35.6,87.8,23c14.1,49.5-44.6,122.3-100.8,149.5c-1.4,0.7-4.6,2.8-5.2,6.6C295.1,379.5,300.1,383.7,300.1,383.7z"/>
<path fill="none" stroke="#48A59D" stroke-width="2.5" stroke-linecap="round" stroke-linejoin="round" stroke-miterlimit="10" d="
	M155.3,195.6c-22.6-7.5-49.3,11-73.2,7.7c-11.2-1.5-33.4-10.8-47.9-29.3c-4-5.1-7.3-10.8-9.8-17.3"/>
<path fill="none" stroke="#48A59D" stroke-width="2.5" stroke-linecap="round" stroke-linejoin="round" stroke-miterlimit="10" d="
	M193,62.6c10.9,8.1,26.8,23.7,35.8,37.8c0,0,28.5,39,25.5,84.6c-7.8,119.5-108.6,224.6-181.2,221c0,0-26.7-9.4-29.1-26"/>
<path fill="none" stroke="#48A59D" stroke-width="2.5" stroke-linecap="round" stroke-linejoin="round" stroke-miterlimit="10" d="
	M403,205.9c-19.3-4.5-45,10.5-68.1,7.4c-13.2-1.7-47.8-16.9-57.1-46.1"/>
<path fill="none" stroke="#48A59D" stroke-width="2.5" stroke-linecap="round" stroke-linejoin="round" stroke-miterlimit="10" d="
	M299,378.1c3,11,11.5,17.7,17.5,21.2c3.7,2.1,6.4,3.1,6.4,3.1c80.6,3.8,215.1-133.7,168.3-254.5c-10.7-27.5-28.4-49.3-49.2-63.9"/>
</svg>
