<?xml version="1.0" encoding="utf-8"?>
<!-- Generator: Adobe Illustrator 17.1.0, SVG Export Plug-In . SVG Version: 6.00 Build 0)  -->
<!DOCTYPE svg PUBLIC "-//W3C//DTD SVG 1.1//EN" "http://www.w3.org/Graphics/SVG/1.1/DTD/svg11.dtd">
<svg version="1.1" id="Layer_1" xmlns="http://www.w3.org/2000/svg" xmlns:xlink="http://www.w3.org/1999/xlink" x="0px" y="0px"
	 width="468.2px" height="457.1px" viewBox="0 0 468.2 457.1" enable-background="new 0 0 468.2 457.1" xml:space="preserve">
<polygon fill="none" points="468.2,457.1 0,456 0,0 468.2,0 "/>
<g>
	<path fill="#C62B83" d="M377.6,187.8c0.2-0.4,0.4-0.9,0.6-1.3c-2.5-1.6-4.9-3.2-7.1-4.6c-1.5-1-3-2.1-4.4-3.2
		c-0.7,2-1.3,3.9-1.8,5.8c3.7,3,7.4,5.8,11,8.3C376.5,190.8,377.1,189,377.6,187.8z"/>
	<path fill="#C62B83" d="M389.7,208c-3.8-2.2-7.6-4.5-11.3-7.1c-0.2,1-0.3,1.9-0.4,2.9c-0.1,1.4-0.3,2.5-0.5,3.5
		c3.6,1.9,7.2,3.8,10.9,5.7C388.7,211.7,389.1,209.9,389.7,208z"/>
	<path fill="#C62B83" d="M387,175.8c-0.3,0.5-0.7,1.5-1.2,2.7c2.5,1.7,4.9,3.4,7.2,5.2c1.5,1.1,3,2.3,4.5,3.4
		c0.6-1.4,1.2-2.5,1.5-3.3c-2-1.3-4-2.6-6.1-4S388.8,177.1,387,175.8z"/>
	<path fill="#C62B83" d="M374.7,198.4c-3.8-2.7-7.6-5.5-11.3-8.2c-0.9,3.3-1.5,6.1-2,8.2c3.8,2.2,7.8,4.5,12,6.7
		C373.7,203.5,374.2,201,374.7,198.4z"/>
	<path fill="#C62B83" d="M407.4,216.1c-0.3-0.1-0.6-0.2-0.9-0.3c-4-1.3-8.1-3.2-12.4-5.4c-0.4,1.9-0.7,3.7-0.8,5.2
		c4.2,2.2,8.5,4.3,12.7,6.4C406.3,220.4,406.8,218.3,407.4,216.1z"/>
	<path fill="#C62B83" d="M392.9,197.7c0.2-0.5,0.4-1.1,0.7-1.7c-4-2.5-8-5-11.8-7.4c-0.7,2.1-1.5,4.3-2.1,6.6
		c4.3,2.9,8.2,5.4,11.6,7.4C391.8,200.8,392.3,199,392.9,197.7z"/>
	<path fill="#C62B83" d="M360.6,179.3c0.5-1.5,1.1-2.9,1.7-4.3c-3.6-3.1-6.6-6.2-9.1-9.2c-0.9,1.9-1.7,3.8-2.5,5.8
		c3.1,3.1,6.3,6.1,9.5,8.9C360.3,180,360.4,179.7,360.6,179.3z"/>
	<path fill="#C62B83" d="M344.4,187.5c2.2,1.8,4.7,3.5,7.5,5.2c1.2,0.7,2.4,1.5,3.7,2.2c0.6-2.3,1.5-5.2,2.6-8.7
		c-3.6-2.8-7-5.5-10.2-8.1C346.7,181.4,345.5,184.6,344.4,187.5z"/>
	<path fill="#C62B83" d="M352,137.1c-1.7,2.2-3.3,4.4-5,6.6c1.3,4.9,3,9.7,5.3,13.5c1.5-2.3,3-4.6,4.4-6.6c-0.5-0.9-1-1.9-1.5-2.9
		C354.1,145.5,352.8,141.7,352,137.1z"/>
	<path fill="#C62B83" d="M364.9,169.7c0.9-1.6,1.8-3.1,2.6-4.5c-3-3.1-5.9-6.6-8.5-10.7c-0.8,1.3-1.6,2.5-2.1,3.6
		c-0.5,1-1.1,2.1-1.6,3.2C357.1,163.5,360.5,166.4,364.9,169.7z"/>
	<path fill="#C62B83" d="M338.2,156.6c2.4,3.6,5.2,7,8.1,10.3c1.1-1.8,2.2-3.6,3.4-5.5c-2-2.8-3.6-5.3-4.8-7.4
		c-0.8-1.4-1.5-2.8-2.2-4.2C341.1,152.1,339.5,154.4,338.2,156.6z"/>
	<path fill="#C62B83" d="M333.4,165.6c-0.2,0.6-0.4,1.1-0.6,1.7c-0.6,1.9-1.1,3.7-1.7,5.5c1.9,3.2,4.4,6.4,7.6,9.7
		c1.2-2.9,2.5-5.9,3.8-8.7c-1-0.8-1.9-1.5-2.8-2.2C337.4,169.6,335.3,167.6,333.4,165.6z"/>
	<path fill="#C62B83" d="M395.4,205.1c4.2,2.4,6.8,3.8,6.8,3.8s3,1.6,6.1,3.5c0.6-2.4,1.1-4.6,1.6-6.4c-4.1-2.4-8.3-5-12.5-7.5
		C396.7,200.6,396,202.9,395.4,205.1z"/>
	<path fill="#C62B83" d="M383.8,183.1c3.8,2.6,7.8,5.2,11.8,7.8c0.4-1,0.9-2,1.3-2.9c-1.6-1.2-3.1-2.3-4.7-3.5c-2.2-1.7-4.5-3.3-7-5
		C384.9,180.6,384.3,181.8,383.8,183.1z"/>
	<path fill="#C62B83" d="M465,252.3l0.1,4.1c0.4,0.2,0.7,0.4,1,0.6L465,252.3z"/>
	<path fill="#C62B83" d="M343.2,118.4c0.2,4.1,0.8,10.5,2,17.3c2-2.5,3.9-4.9,5.8-7.2c-0.1-3.1-0.1-6.2,0.2-9.3
		c0.3-3.3,0.7-6.4,1.1-9C348.7,112.8,345.7,115.7,343.2,118.4z"/>
	<path fill="#C62B83" d="M333,132.6c0,0-1.7,2.4-3.5,6.3c1.1,3.8,2.7,7.6,4.7,11.2c1.7-2.3,3.4-4.7,5.3-7.1c-2.2-5-4-9.7-4.9-13.4
		C333.5,131.5,333,132.6,333,132.6z"/>
	<path fill="#C62B83" d="M369,172.8c3.6,2.6,7.6,5.4,11.9,8.3c0.6-1.2,1.1-2.4,1.7-3.5c-3.9-2.7-7.9-5.7-11.8-9.2
		C370.1,169.8,369.5,171.3,369,172.8z"/>
	<path fill="#C62B83" d="M373.1,163.6c-0.6,1.2-1.2,2.4-1.8,3.7c3.9,3.5,7.9,6.5,11.8,9.2c0.5-1,0.9-2,1.3-2.8
		C379.9,170.3,376.2,166.9,373.1,163.6z"/>
	<path fill="#C62B83" d="M359.7,153.5c2.6,4.2,5.4,7.7,8.4,10.8c0.9-1.3,1.7-2.5,2.4-3.5c-3.6-4.1-6.2-7.9-8.2-11.2
		C361.4,150.9,360.5,152.2,359.7,153.5z"/>
	<path fill="#C62B83" d="M445.4,217c3,1.3,4.2,1.5,4.7,1.6c-0.3-0.4-1.1-1.3-2.7-2.6c-1.3-1-5.6-3.8-11-7.4
		c-4.3-2.8-9.3-6.1-14.4-9.5c-1.4-0.9-2.9-2-4.6-3.1c-0.2,1.2-0.5,2.7-0.9,4.4c3.3,2.2,6.4,4.2,9.5,6.1
		C431.2,209.7,444,216.4,445.4,217z"/>
	<path fill="#C62B83" d="M353.7,109.2c-0.5,2.9-1,6.3-1.3,10.1c-0.2,2.6-0.3,5.3-0.2,7.9c1.1-1.3,2.1-2.5,3.2-3.6
		c-0.1-7.5,1.3-13.3,3-17.4C356.7,107.1,355.1,108.1,353.7,109.2z"/>
	<path fill="#C62B83" d="M356,131.8c-1,1.3-2.1,2.7-3.1,4.1c0.8,4.9,2.2,9,3.4,11.4c0.4,0.8,0.8,1.6,1.2,2.3c1-1.5,1.9-2.9,2.7-4
		c-1.9-3.8-2.6-6.4-2.8-7.1C356.8,136.2,356.3,134,356,131.8z"/>
	<path fill="#C62B83" d="M379.3,413.6c0-2-1.3-3.6-3-3.6s-3,1.6-3,3.6s1.3,3.6,3,3.6C377.9,417.1,379.3,415.5,379.3,413.6z
		 M374.4,413.6c0-1.3,0.8-2.4,1.9-2.4c1,0,1.9,1.1,1.9,2.4s-0.8,2.4-1.9,2.4C375.3,416,374.4,414.9,374.4,413.6z"/>
	<path fill="#C62B83" d="M402.9,152.9c1.8,0.5,3.3,0.7,4.5,0.7c4.1,0,4.8-2.6,4.8-7.7c0-4.8-3.2-5.3-9.1-6.2c-0.6-0.1-1.3-0.2-2-0.3
		c-0.9-0.1-1.7-0.2-2.5-0.2c-2.3,0-3.8,0.7-4.5,2c-0.5,1-0.8,1.7-1,2.3l-0.2,0.4c-0.6,1.4-0.6,2.7,0,3.8c1.5,2.9,6.4,4.3,9.6,5.1
		L402.9,152.9z"/>
	<path fill="#C62B83" d="M417.2,171.7c1.9,0,2.6-0.5,3-3.4c0.4-3.1-1.5-4.1-6-5.2c-0.8-0.2-1.5-0.4-2.3-0.7c-1.6-0.5-3.3-1-4.8-1
		c-1.8,0-3.1,0.8-4,2.5c-1.2,2.2-0.8,4.2,1.4,6c1.1,0.9,3.6,1.5,4.6,1.5h0.1c0.6,0,1.2-0.1,1.8-0.1c1.1,0,2.4,0.1,3.9,0.3
		C416,171.6,416.7,171.7,417.2,171.7z"/>
	<path fill="#C62B83" d="M253.9,234.4c0.2,0.7,0.3,0.4,0.4-1.9c0.4-2.2,0.9-4.6,1.4-7c-0.4,0-0.9-0.1-1.3-0.1c0-1.8,0-3.8,0-6.1
		c-0.4-33.7,39.7-87.6,39.7-89.1s2.6-3,4.9-3c2.2,0,3-1.1,3.7-2.6s12.7-14.6,12.7-14.6l6.7-4.9c0,0,29.2-25.8,69.2-36.3
		c40.1-10.5,73.4-1.1,73.4-1.1l0.4-15.3c0,0-25.1-6.7-67-1.1s-85,41.2-87.6,44.2s-1.1,5.6-1.1,5.6l1.9,4.5l-12.4,14.6
		c0,0-1.7-0.1-2.2-1.3c-0.4-0.9,0.1-2.3,0.9-2.8c1.2-0.7,2.1-1.6,2.1-1.6s3.8-4.3,4.4-5.1c2.2-2.8,2.4-5,1.6-5.6
		c-0.6-0.4-1.5,0-2.3,0.8c-0.5,0.4-1.6,2.2-2.5,3.4c-1.8,2.2-6.1,7.3-8.3,9.3c-1,0.9-1.9,1.3-2.7,1.6c-1.4,0.4-3.7,0.2-4.9,0.1
		c-2.4-0.3-6.6-0.8-9.5-1.3c-0.2,0-0.4,0-0.6-0.1l21.9-28c0,0,6-7.9,11.6-7.9s10.5,2.6,13.5-0.8s40.1-31.8,86.5-34.1
		c46.4-2.2,58,3.7,58,3.7l1.1-5.6c0,0-22.1-9.7-62.1-4.9c-40.1,4.9-77.9,26.2-82,29.6c-2.9,2.4-5.6,4.4-8.2,5.2
		c-2.9,0.9-4.7,0.2-6.7,0.1c-1.5-0.1-2.9,0-3.9,0.2c-1.1,0.2-2.7,0.7-4.2,1.4c-2.7,1.3-4.3,3.8-4.9,4.4c-5.3,6-22.6,23-32.4,42.2
		c-1.8,3.6-3.2,6.2-4.2,8.1c-1.3,2.4-2.8,4.7-3.4,8.1c-0.1,0.8-0.2,1.6-0.2,2.2c0,3-2.2,6-3.7,8.2c-1,1.6-9.3,16-14.7,30
		c-2.3,6-4,12-4.7,16.8c-2.1,12.8-0.7,28.8-0.7,28.8s1.1,10.8,1.5,18c0.4,6.7,0.2,9.8-0.4,12.7c-1.1,5.8-0.1,11.7,2.4,16.7l0,0
		c-0.3,0.1-0.4,0.5-0.2,0.8l17.2,34.1c0.1,0.2,0.3,0.3,0.5,0.3c0.1,0,0.2,0,0.3-0.1c0.3-0.1,0.4-0.5,0.2-0.8l-12.9-25.6
		c0.5-1.5,2-5.4,5.7-6c4.5-0.7,22.8-6,22.8-6l-1.5-30.7c0,0-1.5-11.6-6.7-12.7c-0.5-0.1-1.1-0.2-1.8-0.3
		C254.1,243.5,239.2,308.9,253.9,234.4z M238.9,225.3l-1.5-7.1c0,0-1.5-18.3,3-29.2s13.8-26.9,13.8-26.9l3.8-6.2
		c0,0,3.3-4.9,4.5-9.2c0.5-1.7,0.9-3.8,1-6c0-0.5,0.1-1.1,0.3-1.7c0.8,2.3,1.7,6.1,1.1,9.6c-0.8,4.4-4.1,10.1-5.1,11.9
		c-9,16.8-15,47.5-16.8,54.6c-1.3,5.1,0.4,5.8,1.5,5.7c0.4,0,1.5,0,2.5,0c1.8,0,5.7,0.3,5.7,0.3s0.1,1.9,0.3,4.2
		C246.6,225.1,238.9,225.3,238.9,225.3z"/>
	<path fill="#C62B83" d="M432.1,181c-1.2,0-2.8,0.2-5.2,0.7c-1.8,0.4-4.6,0.8-6.6,0.8c-0.5,0-0.9,0-1.2-0.1
		c-0.9-0.1-1.7-0.2-2.4-0.4c-0.8-0.1-1.4-0.2-1.6-0.2c-1,0.1-1.2,0.6-1.3,0.6c-0.4,0.6-0.3,1.5,0,2.2c1,1.8,4.9,3.3,9.9,5
		c1.9,0.7,3.2,1,4.1,1c1.1,0,1.3-0.5,1.8-2c0.4-1.4,1-3.4,3.2-5.3c1.3-1.2,1.1-1.5,0.9-1.9C433.6,181.4,433.4,181,432.1,181z"/>
	<path fill="#C62B83" d="M420.8,300.7c-1-4.3-4.5-8.1-10.3-11.2c-5.9-3.2-9.5-6.4-11.3-10.1c-1.4-2.9-1.6-5.6-1.8-8.9
		c-0.2-3.5-0.5-7.5-2.4-12.5c-4.5-11.9-12.7-16.4-18.7-18.2c-1.4-0.4-2.1-0.5-2.5-0.5c0.3,0.3,0.8,0.9,2.2,1.8
		c4.9,3.3,11.6,9.3,15.3,18.9c2.6,6.6,3.8,11.1,4.7,14.7c1.4,5.2,2.1,8.1,5.9,11.8c1.1,1.1,2.5,2.3,4.1,3.6
		c5.9,4.9,13.9,11.7,11,18.8c-1.4,3.6-5.2,8.4-9.1,11.6c-4.1,3.4-7.5,5.2-9.2,5.8c-5,1.6-9.8,0.7-14.5-2.5c-2.1-1.4-3.9-3.7-5-6.1
		c-1.8-4.1-2.9-9.3-3.7-13.5c-0.4-1.8-0.7-3.5-1.1-4.9c-0.7-2.6-1.5-3-2.2-3c-0.2,0-0.3,0-0.5,0.1c-1.9,0.4-5,3.2-6.6,4.9
		c-2.4,2.5-1.2,4.3-0.5,5.2l0.1,0.1c3.8,5.6,13.2,17.2,21.9,21.3c2.6,1.2,5.9,2,8.9,2c1.2,0,2.3-0.1,3.2-0.3
		c5.1-1.1,11.9-4.6,15.6-9.9C418.5,313.9,422.4,307.2,420.8,300.7z"/>
	<path fill="#C62B83" d="M198.5,160c-4.1,0-8.4,1.2-8.4,3.4s4.3,3.4,8.4,3.4c4.1,0,8.4-1.2,8.4-3.4S202.6,160,198.5,160z
		 M198.5,165.6c-4.5,0-7.3-1.3-7.3-2.2s2.8-2.2,7.3-2.2s7.3,1.3,7.3,2.2S203,165.6,198.5,165.6z"/>
	<path fill="#C62B83" d="M372.2,388.9v1.2h-2.9v-1.8c-70.3-15.5-97-45.4-97-45.4l-5.2,2.6c0,0,58.4,67.7,230.6,57.6l18-8.6
		C455.2,400.2,408.2,396.5,372.2,388.9z"/>
	<path fill="#C62B83" d="M485.2,416c-83,2.7-137.8-13.4-169.1-27.3c-34-15.1-48.5-31.1-48.6-31.2c-0.2-0.2-0.6-0.2-0.8,0
		c-0.2,0.2-0.3,0.6,0,0.8c0.1,0.2,14.8,16.3,48.9,31.5c29.1,13,78.4,27.8,151.5,27.8c5.9,0,12-0.1,18.2-0.3c0.3,0,0.6-0.3,0.5-0.6
		C485.8,416.3,485.5,416,485.2,416z"/>
	<path fill="#C62B83" d="M296,317.5c4.9-2.3,9.4-9.9,7.7-21.2c-0.4-0.5-0.8-1-1.1-1.5c0.2,0.9,0.4,1.8,0.5,2.8
		c2.1,13.5-6.8,19.5-7.5,20c-1.5,0.5-29.2,9.7-32.9,10.8c-1.1,0.3-2,0.5-2.8,0.5c-0.2,0-0.3,0-0.5,0c0.3-0.2,0.6-0.6,0.8-0.9
		c1.4-2,5.3-10.6-4-35.1c-3.3-8.7-4.9-11.4-5.9-12.9c-0.4-0.5-0.7-1-1-1.2l22.8-6.5c0,0,2.8-0.8,6.8-0.8c2.3,0,4.6,0.3,6.8,0.8
		c1.6,0.4,3.2,1.1,4.9,2.3c-0.3-0.6-0.5-1.2-0.8-1.8c-1.3-0.7-2.6-1.3-3.8-1.6c-2.2-0.5-4.6-0.8-7.1-0.8c-4.1,0-7,0.8-7.1,0.8
		L248,278c-0.2,0.1-0.4,0.3-0.4,0.5s0.1,0.5,0.3,0.6c0,0,0.6,0.3,1.5,1.6c1,1.4,2.5,4.1,5.8,12.6c7.2,19.1,6.9,30.1,4.1,34.1
		c-0.6,0.9-1.1,1.1-1.4,1.1c-0.2,0-0.4,0.1-0.5,0.3c-0.1,0.2,0,0.5,0.1,0.6s0.7,0.7,2.3,0.7c0.9,0,1.9-0.2,3.1-0.5
		c0.3-0.1,0.7-0.2,1.2-0.4l0,0c5.5,6.6,2.1,10.1,2,10.3c-0.2,0.2-0.2,0.6,0,0.8c0.1,0.1,0.3,0.2,0.4,0.2s0.3-0.1,0.4-0.2
		c0,0,4.2-4.2-1.6-11.5c4.9-1.6,15.3-5,22.6-7.5c-0.2-0.2-0.3-0.3-0.3-0.3S290,320.4,296,317.5z"/>
	<path fill="#C62B83" d="M165.6,128.7l0.3,2l-3.1,0.4c0-2.1,0-3.1,0-3.1c0-0.3-0.3-0.6-0.6-0.6s-0.6,0.3-0.6,0.6c0,0.1,0,6.9,0.7,24
		c0.2,4.4,1.8,7.9,4.8,10.4c4.6,3.8,11.3,4.5,15.5,4.5c2.2,0,3.8-0.2,3.9-0.2c0.3,0,0.5-0.3,0.5-0.6s-0.3-0.5-0.6-0.5
		c-0.1,0-11.9,1.5-18.5-4.1c-2.8-2.3-4.2-5.6-4.4-9.6c-0.4-9.6-0.6-15.9-0.7-19.7l3.3-0.5l4.1,24.5l9.3,5.1c1,1.6,2.3,1.9,2.3,1.9
		s3.1,1.5,4.7,2.2c1.4,0.6,2.7,1.6,3,1.8c1.3,1.6,4.2,2.4,8.7,2.4c0.9,0,1.7,0,2.5-0.1c1.8-0.1,3.8-0.9,5-1.6c1.6-1,4-2.3,6.6-3.2
		c2.5-0.8,4.1-2.3,5-3.4c1-1.3,1.2-3.2,1-4.6c-0.2-1.2-0.4-3.1-0.4-5.2c0-2.1-1.3-3.2-3.6-3.2c-0.2,0-0.4,0-0.5,0
		c-0.5,0-1.1,0.1-1.7,0.2c-0.9,0.1-1.9,0.3-2.7,0.3c-5.4,0.2-23.3,0.7-26.1,0.7c-0.5,0-0.9,0-1.3,0.1c0.9-0.8,2.5-1.4,5.4-1.1
		c5.6,0.6,17.3-1.2,22.8-2.1c1.8-0.3,3.7-0.5,5.3,0.5s3.5,2.7,3.7,5.7c0.4,5.2,2.2,4.5,2.2,4.5l6.7-9l2-20.6l2.1-54.4h-7.9
		c-0.1,9.2-7.6,17.2-18.4,20.2c10.2,3,17.5,10.6,17.5,19.4c0,10.8-10.8,19.7-24.6,20.7l0.2,11h-1.1l-0.2-11c-0.5,0-1,0-1.5,0v-1.1
		c0.5,0,1,0,1.4,0l-0.2-7.6c-8-0.2-14.5-6-14.5-13.2c0-7,6.2-12.7,14-13.2l-0.1-5.4c-0.2,0-0.4,0-0.7,0c-14.4,0-26.1,8.8-26.1,19.6
		h-1.1c0-11.5,12.2-20.8,27.2-20.8c0.2,0,0.4,0,0.6,0l-0.1-5.6c-0.2,0-0.3,0-0.5,0c-9.2,0-16.7-5.8-17.6-13.2h-8.2
		c0.1,0.8,0.3,3.2,1.7,6c2.2,4.5,6.2,7.8,11.7,9.7l-0.4,1.1c-12.8-4.4-14-15-14.1-16.8H164c0,17.8,0,46.5,0,46.5l1.2,7
		c-2.1-2.4-4-6.4-4-13.4V47.5c0,0,0-4,2.9-7.9c1.6-2.3,6-9.6,13.1-21.7c1-1.8,1.4-2.9,1.7-3.8c0.2-0.5,0.3-0.9,0.5-1.3
		c1-2.2,4.1-5.9,13.5-5.9c14.2,0,17.4,0.7,17.5,0.7h0.1c0.1,0,5,0.1,8.9,5.4c1.6,2.1,3.1,4,4.7,5.5c0.3,0.3,0.6,0.6,0.9,0.8
		c1.1,1,1.9,1.8,2.8,3.7c0.6,1.5,1.3,3.7,1.3,9v8.7c0,0.1,0,0.1,0,0.2l2.6,6.8L235,54l0.4,63.9c0,0.3,0.3,0.6,0.6,0.6l0,0
		c0.3,0,0.6-0.3,0.6-0.6l-0.4-64c0-0.1,0-0.2-0.1-0.3l-3.3-6.3l-2.6-6.6v-8.6c0-2.9-0.2-4.9-0.4-6.4l8.1-7.4c0,0,3.3-3.5,10.5-3.5
		h32.5c8.4,0,12.6-1.8,12.7-1.9l19.8-6.4c0,0,3.2-0.7,6.6-0.7h155.3c0.3,0,0.6-0.2,0.6-0.6c0-0.3-0.2-0.6-0.6-0.6H320
		c-3.6,0-6.7,0.7-6.9,0.8L293,11.8c0,0-4.1,1.8-12.3,1.8h-32.5c-7.7,0-11.2,3.7-11.3,3.9l-7.5,7c-0.2-0.7-0.4-1.3-0.6-1.8
		c-0.9-2.2-1.9-3.1-3.1-4.1c-0.3-0.3-0.6-0.5-0.9-0.8c-1.5-1.5-3-3.2-4.6-5.3c-4-5.5-9.1-5.8-9.7-5.8C210,6.6,206.4,6,192.8,6
		c-9.5,0-13.1,3.5-14.5,6.5c-0.2,0.5-0.4,1-0.5,1.4c-0.3,0.9-0.6,2-1.6,3.6c-7,12.1-11.4,19.4-13,21.6c-3.1,4.2-3.1,8.4-3.1,8.6
		v65.9c0,8.3,2.7,12.7,5,14.9C165.3,128.4,165.4,128.5,165.6,128.7z M209.3,150c0.9,0,1.9-0.2,2.9-0.3c0.6-0.1,1.2-0.2,1.6-0.2
		c0.2,0,0.3,0,0.5,0c2.2,0,2.4,1.2,2.4,2.1c0,2.2,0.2,4.1,0.4,5.4c0.2,1.1,0,2.8-0.8,3.8s-2.2,2.3-4.5,3.1c-2.6,0.9-5.2,2.3-6.8,3.3
		c-1,0.6-2.8,1.3-4.4,1.4c-0.7,0-1.5,0.1-2.4,0.1c-4,0-6.8-0.7-7.8-2l-0.1-0.1c-0.1-0.1-1.6-1.3-3.3-2c-1.6-0.7-4.7-2.1-4.8-2.2
		c0,0-0.1,0-0.2-0.1l-0.1-1.3c0.9-0.6,2.9-1.8,7-2c5.9-0.4,24.8,0,25,0c0.3,0,0.6-0.2,0.6-0.6c0-0.3-0.2-0.6-0.6-0.6
		c-0.2,0-19.2-0.4-25.1,0c-3.7,0.2-5.9,1.2-7.1,1.9l-0.8-6.9c0,0-0.1-0.6,0-1.4c0.5-0.5,1.3-0.7,2.2-0.7
		C186,150.6,203.9,150.1,209.3,150z"/>
	<path fill="#C62B83" d="M326.1,155.5c0,1.8,0.2,3.6,0.6,5.5c0.5-0.8,0.9-1.5,1.4-2.3C327.4,157.7,326.7,156.6,326.1,155.5z"/>
	<path fill="#C62B83" d="M413.3,193.2c-3.6-2.4-7.6-5-11.8-7.8c0,0.2-0.1,0.4-0.1,0.5c0,0.3-0.4,1.5-1,3.3c3.9,2.8,7.8,5.6,11.6,8.2
		C412.4,195.9,412.8,194.5,413.3,193.2z"/>
	<path fill="#C62B83" d="M404.8,244.4c-4.8,2.9-4.2,10.4-3,16.5c0.3,1.4,0.1,3.6-0.2,4.6c-0.5,1.8-0.7,4.5,1.1,7.2
		c2.8,4.2,9.4,7,19.7,8.3c8.9,1.1,14.8,0,18.1-3.4c3.6-3.8,3.4-10,3.2-15.5c-0.1-2.6-0.2-5,0.1-7c0.1-0.7,0.3-1.3,0.7-2
		c-2.2-0.7-4.6-1.5-7-2.3c2,3.6,2.8,7.4,1,11.7c-0.7,1.7-1.2,3.4-1.6,4.8c-1.4,4.6-2.4,7.9-8,9c-1.2,0.2-2.4,0.4-3.6,0.4
		c-3.5,0-6.5-1.1-9.1-3.2c-0.6-0.5-1.3-1.2-2.2-2.1c-1-1-2-2-3.3-3.1l-0.3-0.3c-2.5-2.2-6.4-5.6-2.9-13.8c0.2-0.4,4.5-7.9,7.5-11.2
		c-2-0.7-4-1.4-6-2.2C407.6,242.3,406.2,243.5,404.8,244.4z"/>
	<path fill="#C62B83" d="M399.1,193.2c4.1,2.7,8.2,5.3,12.1,7.8c0.2-0.8,0.4-1.6,0.6-2.4c-3.9-2.6-7.8-5.4-11.7-8.3
		C399.7,191.2,399.4,192.2,399.1,193.2z"/>
	<path fill="#C62B83" d="M408.5,254.8c-3.2,7.4,0.2,10.3,2.6,12.4l0.3,0.3c1.3,1.1,2.4,2.2,3.3,3.2c0.8,0.8,1.5,1.5,2.1,2
		c2.3,2,5.1,3,8.3,3c1.1,0,2.2-0.1,3.3-0.3c5-1,5.8-3.7,7.2-8.3c0.4-1.5,0.9-3.1,1.6-4.9c1.7-4.3,0.7-8.2-1.6-11.8
		c-6.2-2.1-12.8-4.4-19.6-6.8C413.4,246.4,408.6,254.7,408.5,254.8z"/>
	<path fill="#C62B83" d="M459.9,232.2c-2.3-0.8-18-6.3-28.3-6.3c-3.6,0-6.9,1.5-10,3.6c21.5,10.4,39.3,18.4,42.7,19.9L459.9,232.2z"
		/>
	<path fill="#C62B83" d="M375.7,383c0.4,0.2,1,0,1.6-0.3c0.8-0.4,2.7-0.8,4.8-0.4c11.7,2,52.4,8.6,77.5,6.2
		c29.5-2.8,9.2-23.8,9.2-23.8l1.1-289.1c0,0-28.4-7.5-64.5-2.8c-29.9,3.8-126.4,36.3-148.8,148.3c-0.3,1.6-0.6,3.1-0.9,4.6
		c0.9,0.1,1.7,0.1,2.5,0.2c0.6-2.6,0.9-4.1,0.9-4.1s7.1-2.5,9.2,7.8s2.1,17.4,2.1,17.4s1.8-0.4,3.2,2.1c1.4,2.5,2.8,16.7,2.8,16.7
		s6.7-0.2,11.1,1.2c-12.7-35.8-0.5-65.5-0.5-65.5s-4.6,1.7-9-0.9c-0.6-0.3-3.8-2.7-4.8-3.6c-4.4-4-5.5-13.1,35.7-61.6
		c43.3-51.1,110.8-50.3,130.5-48c3.3,0.4,5.7,0.7,5.8,1.6c0.1,0.6-1.2,1-2.6,1.3c-1.1,0.2-5,0.4-7.1,0.5c-7.8,0.4-23.8,1.7-49.8,5.7
		c-10.3,1.6-18.8,4.8-25.8,8.8c-1.9,3.9-3.6,9.5-3.6,17.2c4.6-5,8.5-8.3,10.6-8.3c2.6,0-2.8,7.2-10,16.7c0.3,2.4,0.8,5,1.5,7.7
		c0.5,2.1,1.3,4.3,2.3,6.4c0.9-1.3,1.4-2,1.4-2s3.7-5.9,5.9-4.3c1.3,1-1.7,5.4-5.1,10.3c2.3,3.8,5.1,7.6,8.3,11.1
		c1.2-1.6,1.9-2.4,1.9-2.4s1.9-2.9,3.2-1.3c0.9,1.1-0.2,2.3-1,3.6c-0.6,0.9-1.1,1.8-1.6,2.8c3.7,3.8,7.6,7.2,11.2,10.1
		c0.6-1.3,1-2.1,1-2.1s0.8-2.9,2.1-1.3c1,1.2,0,4.2-0.5,5.5c2.1,1.6,4.1,3,5.9,4.2c2,1.3,3.9,2.5,5.8,3.8c0-0.9,0.1-2.8,1.6-1.5
		c1.2,1,1.1,2.1,0.9,3.1c4.3,2.8,8.3,5.5,12,7.9c0.7-1.7,1.5-2.8,2.4-2.7c2.7,0.3,2.1,3.2,1.9,4c0,0.1-0.1,0.6-0.3,1.4
		c1.8,1.2,3.5,2.3,5,3.3c5.1,3.4,10,6.6,14.4,9.5c5.7,3.7,9.7,6.4,11.1,7.5c3.8,3,3.3,3.8,3.1,4.2c-0.2,0.3-0.5,0.5-1,0.5
		c-0.9,0-2.4-0.4-5.2-1.7c-1.4-0.6-14.3-7.3-19.6-10.6c-2.9-1.8-6-3.8-9.2-5.8c-0.1,0.7-0.3,1.5-0.5,2.3c14.3,9,25.3,15.7,25.3,15.7
		s7.5,6.9-1.6,3.7c0,0-10.9-6.2-24.7-14.4c-0.5,2.3-0.9,4.6-1.3,6.8c2.3,1.7,3.1,2.8-0.4,2.1c-0.5,2.7-1,5.2-1.4,7
		c3,1.5,5.9,2.9,8.8,4.3c3.4-2.4,7.1-4.2,11.1-4.2c11.3,0,28.8,6.4,29,6.4l0.3,0.1l7.2,27.9l-1.2-0.7c0,0-0.6-0.4-1.6-0.9l0.1,2.2
		c0,0-8.1-2.5-19.7-6.3c-0.3,0.5-0.6,1.1-0.7,1.8c-0.3,1.9-0.2,4.3-0.1,6.8c0.2,5.7,0.4,12.2-3.5,16.3c-2.7,2.8-6.9,4.1-12.8,4.1
		c-1.9,0-4-0.1-6.2-0.4c-10.6-1.3-17.5-4.3-20.5-8.8c-2.1-3.2-1.7-6.5-1.2-8.1c0.3-0.9,0.4-2.9,0.1-4.1c-0.8-4.2-2.6-14,3.6-17.7
		c1.2-0.7,2.4-1.7,3.7-2.9c-13.4-5-26.2-10.2-34.8-14.7c-9.4-4.9-15.1-10-17.2-11.4c-3.1-2-6.4-3.7-9.8-5
		c-10.1-3.9-20.9-4.6-28.1-2.2c-7.8,2.6-9.9,13.9-9.2,29.3c15.3-5.1,40.7-9.6,45.1-9.6c1.2,0,1.6,0.5,1.7,0.9
		c0.5,2.1-6.4,6.1-10.6,8.1c-4,1.9-9.8,4.1-15.1,5.6c-5.8,1.7-13.2,4.7-20,7.7c0.3,3,0.7,6.1,1.2,9.2c0.8,5.7,3.7,11.5,7.8,17
		c5.3-5.1,11.6-11,15.2-13.8c5.5-4.6,18.8-15.3,22.6-15.3c0.7,0,1,0.3,1.2,0.6c0.6,1-0.8,2.7-13,15.3c-6.2,6.4-13.5,14.3-19.6,20.8
		c15.4,16.2,38.2,29.2,42.9,32.5c5,3.5,5.9,8.7,6.1,13.5c0.1,1.8,0.2,6.1,2.6,10.1c1,1.6,2.6,3.1,4.2,4.5c7,6.4,14.8,8.2,19.4,9.3
		c4.6,1.1,9.5,2.5,10.8,4.3c2.7,3.5-8.5,7.9-58.1-19.8c-22.6-12.6-38.3-26.6-49.2-40.6c0,0.2,0.1,0.4,0.1,0.6
		c2.3,14.8-8,21.1-8.1,21.2c0,0-0.1,0-0.1,0.1c-0.1,0-3.4,1.1-8,2.7c2.9,3,27.4,27.9,46.8,36.9c11.3,5.3,24.9,12,32.7,16.5
		c3.9,2.3,4.4,3.3,6.3,4.7C376.2,381.2,375.4,382.9,375.7,383z M392.1,148.2c-0.7-1.4-0.7-3,0-4.7l0.2-0.4c0.2-0.6,0.5-1.4,1-2.4
		c0.6-1.2,2-2.6,5.5-2.6c0.8,0,1.7,0.1,2.6,0.2c0.7,0.1,1.3,0.2,1.9,0.3c5.9,0.9,10.1,1.6,10.1,7.4c0,4.5-0.5,8.8-6,8.8
		c-1.3,0-2.9-0.3-4.8-0.8l-0.2-0.1C399,152.9,393.8,151.5,392.1,148.2z M409.5,172.4c-1,0.1-4.2-0.5-5.6-1.7
		c-2.6-2.2-3.2-4.7-1.7-7.5c1.1-2.1,2.8-3.1,5-3.1c1.6,0,3.4,0.5,5.1,1.1c0.8,0.2,1.5,0.5,2.2,0.6c4.2,1.1,7.4,2.2,6.8,6.5
		c-0.4,2.9-1.2,4.4-4.2,4.4c-0.6,0-1.4-0.1-2.3-0.2C412.6,172.3,411,172.3,409.5,172.4z M433.5,184.2c-1.9,1.7-2.4,3.4-2.9,4.8
		c-0.4,1.4-0.8,2.8-2.8,2.8c-1,0-2.4-0.3-4.5-1.1c-6.3-2.2-9.5-3.6-10.6-5.6c-0.5-1-0.5-2.3,0-3.3c0.3-0.5,1-1,2.1-1.1h0.2
		c0.3,0,0.9,0.1,1.8,0.2c0.7,0.1,1.5,0.2,2.4,0.3c1.7,0.2,5.4-0.2,7.5-0.7c2.5-0.5,4.2-0.8,5.4-0.8c0.9,0,2.1,0.1,2.6,1
		C435.2,181.9,435.1,182.7,433.5,184.2z M399.2,330.6c-1,0.2-2.2,0.3-3.5,0.3c-3.2,0-6.7-0.8-9.4-2.1c-8.9-4.2-18.5-16-22.3-21.7
		l-0.1-0.1c-0.6-0.9-2.3-3.4,0.6-6.6c1.5-1.6,4.9-4.7,7.2-5.2c0.3-0.1,0.5-0.1,0.8-0.1c2,0,2.8,2,3.3,3.8c0.4,1.4,0.7,3.1,1.1,5
		c0.8,4.1,1.9,9.3,3.6,13.3c1,2.2,2.7,4.3,4.6,5.7c4.4,3.1,8.8,3.9,13.5,2.4c1.6-0.5,4.9-2.3,8.9-5.6c3.7-3.1,7.4-7.8,8.7-11.2
		c2.5-6.4-4.8-12.6-10.7-17.5c-1.6-1.3-3-2.6-4.1-3.7c-3.9-3.9-4.8-7.1-6.1-12.3c-0.9-3.6-2.1-8-4.7-14.6
		c-3.7-9.3-10.1-15.1-14.9-18.4c-2.8-1.9-3-2.7-2.9-3.2c0.1-0.3,0.4-0.6,1.2-0.6c0.6,0,1.6,0.2,2.9,0.6c5.1,1.5,14.5,5.9,19.4,18.9
		c2,5.2,2.3,9.2,2.5,12.8c0.2,3.1,0.4,5.8,1.7,8.4c1.6,3.4,5.1,6.5,10.8,9.6c6.1,3.3,9.7,7.3,10.8,11.9c1.6,6.9-2.4,13.9-6.5,19.8
		C411.3,326.2,404.1,329.6,399.2,330.6z M403,346.6c-0.6-1.8-0.2-3.5,0.9-5.1c0.2-0.2,0.4-0.5,0.6-0.7c0.7-0.8,1.7-2,2.8-4
		c0.6-1,1.1-2,1.6-2.9l0.5-0.9c1.7-2.9,5.5-2.9,5.9-2.9l11.3-1.1c0,0,1.7-0.3,3.8-0.3c2.3,0,4.2,0.4,5.5,1.1c2,1.1,4.4,2.7,5,4.8
		c0.3,1.1,0.1,2.1-0.5,3.2c-2.6,4.3-13.4,16.7-23.8,16.7c-1.2,0-2.4-0.2-3.5-0.5C407.6,352.3,404,349.7,403,346.6z"/>
	<path fill="#C62B83" d="M416.7,353.3c9.9,0,20.4-12,22.9-16.2c0.5-0.8,0.6-1.6,0.4-2.3c-0.5-1.8-2.8-3.2-4.5-4.1
		c-1.1-0.6-2.9-1-5-1c-2,0-3.7,0.3-3.7,0.3l-11.4,1.1c-0.2,0-3.6,0-5,2.4l-0.5,0.9c-0.5,0.9-1.1,1.8-1.6,2.8
		c-1.1,2.1-2.2,3.4-2.9,4.2c-0.2,0.3-0.4,0.5-0.6,0.7c-1,1.3-1.2,2.7-0.8,4.1c0.9,2.7,4.3,5,9.5,6.6
		C414.5,353.2,415.6,353.3,416.7,353.3z"/>
	<path fill="#C62B83" d="M245.2,317.6c-0.3,0.1-0.5,0.4-0.4,0.7c0.1,0.3,0.3,0.5,0.5,0.5h0.1l7.5-1.5c0.3-0.1,0.4-0.3,0.5-0.5
		l0.4-6.4c0-0.2-0.1-0.3-0.2-0.5c-0.1-0.1-0.3-0.2-0.5-0.1l-9.3,1.8l-8.9-18c-0.1-0.3-0.5-0.4-0.8-0.3s-0.4,0.5-0.3,0.8l9.1,18.4
		c0.1,0.2,0.4,0.4,0.6,0.3l9-1.7l-0.3,5.2L245.2,317.6z"/>
	<path fill="#C62B83" d="M356.9,247.5h-0.1c-2.3,0-10.7,5.8-21.9,15.1c-3.6,2.8-9.9,8.7-15.2,13.8c1.5,2,3.2,3.9,4.9,5.8
		c6.1-6.5,13.4-14.3,19.6-20.7C350.3,255.1,356.2,249,356.9,247.5z"/>
	<path fill="#C62B83" d="M344.6,235c6.9-3.4,9.9-6.1,10-6.8c0,0-0.2-0.1-0.6-0.1c-3.8,0-29.9,4.6-45.1,9.7c0.2,3.3,0.5,6.7,0.9,10.3
		c6.8-3,14.1-5.9,19.8-7.6C335,239,340.7,236.9,344.6,235z"/>
	<path fill="#C62B83" d="M223.1,73.2h-9.3c-0.4,3.8-2.7,7.2-6,9.6l6.3,5.6C219.6,84.7,223,79.2,223.1,73.2z"/>
	<path fill="#C62B83" d="M159.9,354.9c0.2,0,0.5-0.2,0.5-0.4c0.5-1.8,1.1-3.6,1.6-5.4c0.1-0.3-0.1-0.6-0.4-0.7
		c-0.3-0.1-0.6,0.1-0.7,0.4c-0.6,1.8-1.1,3.6-1.6,5.4c-0.1,0.3,0.1,0.6,0.4,0.7C159.7,354.8,159.8,354.9,159.9,354.9z"/>
	<path fill="#C62B83" d="M163.2,344.1c0.2,0,0.5-0.1,0.5-0.4c0.6-1.8,1.2-3.6,1.8-5.3c0.1-0.3,0-0.6-0.3-0.7s-0.6,0-0.7,0.3
		c-0.6,1.8-1.2,3.5-1.9,5.4c-0.1,0.3,0.1,0.6,0.4,0.7C163.1,344.1,163.2,344.1,163.2,344.1z"/>
	<path fill="#C62B83" d="M167,333.4c0.2,0,0.4-0.1,0.5-0.4c0.7-1.8,1.4-3.5,2.1-5.3c0.1-0.3,0-0.6-0.3-0.7s-0.6,0-0.7,0.3
		c-0.7,1.7-1.4,3.5-2.1,5.3c-0.1,0.3,0,0.6,0.3,0.7C166.9,333.4,167,333.4,167,333.4z"/>
	<path fill="#C62B83" d="M171.3,322.9c0.2,0,0.4-0.1,0.5-0.3c0.8-1.8,1.5-3.5,2.3-5.2c0.1-0.3,0-0.6-0.3-0.7s-0.6,0-0.7,0.3
		c-0.8,1.7-1.5,3.4-2.3,5.2c-0.1,0.3,0,0.6,0.3,0.7C171.1,322.9,171.2,322.9,171.3,322.9z"/>
	<path fill="#C62B83" d="M181,302.5c0.2,0,0.4-0.1,0.5-0.3c0.9-1.7,1.8-3.4,2.7-5c0.2-0.3,0.1-0.6-0.2-0.8c-0.3-0.2-0.6-0.1-0.8,0.2
		c-0.9,1.6-1.8,3.3-2.7,5c-0.1,0.3,0,0.6,0.2,0.8C180.8,302.5,180.9,302.5,181,302.5z"/>
	<path fill="#C62B83" d="M175.9,312.6c0.2,0,0.4-0.1,0.5-0.3c0.8-1.7,1.7-3.4,2.5-5.1c0.1-0.3,0-0.6-0.2-0.8c-0.3-0.1-0.6,0-0.8,0.2
		c-0.8,1.7-1.7,3.4-2.5,5.1c-0.1,0.3,0,0.6,0.3,0.7C175.7,312.6,175.8,312.6,175.9,312.6z"/>
	<path fill="#C62B83" d="M484.8,424.3c-85.9,5-140.3-10.8-170.8-24.9c-33.1-15.3-46-32-46.2-32.2c-0.1-0.2-0.4-0.3-0.6-0.2
		c-0.2,0.1-0.4,0.3-0.4,0.6c0.1,2.3-0.3,3.8-1.1,4.2c-1,0.5-2.5-0.4-3.2-0.9c-0.8-1.3-11.4-17.5-15.7-24.2
		c-4.3-6.8-2.9-11.5-2.9-11.5v-0.1l0.4-13.5c0-0.1,0-0.2-0.1-0.3L233,300.5l0.4-6.6c0-0.1,0-0.2-0.1-0.3l-3-5c0-0.1-0.9-1.5-1.7-2.2
		c-1-0.8-1.3-1.8-1.2-2.8c0.1-0.5,0.2-2.7,0.2-3l-0.2-4.4h1.3c0.3,0,0.6-0.3,0.6-0.6c0-0.3-0.2-0.6-0.6-0.6h-14.6
		c-4.3,0-5-8.4-5.1-8.4c0-0.2-0.7-18.8-0.7-26.9c0-7.6,3.5-8.4,3.7-8.4c0.3-0.1,0.5-0.3,0.5-0.5s0.4-23.6,0.7-28.8
		c0.3-4.7,3.9-5.4,3.9-5.5h11.2c0.3,0,0.6-0.3,0.6-0.6s-0.2-0.6-0.6-0.6H217c0,0-4.5,0.9-5,6.5c-0.3,4.8-0.7,25.3-0.7,28.4
		c-1.2,0.5-4.1,2.3-4.1,9.4c0,4.2,0.2,11,0.4,16.8c-0.2-0.2-0.5-0.2-0.8,0c-0.4,0.3-35.1,31.8-53.5,101.3
		c-2.5,9.4-5.7,25.3-7.5,37.1c0,0.3,0.2,0.6,0.5,0.6h0.1c0.3,0,0.5-0.2,0.6-0.5c1.8-11.8,5.1-27.7,7.5-37
		c18.3-69.2,52.8-100.5,53.1-100.8l0,0c0.1,1.6,0.1,3.2,0.2,4.5c-0.2-0.1-0.5-0.1-0.7,0.1c0,0-0.7,0.7-1.8,2.1
		c-0.2,0.2-0.2,0.6,0.1,0.8c0.1,0.1,0.2,0.1,0.4,0.1s0.3-0.1,0.4-0.2c0.9-1.1,1.5-1.8,1.7-2c0.1,2.4,0.1,3.9,0.2,4
		c0,0.4,0.9,9.5,6.2,9.5h12.2l0.2,4.4c0,0.9-0.1,2.5-0.2,2.8c-0.2,1-0.1,2.5,1.5,3.9c0.7,0.6,1.5,1.9,1.5,1.9l2.9,4.9l-0.4,6.6
		c0,0.1,0,0.2,0.1,0.3l11.2,20.8l-0.4,13.3c-0.1,0.6-0.8,3.7,1.1,8.5c-1.3,0.6-9.3,4.7-13.9,7.8c-5.1,3.4-11.9,19.2-12.1,19.9v0.1
		c-7.9-0.1-14.3,0.8-20,2.4c0.1-0.4,0.3-1,0.5-1.8c0.1-0.3-0.1-0.6-0.4-0.7c-0.3-0.1-0.6,0.1-0.7,0.4c-0.3,1.2-0.5,2-0.6,2.4
		c-7.8,2.4-14.6,6.2-22.9,10.7c-6.3,3.5-13.3,7.3-22.1,11.4c0.1-0.1,0.1-0.2,0.1-0.3c0.1-0.9,0.2-1.9,0.4-2.8c0-0.3-0.2-0.6-0.5-0.6
		s-0.6,0.2-0.6,0.5c-0.1,0.9-0.3,1.9-0.4,2.8c0,0.3,0.2,0.6,0.5,0.6c0,0,0,0,0.1,0c-6.8,3.1-14.7,6.3-24.1,9.6
		c0.2-0.1,0.3-0.3,0.3-0.5c0-1.1,0.6-111,24.9-163.6c14.1-30.4,35.6-50.7,35.8-50.9c0.2-0.2,0.2-0.6,0-0.8s-0.6-0.2-0.8,0
		s-21.9,20.7-36.1,51.3c-24.5,52.8-25,162.9-25,164c0,0.3,0.3,0.6,0.6,0.6c0,0,0,0,0.1,0c-3.3,1.1-6.8,2.3-10.6,3.4
		c-12.9,3.9-25.7,6.5-37,8.8c-15.9,3.2-29.7,6-39.8,11.4c-8.9,4.8-12.5,8.5-16.6,12.8c-1.6,1.7-3.3,3.5-5.5,5.4
		C5.1,459-5.1,465.1-5.2,465.1c-0.3,0.2-0.4,0.5-0.2,0.8c0.1,0.2,0.3,0.3,0.5,0.3c0.1,0,0.2,0,0.3-0.1c0.1-0.1,10.4-6.1,22.8-17.4
		c2.2-2,3.9-3.8,5.5-5.5c4.1-4.2,7.6-7.9,16.3-12.6c9.9-5.4,23.6-8.1,39.4-11.3c11.3-2.3,24.2-4.9,37.1-8.8
		c28.8-8.8,44.8-17.7,57.7-24.8c15.6-8.6,25.8-14.3,47.7-13.2c19.2,0.9,34.9,14.9,35,15c0.2,0.2,0.6,0.2,0.8,0
		c0.2-0.2,0.2-0.6,0-0.8c-0.2-0.1-16.1-14.3-35.7-15.3c-1,0-1.9-0.1-2.9-0.1c1-2.3,7.1-16.1,11.6-19.1s12.3-7,13.7-7.7
		c0.4,0.9,0.9,1.9,1.6,2.9c4.4,7,15.6,24.2,15.7,24.3l0.1,0.1c0.1,0.1,2.6,2,4.4,1.1c1-0.5,1.6-1.8,1.7-3.7
		c3.6,4.1,17.3,18.2,45.5,31.3c44.2,20.5,96.5,26,139.9,26c11.2,0,21.8-0.4,31.5-0.9c0.3,0,0.5-0.3,0.5-0.6
		C485.4,424.5,485.1,424.2,484.8,424.3z"/>
	<path fill="#C62B83" d="M156.9,365.8c0.3,0,0.5-0.2,0.5-0.4c0.5-1.8,0.9-3.7,1.4-5.5c0.1-0.3-0.1-0.6-0.4-0.7
		c-0.3-0.1-0.6,0.1-0.7,0.4c-0.5,1.8-1,3.6-1.4,5.5c-0.1,0.3,0.1,0.6,0.4,0.7C156.8,365.8,156.9,365.8,156.9,365.8z"/>
	<path fill="#C62B83" d="M153.5,381.2c-0.3,0-0.6,0.1-0.7,0.4c-0.3,1.8-0.7,3.7-1,5.6c0,0.3,0.2,0.6,0.5,0.6h0.1
		c0.3,0,0.5-0.2,0.6-0.5c0.3-1.9,0.6-3.7,1-5.6C154,381.6,153.8,381.3,153.5,381.2z"/>
	<path fill="#C62B83" d="M296.8,425.9c-1.4-1.1-3.1-2.2-5.7-1.9c-2.2,0.2-3.9,1.5-5.2,3.7c-0.7,1.2-1.4,2.7-2,4.3
		c-1.6,3.5-3.3,7.5-6.5,10.4c-1.7,1.6-3.8,2.4-6.2,2.4c-2.9,0-5.9-1.2-8.4-3.4c-5.1-4.4-5.4-10.1-5.8-16.8c-0.2-3.9-0.5-8.4-1.8-13
		c-1.5-5.6-3.9-7.1-5.6-7.4c-4.4-0.7-7.5,3.1-9.6,11.6c-2.2,8.9-4.3,12.2-6.7,15.9c-1.2,2-2.5,4-3.9,7c-4.1,8.7-2.4,15.3-2.3,15.5
		c0.1,0.2,0.3,0.4,0.5,0.4l0,0c8.3-0.1,80.9-1.2,85.5-6.4c0.3-0.4,0.4-0.7,0.3-1C313,442.4,303.1,430.8,296.8,425.9z M228.1,453.6
		c-0.3-1.5-1-7.2,2.3-14.4c1.4-2.9,2.6-4.9,3.9-6.9c2.4-3.7,4.6-7.2,6.8-16.3c1.8-7.3,4.3-10.9,7.5-10.9c0.3,0,0.6,0,0.8,0.1
		c1.2,0.2,3.3,1.3,4.7,6.5c1.2,4.5,1.5,8.7,1.7,12.8c0.4,6.9,0.8,13,6.2,17.6c2.7,2.3,6,3.6,9.1,3.6c2.6,0,5-0.9,7-2.7
		c3.3-3.1,5.1-7.1,6.7-10.8c0.7-1.5,1.3-3,2-4.2c1.1-1.9,2.5-2.9,4.3-3.1c2.1-0.2,3.4,0.5,4.9,1.6c6.4,5.1,15.8,16.5,16.2,20.7
		C311.8,450.6,269.2,453.1,228.1,453.6z"/>
	<path fill="#C62B83" d="M154.3,376.8h0.1c0.3,0,0.5-0.2,0.5-0.4c0.4-1.9,0.8-3.7,1.2-5.5c0.1-0.3-0.1-0.6-0.4-0.7
		c-0.3-0.1-0.6,0.1-0.7,0.4c-0.4,1.8-0.8,3.7-1.2,5.5C153.8,376.4,154,376.7,154.3,376.8z"/>
	<path fill="#C62B83" d="M225.8,302.6c-0.9,1.4-1.8,2.9-2.8,4.6c-0.2,0.3-0.1,0.6,0.2,0.8c0.1,0,0.2,0.1,0.3,0.1
		c0.2,0,0.4-0.1,0.5-0.3c1-1.7,1.9-3.2,2.8-4.5c0.2-0.3,0.1-0.6-0.2-0.8C226.3,302.3,225.9,302.4,225.8,302.6z"/>
	<path fill="#C62B83" d="M210.6,331c-0.7,1.7-1.3,3.4-1.9,5c-0.1,0.3,0,0.6,0.3,0.7c0.1,0,0.1,0,0.2,0c0.2,0,0.4-0.1,0.5-0.4
		c0.6-1.6,1.3-3.3,1.9-5c0.1-0.3,0-0.6-0.3-0.7S210.7,330.7,210.6,331z"/>
	<path fill="#C62B83" d="M199.3,273.5c1.1-1.6,2.3-3.1,3.4-4.5c0.2-0.2,0.1-0.6-0.1-0.8c-0.2-0.2-0.6-0.1-0.8,0.1
		c-1.1,1.5-2.3,3-3.4,4.5c-0.2,0.3-0.1,0.6,0.1,0.8c0.1,0.1,0.2,0.1,0.3,0.1C199,273.7,199.2,273.6,199.3,273.5z"/>
	<path fill="#C62B83" d="M215.3,321.3c-0.9,1.8-1.7,3.4-2.4,4.8c-0.1,0.3,0,0.6,0.3,0.8c0.1,0,0.2,0.1,0.2,0.1
		c0.2,0,0.4-0.1,0.5-0.3c0.7-1.4,1.5-3,2.4-4.8c0.1-0.3,0-0.6-0.2-0.8C215.8,320.9,215.5,321,215.3,321.3z"/>
	<path fill="#C62B83" d="M203.3,351c-0.6,1.8-1.1,3.5-1.6,5.1c-0.1,0.3,0.1,0.6,0.4,0.7c0.1,0,0.1,0,0.2,0c0.2,0,0.5-0.2,0.5-0.4
		c0.5-1.6,1.1-3.3,1.6-5.1c0.1-0.3-0.1-0.6-0.4-0.7C203.7,350.6,203.4,350.8,203.3,351z"/>
	<path fill="#C62B83" d="M206.8,83.5c-2.5,1.6-5.6,2.6-9,2.9l0.1,5.7c2,0.1,3.9,0.4,5.8,0.8v-0.1c3.5-0.7,6.7-2,9.4-3.7L206.8,83.5z
		"/>
	<path fill="#C62B83" d="M186.5,292.7c0.2,0,0.4-0.1,0.5-0.3c1-1.7,2-3.3,2.9-4.8c0.2-0.3,0.1-0.6-0.2-0.8c-0.3-0.2-0.6-0.1-0.8,0.2
		c-1,1.6-1.9,3.2-2.9,4.9c-0.2,0.3-0.1,0.6,0.2,0.8C186.3,292.6,186.4,292.7,186.5,292.7z"/>
	<path fill="#C62B83" d="M192.5,368.1c-0.1,0.3,0.1,0.6,0.4,0.7c0.1,0,0.1,0,0.2,0c0.2,0,0.5-0.2,0.5-0.4c0.6-2.1,1.3-4.4,2-6.9
		c2.4-8.7,5.5-19.6,11.4-33c8.8-19.8,20.6-37.4,20.7-37.5c0.2-0.3,0.1-0.6-0.2-0.8c-0.3-0.2-0.6-0.1-0.8,0.2
		c-0.1,0.2-12,17.8-20.8,37.7c-5.9,13.4-9,24.3-11.4,33.1C193.8,363.7,193.2,365.9,192.5,368.1z"/>
	<path fill="#C62B83" d="M206.8,341c-0.6,1.7-1.2,3.4-1.8,5c-0.1,0.3,0.1,0.6,0.3,0.7c0.1,0,0.1,0,0.2,0c0.2,0,0.4-0.1,0.5-0.4
		c0.6-1.6,1.2-3.3,1.8-5c0.1-0.3,0-0.6-0.3-0.7S206.9,340.7,206.8,341z"/>
	<path fill="#C62B83" d="M174.9,445c-3.7,3.4-10.4,6.3-16.2,5c-7.7-1.8-11.2-5.8-15.3-10.5c-3.2-3.6-6.8-7.8-12.9-11.2
		c-5.8-3.2-11.3-4.6-14.4-3.6c-1.1,0.3-1.9,1.1-2.4,2.1c-0.6,1.2-0.6,2.7,0,4.4c0.5,1.5,1.2,3.1,2,4.9c1.9,4.3,4,9.1,3.9,12.8
		c0,0.3,0.2,0.6,0.5,0.6l0,0c0.3,0,0.6-0.2,0.6-0.5c0.1-4-2.1-8.9-4-13.3c-0.8-1.7-1.5-3.4-2-4.8c-0.5-1.3-0.5-2.6,0-3.5
		c0.3-0.7,0.9-1.2,1.7-1.5c2.1-0.7,6.9-0.2,13.5,3.5c5.9,3.3,9.3,7.2,12.6,10.9c4,4.6,7.8,9,15.9,10.9c1.1,0.2,2.2,0.4,3.3,0.4
		c5.3,0,10.7-2.7,14-5.6c0.2-0.2,0.2-0.6,0-0.8C175.5,444.8,175.1,444.8,174.9,445z"/>
	<path fill="#C62B83" d="M196.1,57.2l-0.1-5.6c-6.4,0.1-12.4,2.3-17,5.8l4.7,4.1C186.8,58.9,191.2,57.2,196.1,57.2z"/>
	<path fill="#C62B83" d="M215.5,228.8c1.8-0.6,2.4-1.1,2.4-1.7c0-0.3-0.2-0.6-0.5-0.7V201c0-0.3-0.3-0.6-0.6-0.6s-0.6,0.3-0.6,0.6
		v25.8c0,0.2,0.1,0.3,0.2,0.4c-0.2,0.1-0.6,0.3-1.3,0.5c-3,1-2.8,4.7-2.3,6.6V271c0,0.3,0.3,0.6,0.6,0.6s0.6-0.3,0.6-0.6v-36.7
		c0-0.1,0-0.1,0-0.2C214,234,212.7,229.8,215.5,228.8z"/>
	<path fill="#C62B83" d="M203,22.5h-12.9l-0.1-0.1c-0.2-0.1-0.8-0.5-1.3-0.5c-0.2,0-0.9,0-0.9,1.8v5.8c0,0-0.3,1,0.3,1.7
		c0.4,0.5,1,0.7,2,0.7c3.6,0,12,0.3,12.1,0.3s0.3,0,0.7,0c1.5,0,3.2-0.4,3.2-2.3v-4.5c0-0.1,0.1-1.3-0.7-2.1
		C204.8,22.8,204,22.5,203,22.5z"/>
	<path fill="#C62B83" d="M177.2,57.4l-10.8-9.5c-1.1,1.4-1.2,2.7-1.2,2.7s-1.1,2.3-1.1,9.7c0,1.8,0,6.2,0,11.8h5.2
		C169.5,66.5,172.6,61.3,177.2,57.4z"/>
	<path fill="#C62B83" d="M182.8,62.3l-4.7-4.2c-4.5,3.7-7.4,8.7-7.7,14h8.1c0-0.1,0-0.2,0-0.3C178.5,68.2,180.1,64.8,182.8,62.3z"/>
	<path fill="#C62B83" d="M232.2,72.1l0.7-19l-8.6-14.2l-1.1-12.7c0,0-4.9-5.6-7.9-8.2s-4.6-4.1-9-4.1s-8.1,0-13.1,0s-8.2,3-8.2,3
		s-5.6,5.2-7.9,6.4c-2.2,1.1-3,3.9-3,5.6s0,13.9,0,13.9s1.5,0.7-3.6,2.4c-1.5,0.5-2.6,1.2-3.4,1.9l10.9,9.6
		c4.8-3.7,11.1-6.1,17.9-6.2l-0.1-3.6h1.1l0.1,3.7c7.2,0.1,13.8,2.7,18.8,6.7l9.4-6.6c0.3-0.2,0.6-0.1,0.8,0.1
		c0.2,0.3,0.1,0.6-0.1,0.8l-9.2,6.5c4.4,3.8,7.2,8.8,7.4,14.1L232.2,72.1L232.2,72.1z M207.1,30c0,2.1-1.6,3.4-4.4,3.4
		c-0.5,0-0.8,0-0.8,0c-0.1,0-8.4-0.3-12-0.3c-1.3,0-2.3-0.4-2.9-1.1c-0.7-1-0.5-2.2-0.5-2.6v-5.6c0-2.6,1.3-2.9,2-2.9
		c0.8,0,1.5,0.4,1.8,0.6H203c1.3,0,2.4,0.4,3.1,1.2c1.1,1.2,1,2.9,1,2.9V30z"/>
	<path fill="#C62B83" d="M318.3,395.6c0-2-1.3-3.6-3-3.6s-3,1.6-3,3.6s1.3,3.6,3,3.6C316.9,399.2,318.3,397.6,318.3,395.6z
		 M313.4,395.6c0-1.3,0.8-2.4,1.9-2.4c1,0,1.9,1.1,1.9,2.4s-0.8,2.4-1.9,2.4C314.3,398.1,313.4,397,313.4,395.6z"/>
	<path fill="#C62B83" d="M198.6,124.9l0.2,7.5c13.2-1,23.5-9.4,23.5-19.6c0-10.4-10.8-18.9-24.3-19.6l0.1,5.3
		c8.1,0.1,14.7,6,14.7,13.2C212.7,118.7,206.5,124.5,198.6,124.9z"/>
	<path fill="#C62B83" d="M223.1,72.1c-0.3-5-3.1-9.7-7.4-13.4l-5.7,4c2.4,2.5,3.9,5.7,3.9,9.1c0,0.1,0,0.2,0,0.3H223.1z"/>
	<path fill="#C62B83" d="M197.2,57.2c4.7,0.2,8.9,2,11.9,4.7l5.7-4c-4.7-3.7-11.1-6.2-17.7-6.3L197.2,57.2z"/>
	<path fill="#C62B83" d="M200.1,361.2c-0.6,1.9-1.1,3.6-1.5,5.1c-0.1,0.3,0.1,0.6,0.4,0.7c0.1,0,0.1,0,0.2,0c0.2,0,0.5-0.2,0.5-0.4
		c0.4-1.5,0.9-3.2,1.5-5.1c0.1-0.3-0.1-0.6-0.4-0.7C200.5,360.8,200.2,360.9,200.1,361.2z"/>
	<path fill="#C62B83" d="M227.6,273.1l1.1,0.1c0,0,1-16.7,1.7-30.3c0.7-12.1-2.5-16.2-3.4-17.1v-27.5c0-0.3-0.3-0.6-0.6-0.6
		s-0.6,0.3-0.6,0.6V226c0,0.2,0.1,0.3,0.2,0.4c0,0,3.9,3.4,3.2,16.4C228.6,256.4,227.6,273.1,227.6,273.1z"/>
	<path fill="#C62B83" d="M229.7,298.9c0.6-0.8,1.2-1.5,1.8-2.1c0.2-0.2,0.2-0.6,0-0.8c-0.2-0.2-0.6-0.2-0.8,0
		c-0.6,0.6-1.2,1.3-1.8,2.2c-0.2,0.2-0.1,0.6,0.1,0.8c0.1,0.1,0.2,0.1,0.3,0.1C229.4,299.1,229.6,299.1,229.7,298.9z"/>
	<path fill="#C62B83" d="M64.8,431.4c-0.3-0.1-0.6,0.1-0.7,0.4s0.1,0.6,0.4,0.7c0.2,0,17.6,4.4,20.9,13.1c0.1,0.2,0.3,0.4,0.5,0.4
		c0.1,0,0.1,0,0.2,0c0.3-0.1,0.4-0.4,0.3-0.7C83,435.9,65.6,431.6,64.8,431.4z"/>
	<path fill="#C62B83" d="M247.2,115.3c7.5,2.6,13.5-4.4,18.6-10.6C279,88.4,305.9,61,351.6,45l-15.5-25.1L292,19.8L281.5,22
		c0,0-27.7-1.5-35.2-1.5s-6.1,8.2-6.1,8.2s0.8,2.2,0.8,6.4s0,63.3,0,63.3S239.7,112.6,247.2,115.3z M248.4,33.4c0-0.1,0-2,1.5-3.6
		c1.2-1.2,2.9-1.8,5.2-1.8h34.7c3.5,0,5.4,1.8,5.4,5.2c0,2.8,0,24.9,0,24.9c0,0.1,0.1,2.3-1.5,4c-1.1,1.2-2.7,1.8-4.8,1.8h-34.6
		c-2,0-3.5-0.6-4.5-1.7c-1.5-1.6-1.3-3.8-1.3-3.9L248.4,33.4z"/>
	<path fill="#C62B83" d="M170,186.9c18.6,2.4,36.8,2.6,43,2.6c1.5,0,2.3,0,2.3,0c0.3,0,0.6-0.3,0.6-0.6s-0.2-0.5-0.6-0.6
		c-0.2,0-22.3,0.3-45.2-2.6c-7.7-1-13.1-3.7-16.3-8.1c-4-5.6-2.7-12.1-2.7-12.3c0-0.3,1.1-30.5,1.1-41.9c0-11.3,7.7-23.9,7.8-24
		c0.2-0.3,0.1-0.6-0.2-0.8c-0.3-0.2-0.6-0.1-0.8,0.2c-0.3,0.5-7.9,13-7.9,24.6c0,11.5-1.1,41.6-1.1,41.8c-0.1,0.3-1.4,7,2.9,13
		C156.3,183,162,185.9,170,186.9z"/>
	<path fill="#C62B83" d="M195.1,277.5c-1,1.5-2.1,3-3.1,4.7c-0.2,0.3-0.1,0.6,0.2,0.8c0.1,0.1,0.2,0.1,0.3,0.1
		c0.2,0,0.4-0.1,0.5-0.3c1.1-1.7,2.1-3.2,3.1-4.7c0.2-0.3,0.1-0.6-0.1-0.8C195.6,277.1,195.3,277.2,195.1,277.5z"/>
	<path fill="#C62B83" d="M220.3,311.9c-0.9,1.6-1.7,3.2-2.5,4.7c-0.1,0.3,0,0.6,0.2,0.8c0.1,0,0.2,0.1,0.3,0.1
		c0.2,0,0.4-0.1,0.5-0.3c0.8-1.5,1.7-3.1,2.5-4.7c0.1-0.3,0.1-0.6-0.2-0.8C220.8,311.5,220.5,311.6,220.3,311.9z"/>
	<path fill="#C62B83" d="M266.9,51.8c0,1.2,1.3,2.2,3,2.2s3-1,3-2.2s-1.3-2.2-3-2.2C268.3,49.5,266.9,50.6,266.9,51.8z"/>
	<path fill="#C62B83" d="M250.5,61.5c0.8,0.9,2,1.3,3.6,1.3h34.6c1.8,0,3.1-0.5,4-1.4c1.3-1.4,1.2-3.2,1.2-3.2s0-22.2,0-25
		c0-2.7-1.4-4.1-4.3-4.1h-34.7c-2,0-3.4,0.5-4.4,1.5c-1.2,1.2-1.2,2.8-1.2,2.8v25C249.5,58.5,249.4,60.3,250.5,61.5z M272.2,32.1
		c5.7,0,10.8,2.8,13.4,7.3l-1,0.6c-2.4-4.2-7.1-6.7-12.4-6.7c-7.6,0-13.9,5.5-13.9,12.2s6.2,12.2,13.9,12.2c3,0,5.8-0.8,8.2-2.3
		l0.6,0.9c-2.6,1.7-5.6,2.5-8.8,2.5c-8.3,0-15-6-15-13.3C257.2,38.1,263.9,32.1,272.2,32.1z M274,51.8c0,1.9-1.8,3.4-4.1,3.4
		c-2.3,0-4.1-1.5-4.1-3.4s1.8-3.4,4.1-3.4C272.2,48.4,274,49.9,274,51.8z"/>
</g>
</svg>
