<?xml version="1.0" encoding="utf-8"?>
<!-- Generator: Adobe Illustrator 17.1.0, SVG Export Plug-In . SVG Version: 6.00 Build 0)  -->
<!DOCTYPE svg PUBLIC "-//W3C//DTD SVG 1.1//EN" "http://www.w3.org/Graphics/SVG/1.1/DTD/svg11.dtd">
<svg version="1.1" id="Layer_1" xmlns="http://www.w3.org/2000/svg" xmlns:xlink="http://www.w3.org/1999/xlink" x="0px" y="0px"
	 width="131px" height="18px" viewBox="0 0 131 18" enable-background="new 0 0 131 18" xml:space="preserve">
<g>
	<path fill="#FFFFFF" d="M6.9,1.4H0v1.9l1.8,0.3v12.1L0,15.9v1.8h6.9c2.1,0,3.9-0.7,5.2-2c1.3-1.3,2-3,2-5.1V8.5
		c0-2.1-0.7-3.8-2-5.1C10.8,2,9.1,1.4,6.9,1.4z M6.9,15.6H4.4v-12h2.5c1.4,0,2.5,0.4,3.3,1.4C11,5.8,11.4,7,11.4,8.5v2.2
		c0,1.4-0.4,2.6-1.2,3.6C9.4,15.1,8.3,15.6,6.9,15.6z"/>
	<path fill="#FFFFFF" d="M21,5.2c-1.4,0-2.7,0.6-3.7,1.8c-1,1.2-1.6,2.6-1.6,4.4v0.5c0,1.8,0.5,3.3,1.5,4.4c1,1.1,2.4,1.7,4.1,1.7
		c1,0,1.9-0.1,2.6-0.4c0.7-0.3,1.3-0.7,1.8-1.1l0.1-0.1l-1.1-1.8l-0.2,0.2c-0.4,0.3-0.8,0.6-1.3,0.8c-0.5,0.2-1.1,0.3-1.8,0.3
		c-0.9,0-1.6-0.3-2.1-1c-0.5-0.6-0.8-1.5-0.8-2.5h7.7v-1.6c0-1.7-0.4-3-1.3-4C24,5.7,22.7,5.2,21,5.2z M21,7.4
		c0.8,0,1.4,0.2,1.8,0.8c0.4,0.5,0.6,1.2,0.6,2v0h-4.9c0.1-0.8,0.4-1.4,0.8-1.9C19.8,7.7,20.4,7.4,21,7.4z"/>
	<path fill="#FFFFFF" d="M39,5.5h-6.7v-1c0-0.7,0.2-1.2,0.5-1.6c0.3-0.3,0.9-0.5,1.7-0.5c0.4,0,0.9,0.1,1.3,0.2
		c0.4,0.1,0.8,0.2,1.2,0.4L37.2,3l0.5-2.3l-0.2-0.1c-0.6-0.2-1.2-0.4-1.7-0.5c-0.5-0.1-1-0.2-1.5-0.2c-1.4,0-2.6,0.4-3.4,1.2
		C30,1.9,29.6,3,29.6,4.4v1h-1.8v2.1h1.8v8.1l-1.8,0.3v1.8h5.9v-1.8l-1.5-0.3V7.5h4.1v8.1l-1.6,0.3v1.8h6v-1.8L39,15.6V5.5z"/>
	<path fill="#FFFFFF" d="M50,11.8c-0.8-0.6-1.9-1-3.4-1.4c-1.2-0.3-1.7-0.5-1.9-0.7c-0.3-0.2-0.4-0.5-0.4-0.9c0-0.4,0.2-0.7,0.5-1
		c0.3-0.3,0.8-0.4,1.5-0.4c0.5,0,0.9,0.1,1.3,0.2c0.3,0.1,0.6,0.3,0.9,0.5l0.4,1.5h2.1l-0.1-3l-0.1-0.1c-0.5-0.4-1.1-0.8-1.9-1
		c-0.7-0.2-1.6-0.4-2.5-0.4c-1.4,0-2.5,0.4-3.4,1.1C42.1,7,41.6,7.9,41.6,9c0,1,0.4,1.8,1.2,2.4c0.8,0.6,1.9,1,3.3,1.3
		c1,0.2,1.6,0.5,1.9,0.7c0.3,0.3,0.5,0.6,0.5,1c0,0.4-0.2,0.8-0.5,1c-0.4,0.3-0.9,0.4-1.7,0.4c-0.4,0-0.8,0-1.2-0.1
		c-0.4-0.1-0.6-0.2-0.8-0.4l-0.4-1.7h-2.1l0,3.1l0.1,0.1c0.6,0.4,1.2,0.7,2,0.9c0.7,0.2,1.6,0.3,2.5,0.3c1.4,0,2.6-0.3,3.5-1
		c0.9-0.7,1.4-1.6,1.4-2.7C51.2,13.2,50.8,12.4,50,11.8z"/>
	<path fill="#FFFFFF" d="M58.2,5.2c-1.7,0-3.1,0.6-4,1.8c-1,1.2-1.5,2.7-1.5,4.5v0.2c0,1.8,0.5,3.3,1.5,4.5c1,1.2,2.4,1.8,4.1,1.8
		c1.7,0,3.1-0.6,4-1.8c1-1.2,1.5-2.7,1.5-4.5v-0.2c0-1.8-0.5-3.3-1.5-4.5C61.3,5.8,59.9,5.2,58.2,5.2z M55.4,11.5
		c0-1.2,0.3-2.2,0.7-3c0.5-0.8,1.2-1.1,2.1-1.1c1,0,1.7,0.4,2.1,1.1c0.5,0.8,0.8,1.8,0.8,3v0.2c0,1.2-0.3,2.2-0.8,3
		c-0.5,0.7-1.2,1.1-2.1,1.1c-1,0-1.7-0.4-2.1-1.1c-0.5-0.8-0.8-1.8-0.8-3V11.5z"/>
	<polygon fill="#FFFFFF" points="76.3,14.5 76.3,14.5 71.2,1.6 68.4,1.6 66.7,1.6 66.7,3 68.4,3.3 68.4,15.8 66.7,16.1 66.7,17.5 
		72.4,17.5 72.4,16.1 70.6,15.8 70.6,11.2 70.4,4.8 70.4,4.8 75.6,17.5 77,17.5 82.1,4.8 82.2,4.8 82,11.2 82,15.8 80.2,16.1 
		80.2,17.5 85.9,17.5 85.9,16.1 84.1,15.8 84.1,3.3 85.9,3 85.9,1.6 81.4,1.6 	"/>
	<path fill="#FFFFFF" d="M92.7,5.5c-1.4,0-2.6,0.6-3.6,1.7s-1.5,2.5-1.5,4.2v0.5c0,1.7,0.5,3.2,1.5,4.3c1,1.1,2.3,1.6,3.9,1.6
		c1,0,1.8-0.1,2.5-0.4c0.7-0.3,1.3-0.6,1.7-1l-0.8-1.4c-0.4,0.4-0.9,0.6-1.4,0.9c-0.5,0.2-1.2,0.3-1.9,0.3c-1,0-1.8-0.4-2.3-1.1
		c-0.6-0.7-0.8-1.7-0.9-2.8l0-0.1h7.7v-1.3c0-1.6-0.4-2.9-1.2-3.8C95.5,6,94.3,5.5,92.7,5.5z M95.4,10.4H90l0-0.1
		c0.1-0.9,0.4-1.7,0.9-2.3c0.5-0.6,1.1-0.9,1.8-0.9c0.9,0,1.6,0.3,2,0.9c0.5,0.6,0.7,1.3,0.7,2.1V10.4z"/>
	<path fill="#FFFFFF" d="M109.7,0.5h-2.2h-1.8v1.4l1.8,0.3V7c-0.4-0.5-0.8-0.9-1.4-1.1c-0.5-0.3-1.2-0.4-1.9-0.4
		c-1.5,0-2.6,0.6-3.4,1.7c-0.8,1.2-1.2,2.7-1.2,4.6v0.2c0,1.7,0.4,3.1,1.2,4.1c0.8,1,1.9,1.6,3.4,1.6c0.7,0,1.4-0.1,1.9-0.4
		c0.6-0.3,1-0.7,1.4-1.2l0.2,1.4h3.6v-1.4l-1.8-0.3V0.5z M107.5,14.3c-0.3,0.5-0.6,0.9-1.1,1.2c-0.4,0.3-1,0.4-1.6,0.4
		c-1,0-1.8-0.4-2.3-1.1c-0.5-0.7-0.7-1.7-0.7-2.9v-0.2c0-1.4,0.2-2.5,0.7-3.3c0.5-0.9,1.3-1.3,2.3-1.3c0.6,0,1.2,0.1,1.6,0.4
		c0.4,0.3,0.8,0.7,1.1,1.2V14.3z"/>
	<rect x="114.9" y="0.5" fill="#FFFFFF" width="2.2" height="2.2"/>
	<polygon fill="#FFFFFF" points="117,5.7 113.1,5.7 113.1,7.1 114.9,7.4 114.9,15.8 113.1,16.1 113.1,17.5 118.8,17.5 118.8,16.1 
		117,15.8 	"/>
	<path fill="#FFFFFF" d="M130.1,16c0-0.1,0-0.3,0-0.4c0-0.1,0-0.3,0-0.4V9.4c0-1.3-0.4-2.3-1.2-2.9c-0.8-0.7-1.9-1-3.3-1
		c-0.9,0-1.7,0.1-2.5,0.4c-0.8,0.3-1.4,0.6-2,1v2.3h1.7L123,8c0.3-0.2,0.6-0.4,1-0.6c0.4-0.1,0.9-0.2,1.4-0.2c0.8,0,1.4,0.2,1.8,0.6
		c0.4,0.4,0.7,1,0.7,1.6v1.4h-2.2c-1.6,0-2.8,0.3-3.7,0.9c-0.9,0.6-1.4,1.5-1.4,2.6c0,1.1,0.3,1.9,1,2.5c0.6,0.6,1.6,0.9,2.8,0.9
		c0.7,0,1.4-0.2,2-0.5c0.6-0.4,1.1-0.8,1.6-1.3c0,0.3,0,0.5,0.1,0.8c0,0.3,0.1,0.5,0.2,0.9h2.8v-1.4L130.1,16z M127.9,14.2
		c-0.3,0.5-0.7,0.9-1.3,1.2c-0.6,0.3-1.2,0.5-2,0.5c-0.6,0-1.1-0.1-1.5-0.4c-0.3-0.3-0.5-0.7-0.5-1.2c0-0.6,0.3-1.1,0.8-1.5
		c0.5-0.4,1.2-0.6,2.1-0.6h2.3V14.2z"/>
</g>
</svg>
